/* XPM */
static char *result[] = {
/* columns rows colors chars-per-pixel */
"32 32 65 1 ",
"  c #583615",
". c #6D431A",
"X c #9F5F1F",
"o c #8D5721",
"O c #8E5822",
"+ c #A26120",
"@ c #A56526",
"# c #A56627",
"$ c #A76727",
"% c #AC6621",
"& c #A86727",
"* c #A96928",
"= c #AD6A28",
"- c #AE6B29",
"; c #B16C27",
": c #B96E23",
"> c #B16D2A",
", c #B26E2A",
"< c #B46F2A",
"1 c #BF7327",
"2 c #BC7229",
"3 c #BF742A",
"4 c #BB732C",
"5 c #BB742C",
"6 c #BD742D",
"7 c #BF762D",
"8 c #C2762A",
"9 c #C0752D",
"0 c #C2782E",
"q c #C5782C",
"w c #C5792C",
"e c #C6792D",
"r c #C77A2D",
"t c #C67A2E",
"y c #C67B2F",
"u c #C77B2F",
"i c #C87B2E",
"p c #C87B2F",
"a c #C87C2F",
"s c #C97C2F",
"d c #C97D2F",
"f c #C87C30",
"g c #C97C30",
"h c #C97D30",
"j c #CA7C30",
"k c #CB7C30",
"l c #CA7D30",
"z c #C97E30",
"x c #7FC144",
"c c #7DC344",
"v c #75CA46",
"b c #72CC46",
"n c #73CC47",
"m c #72CD47",
"M c #BD8934",
"N c #A99838",
"B c #B59035",
"V c #94AD3E",
"C c #9AA83D",
"Z c #C58131",
"A c #C18532",
"S c #C18533",
"D c #84B540",
"F c #87B941",
"G c None",
/* pixels */
"GGGGGGGGGGGGGGGGGGGGGGGGGGGGGGGG",
"GGGGGGGGGGGGGGGGGGGGGGGGGGGGGGGG",
"GGGGGGGGGGGGGGGGGGGGGGGGGGGGGGGG",
"GGGGGGGGGGGGGGGnnnGGGGGGGGGGGGGG",
"GGGGGGGGGGbnnGGnnnGnnnnGGGGGGGGG",
"GGGGGGGGGGnnnnGnnnnnnnnGGGGGGGGG",
"GGGGGGGGGGnnnnnnnnnnnnnGGGGGGGGG",
"GGGGGGGGGGnnnnnnnnnnnnGGGGGGGGGG",
"GGGGGGGGGGGnnnnnnnnnnGGGGGGGGGGG",
"GGGGGGGGGGGGGnnnnnnGGGGGGGGGGGGG",
"GGGGGGGGGGGGGGnnnnmGGGGGGGGGGGGG",
"GGGGGGGGGGGGGGcnnnDGGGGGGGGGGGGG",
"GGGGGGGGGGGGjhCmmvN9-GGGGGGGGGGG",
"GGGGGGGGGGGllkBFxVAj6&GGGGGGGGGG",
"GGGGGGGGGGGlllzSMZllu-GGGGGGGGGG",
"GGGGGGGGGGGllllkklllg>GGGGGGGGGG",
"GGGGGGGGGGGllllllllla=GGGGGGGGGG",
"GGGGGGGGGGGgllllllls2XGGGGGGGGGG",
"GGGGGGGGGGGGwslllls8%GGGGGGGGGGG",
"GGGGGGGGGGGG:1qslllt=GGGGGGGGGGG",
"GGGGGGGGGGGGqeillll7$GGGGGGGGGGG",
"GGGGGGGGGGGGGlllllp;GGGGGGGGGGGG",
"GGGGGGGGGGGGGlllld3+GGGGGGGGGGGG",
"GGGGGGGGGGGGGrplll4@GGGGGGGGGGGG",
"GGGGGGGGGGGGGGqsla,GGGGGGGGGGGGG",
"GGGGGGGGGGGGGGyll0#GGGGGGGGGGGGG",
"GGGGGGGGGGGGGGOfl<.GGGGGGGGGGGGG",
"GGGGGGGGGGGGGGG*5oGGGGGGGGGGGGGG",
"GGGGGGGGGGGGGGGG GGGGGGGGGGGGGGG",
"GGGGGGGGGGGGGGGGGGGGGGGGGGGGGGGG",
"GGGGGGGGGGGGGGGGGGGGGGGGGGGGGGGG",
"GGGGGGGGGGGGGGGGGGGGGGGGGGGGGGGG"
};
