/* XPM */
static char *_2f8fc79afb142bae1c1ad7ef390b590RvlOaYQsUc0oFk9i[] = {
/* columns rows colors chars-per-pixel */
"32 32 66 1 ",
"  c None",
". c #3F1500",
"X c #301807",
"o c #5E2306",
"O c #52230A",
"+ c #54331A",
"@ c #6F3401",
"# c #823711",
"$ c #873B14",
"% c #8D3F17",
"& c #96440E",
"* c #8D4B1F",
"= c #934518",
"- c #A14B10",
"; c #A75A15",
": c #954D22",
"> c #985428",
", c #9C5D2F",
"< c #B55624",
"1 c #B85B23",
"2 c #9C6628",
"3 c #BF6225",
"4 c #B87222",
"5 c #BA772A",
"6 c #CA6316",
"7 c #C25D21",
"8 c #C7682C",
"9 c #D26725",
"0 c #D56C2C",
"q c #C06F39",
"w c #CC7D30",
"e c #DF7F3E",
"r c #E07A38",
"t c #845F44",
"y c #DA7844",
"u c #B98F3F",
"i c #E2873C",
"p c #AE8A5A",
"a c #D8864B",
"s c #D9925A",
"d c #DA9858",
"f c #E28A41",
"g c #EB8946",
"h c #EFA25E",
"j c #E39D6F",
"k c #DAA36D",
"l c #CCA777",
"z c #E0A468",
"x c #F5AE66",
"c c #EBB67C",
"v c #E5B482",
"b c #EBBD81",
"n c #E9C98E",
"m c #F2C592",
"M c #F1C99A",
"N c #EBE296",
"B c #E7CFA3",
"V c #EED8A6",
"C c #FFDFB2",
"Z c #F9DDBB",
"A c #F5EFCB",
"S c #FAECD0",
"D c #FCF3DF",
"F c #FDF9DE",
"G c #FFFBF3",
"H c white",
/* pixels */
"                                ",
"                                ",
"                                ",
"           ...OOOO..            ",
"        ..o%%OFFFFO%o..         ",
"       .$%%$OFFFFFFO$%%.        ",
"      .$%$%%ONFFFFNO%$%<.+      ",
"     +.#*%<%%OuNNNO%%y<%.B+     ",
"    +B;f01%y%%%OOO<y<%%$7@B+    ",
"   tBG5mfbs%C%%%%%%%%%%<a5GBt   ",
"   pGG5Amfh3=y<%%%%%=<C#A5GGp   ",
"  XBGB5VAmff>*%=8exx7#:kn5lGBX  ",
"  pGGl5mVAAm%###fffhmAAn5SlGGp  ",
" XBGGBS5VVAAk,,kAAAAAVnA5SBGGBX ",
" XGGBS@6hVnnVvMAnnVAAAAm6@SBGGX ",
" XGGlS@66mVVndnVAAAAAAm66@SlGGX ",
" XGGlS@mhffmczMAAAAAmi6662SlGGX ",
" XGGlS2Vmhhgrrrghhhhhhi6m2SlGGX ",
" XHHlS4nVAAmh99fhhffhfmAA2SBHHX ",
" XHHBS4VnnVAMvvMAAAAAAAAwGSZHHX ",
" XSHHZZ4VAAAAvvAAAAAAVnV;SZSHSX ",
"  XHHBSZ;wVAAvvAAAVnnAA4lSBHHX  ",
"  XSHSZSGZ;&wvvMAAAAAw;ZSBGHSX  ",
"   tHHSBGGZjq&&&-;;;;ZGGBSHHt   ",
"   XSHGSBGGGjqqqqjGGGGGBSGHSX   ",
"    tSGHSBZDGGGGGGGGDZBSHGSt    ",
"     XSGGGHZZZZZZZZZZHHHHSX     ",
"      XtSHHHHHHHHHHHHHHStX      ",
"        XXtSHHHHHHHHStXX        ",
"           XXXXXXXXXX           ",
"                                ",
"                                "
};
