/* XPM */
static char *_5541863a53f4770d15c0549c3ad5821ZVOxzLKeapt2VIdH[] = {
/* columns rows colors chars-per-pixel */
"64 64 187 2 ",
"   c None",
".  c #250C00",
"X  c #280F00",
"o  c #2A1101",
"O  c #331804",
"+  c #321704",
"@  c #3D210C",
"#  c #46260E",
"$  c #49260B",
"%  c #492C16",
"&  c #502E14",
"*  c #4C311D",
"=  c #59371C",
"-  c #553A23",
";  c #5A4535",
":  c #5C493C",
">  c #5A4637",
",  c #69452B",
"<  c #714B2F",
"1  c #664B37",
"2  c #7D5A3C",
"3  c #795337",
"4  c #5F4D41",
"5  c #614F42",
"6  c #695648",
"7  c #6F5A4C",
"8  c #685344",
"9  c #755B46",
"0  c #795F4B",
"q  c #715949",
"w  c #79604E",
"e  c #786150",
"r  c #805A3E",
"t  c #8A5E3D",
"y  c #835D43",
"u  c #946A4B",
"i  c #846955",
"p  c #9B765C",
"a  c #936A4C",
"s  c #A37855",
"d  c #AD7949",
"f  c #8F7562",
"g  c #817166",
"h  c #917664",
"j  c #997C66",
"k  c #9C7F6A",
"l  c #967A66",
"z  c #887B71",
"x  c #9F826D",
"c  c #9C8878",
"v  c #A3846E",
"b  c #A78667",
"n  c #B38B6D",
"m  c #A18571",
"M  c #AA8C76",
"N  c #B48E70",
"B  c #AC927D",
"V  c #BC9373",
"C  c #BE977A",
"Z  c #B59176",
"A  c #BC9168",
"S  c #C99C75",
"D  c #C99E7C",
"F  c #C19A7D",
"G  c #CAA17F",
"H  c #DEAE7E",
"J  c #D5A679",
"K  c #E9B67F",
"L  c #AC9585",
"P  c #B49A83",
"I  c #B59D8B",
"U  c #BCA78D",
"Y  c #AAA19A",
"T  c #BAA494",
"R  c #B7A293",
"E  c #B6ABA3",
"W  c #BAACA2",
"Q  c #BEB1A9",
"!  c #BFB1A7",
"~  c #CAA383",
"^  c #C9A78C",
"/  c #CDAB8E",
"(  c #D9AC81",
")  c #DFB185",
"_  c #CBAB92",
"`  c #CFB29C",
"'  c #D0B49E",
"]  c #E1B286",
"[  c #E9B781",
"{  c #EAB883",
"}  c #E0B388",
"|  c #EABB8B",
" . c #E8BF95",
".. c #C2B6AD",
"X. c #C7B7A6",
"o. c #D2B6A0",
"O. c #D6B9A4",
"+. c #C5BBB1",
"@. c #CEBFB4",
"#. c #EDC397",
"$. c #EDC59B",
"%. c #E6CD9F",
"&. c #DCC6AA",
"*. c #CDC1B6",
"=. c #D9C4B4",
"-. c #DDCABD",
";. c #E6CDA0",
":. c #EDCCA5",
">. c #E8CCAC",
",. c #F0CCA6",
"<. c #F1CDA8",
"1. c #EAD0A5",
"2. c #EBD4AB",
"3. c #F2D4AE",
"4. c #E1CDBC",
"5. c #ECD7B1",
"6. c #ECD8B2",
"7. c #E4D2BB",
"8. c #EBD5BB",
"9. c #EFDDBC",
"0. c #F3D6B3",
"q. c #F2DBB7",
"w. c #F5DDBC",
"e. c #F5E1BF",
"r. c #CBC6C2",
"t. c #CEC8C5",
"y. c #D1CBC6",
"u. c #DECEC3",
"i. c #D1CCC8",
"p. c #D7D1CC",
"a. c #DBD3CD",
"s. c #DFD8CF",
"d. c #DDD6D2",
"f. c #DDD9D6",
"g. c #E1CEC1",
"h. c #EAD5C2",
"j. c #ECDAC3",
"k. c #E3D9CE",
"l. c #ECDECC",
"z. c #E4D5C5",
"x. c #F6DFC1",
"c. c #E0D7D2",
"v. c #E1D8D2",
"b. c #EADED5",
"n. c #E8DFD8",
"m. c #EFE0CC",
"M. c #F6E2C3",
"N. c #F6E4CA",
"B. c #F9E6CD",
"V. c #F6E9CD",
"C. c #F9E6C8",
"Z. c #EEE1D6",
"A. c #EDE2DA",
"S. c #F0E2D1",
"D. c #F7EAD0",
"F. c #FBEBD4",
"G. c #F4E6DA",
"H. c #F5EADC",
"J. c #F8EADB",
"K. c #F8E7D4",
"L. c #FDF1DC",
"P. c #EAE5E1",
"I. c #EEE8E4",
"U. c #F3EBE5",
"Y. c #FAEFE0",
"T. c #F3EBE6",
"R. c #FDF4E4",
"E. c #FDF6EA",
"W. c #FEF9EE",
"Q. c #FFFAEF",
"!. c #FEFAEF",
"~. c #FEF8ED",
"^. c #FEFAED",
"/. c #F6F1E8",
"(. c #FFFAF1",
"). c #FFFBF3",
"_. c #FFFBF2",
"`. c #FFFBF4",
"'. c #FEFBF4",
"]. c #FFFCF4",
"[. c #FFFCF7",
"{. c #FEFCF4",
"}. c #FFFFF9",
"|. c #FFFFFF",
" X c #FFFFFD",
".X c #FFFFFD",
"XX c #F6F5F5",
/* pixels */
"                                                                                                                                ",
"                                                                                                                                ",
"                                    r y r r r r r r r r r r r 2 r r r r r r r r r r r 2 r r                                     ",
"                                    x m m m m m m m m m m m m m m m m m m m m m m m m m m x                                     ",
"                        r r r 2 3 k @.v.v.f.v.v.v.v.d.c.c.v.d.c.c.c.v.d.v.d.c.v.d.v.c.v.v.@.v 3 2 r 2 y                         ",
"                        x m m v v R Z.}.{.E.E.^.~.~.~.~.~.~.~.~.~.~.~.~.~.~.~.~.~.~.~.).}.b.R x v m m x                         ",
"                & = < k *.v.v.d.c.b.J.F.M.9.9.9.9.9.9.9.9.9.9.9.9.9.9.9.9.9.9.9.9.9.w.M.F.J.b.d.d.v.v.@.x < = &                 ",
"                0 i l R A.}.).~.E.R.D.w.1.%.%.;.;.;.;.;.;.;.;.;.;.;.;.;.;.;.;.;.;.%.;.2.q.B.R.^.~.).}.A.R l i 0                 ",
"            $ w W p.d.b.J.F.M.w.w.6.6.2.;.;.%.%.;.;.;.;.;.%.%.%.;.;.;.;.;.;.;.;.;.;.;.;.2.2.9.9.w.M.F.J.b.d.d.T 9 $             ",
"            9 c k.}.'.R.B.q.2.;.%.;.1.2.5.6.6.6.6.6.6.6.6.6.6.5.5.5.6.6.5.5.5.5.6.6.6.5.2.1.%.%.%.2.q.D.R.[.}.k.c 9             ",
"        $ 9 W k.J.F.M.q.2.2.;.;.%.1.0.q.N.F.V.V.V.D.V.D.V.F.D.D.D.V.D.D.D.D.D.V.D.V.D.C.q.0.1.;.%.;.2.2.6.N.F.F.k.E 9 $         ",
"        w c s.!.F.q.2.;.1.2.2.2.6.q.M.B.L.E.E.R.R.E.R.R.R.E.R.E.E.R.E.R.R.E.R.E.R.R.E.L.F.M.q.2.6.2.2.1.;.1.e.F.{.k.c 0         ",
"    y x Q s.H.F.q.1.1.1.0.q.M.C.V.F.R.E.^.^.^.^.!.!.!.!.^.^.).^.^.!.^.^.).^.^.).!.!.^.^.E.R.F.V.C.M.w.5.1.1.1.e.F.H.k...k 2     ",
"    3 j a.{.L.C.2.1.1.3.e.C.F.L.R.E.^.[.'.).{.).{.{.{.{.).).).).{.{.).).).'.).).{.{.).).'.^.E.R.L.D.C.e.3.,.;.2.e.L.}.v.k 3     ",
"    = i &.L.F.M.2.1.3.e.B.L.E.^.^.).).'.'.'.).).).).!.{.).).).).).).).).).).).).{.{.).).'.).).^.^.E.L.B.w.3.1.2.q.F.}.p.i =     ",
"    @ 2 &.L.F.M.2.2.q.C.L.E.).{.'.).).).).).).).).).).{.).).).).).).).).).).).).{.{.).).).).).).{.!.E.L.C.e.1.1.q.F.[.y.e #     ",
"    + 8 *.{.L.M.2.2.x.F.R.{.).).).).).).).).).).).).).).).).).).).).).).).).).).).).).).).).).).).).^.E.F.e.2.2.e.L.}.r.8 +     ",
"    o 5 r.|.E.V.5.5.N.R.^.{.).).).).).).).).).).).).).).).).).).).).).).).).).).).).).).).).).).).).).^.R.N.2.6.V.^.|.t.4 o     ",
"    o 5 r.|.}.H.6.6.J.^.).).).).).).).).).).).).).).).).).).).).).).).).).).).).).).).).).).).).).).).).(.J.6.6.J.|.|.*.5 o     ",
"    o 1 +.[.|.E.w.6.R.'.{.).).).).).).).).).).).).).).).).).).).).).).).).).).).).).).).).).).).).).).{.}.Y.q.w.E.|.[.+.1 o     ",
"    o ; U D.{.^.M.M.R.'.'.).).).).).).).).).).).).).).).).).).).).).).).).).).).).).).).).).).).).).).).'.R.x.M.E.{.D.U ; o     ",
"    o - b &./.[.J.K.R.).).).).).).).).).).).).).).).).).).).).).).).).).).).).).).).).).).).).).).).).).^.R.F.J.[.R.&.b - o     ",
"    + % 2 P A.|.[.~.E.E.^.'.'.).).).).).).).).).).).).).).).).).).).).).).).).).).).).).).).).{.).'.'.).E.E.E.'.|.A.P 9 % +     ",
"    o * e I -.I.[.}.^.E.~.^.^.~.^.^.).).).).).).).).).).).).).).).).).).).).).).).).).).).).^.^.^.^.^.~.E.^.|.[.I.-.R e * +     ",
"    o ; E u.^ ` I.|.|.'.E.R.R.R.R.E.^.'.{.).).).).'.'.'.{.{.).).).).{.{.).).).).).).).'.'.).E.L.R.L.R.E.'.|.|.U.` ^ g.E > o     ",
"    5 e ..u._ ^ u.b.G.J.R.E.E.E.E.E.~.^.^.^.^.^.^.^.^.^.^.^.^.^.^.^.^.^.^.^.^.^.^.^.^.^.^.E.E.E.E.E.E.E.J.G.Z.-.^ _ a.Q 6 X     ",
"% e Q Q L I u.g._ D ] ,.Y.|.}.}.}.[.E.R.L.R.R.E.R.L.R.E.R.R.R.R.E.L.R.R.R.L.R.R.R.R.R.R.R.E.).}.}.}.|.Y.,.] D _ u.u.I k         ",
"# e d.I.N M n.T.o.S H #.x.J.J.J.J.J.R.E.E.E.E.E.E.E.E.E.R.E.E.E.E.E.E.E.E.E.E.E.R.E.E.E.E.E.J.J.J.J.J.x.#.H S ' /.f.f ,         ",
"O 6 i.H.( ( G..XI.b.x.0.#.| | | | :.Y.|.|.}.}.[.[.}.}.}.}.}.}.|.}.}.}.}.}.}.}.}.[.|.}.|.|.Y.:.{ | | | #.0.x.b.U.|.i.e O         ",
"o 5 t.E.3.$.8.U.[.|.[.F.$.[ [ [ K #.x.J.J.J.J.G.J.J.J.J.G.J.J.J.J.J.G.J.J.J.J.J.J.J.J.J.J.x.#.K K [ K $.F.[.|.|.T.W ; .         ",
"o 5 r.|.E.h._ ` U.|.|.~.B.w.w.M.x.0.#.| | | | | | | | | | | | | | | | | | | | | | | | | | #.0.M.M.w.w.B.~.|.|.T.O.p * .         ",
"o 5 Q I..XA._ ^ -.b.G.J.E.^.^.^.^.F.$.K [ [ [ [ K [ [ [ [ [ [ [ [ [ [ [ [ [ [ [ [ [ [ [ [ $.F.^.^.^.^.E.J.G.G.=.n a q 4         ",
"    j T P.'.l.>.^ D ) <.Y.|.|.|.|.).B.w.M.w.x.w.x.w.x.w.x.w.M.w.x.x.x.x.w.x.x.x.w.w.x.e.w.B.^.|.|.|.|.J.<.) ~ n a j ..W w &     ",
"    , h p.|.[.l./ S H #.h.b.G.J.J.J.E.^.^.^.^.^.^.^.^.^.^.^.^.^.^.~.E.E.^.^.^.^.^.^.^.^.^.E.J.J.J.G.G.j.$.) ~ n u M n.p.e #     ",
"    O e y.|.|./.l.8.B.8._ D ) | { :.Y.|.|.|.|.|.|.|.|.|.|.|.|.|.|.}.|.|.}.|.|.}.|.|.|.|.|.Y.,.| | ) D _ h.Y.G.=.n C A.i.6 O     ",
"    X ; X.E.}.|.[.^.[.S._ S H { { $.h.b.b.Z.J.J.J.J.K.J.J.J.J.J.J.J.J.J.J.J.J.J.J.G.Z.b.n.h. .[ [ H F o.I..XT.g./ o.T.t.5 X     ",
"    o - A 0.E.|.|.}.^.J.j.9.w.M.B.8._ F F G ] | | | | | | | | | | | | | | | | | | } ~ C F / >.M.x.x.S.I..XU.' / 4.T.|.r.4 .     ",
"    O = d J 4.Z.G.J.R.^.^.^.~.^.'.Z._ V V S H [ [ [ [ [ [ [ [ [ [ [ [ [ [ [ [ [ [ H S V V ` S.^.^.E.Y.J.Z.-.^ _ U..XI...e 5     ",
"        a s n ~ ) <.L.|.|.}.|.[.^.F.j.8.7.8.w.x.x.w.e.x.w.x.x.w.M.x.w.x.x.x.x.x.w.w.8.h.l.I.XX|.|.Y.<.] D ^ &.S.XXA.T L +.E e * ",
"        < y n ~ ] $.h.Z.G.J.J.J.R.E.^.^.^.^.^.^.^.^.^.^.^.^.^.^.^.^.^.^.^.^.^.^.^.^.^.E.Y.J.J.J.J.x.:.( S / l.'.|.c.v v n.a.e # ",
"        # 8 Q U.J.h._ D ) | | ,.Y.|.|.|.|.|.|.|.|.|.|.}.|.|.|.|.|.}.|.}.|.|.|.}.|.|.|.Y.<.| | | { $.x.N.8.l./..X|.b.N C A.i.6 + ",
"        . > W /.|.I.o.D ( [ K #.x.J.J.J.J.K.J.G.J.J.J.J.K.J.J.H.J.J.J.J.J.J.J.J.J.J.J.x.$.{ [ [ [ $.J.{.).).|.'.U.-.^ o.T.i.5 X ",
"        . & j O./..XT.b.x.w.x.0.#.| | | | | | | | | | | | | | | | | | | | | | | | | | $.w.B.M.w.w.C.F.^.[.|.|.U.` ^ g.T.|.t.5 o ",
"        5 q u n @.G.J.Y.E.).^.J.:.| [ [ [ [ [ K [ [ [ [ [ [ [ [ [ [ [ [ [ [ [ [ [ [ [ $.J.).).E.^.^.^.E.J.G.S.-.~ _ U..XI.Q 5 X ",
"    & e E ..j u n D ] <.Y.|.|.'.R.K.N.w.w.x.x.x.w.M.w.x.x.w.M.w.x.x.w.x.x.x.w.x.x.w.w.C.J.^.}.|.|.|.|.J.,.] D ^ &.S.'.P.T j     ",
"    # e i.P.Z s n ~ ] $.h.b.G.J.J.J.E.~.^.^.^.^.E.^.^.^.^.^.^.^.^.~.~.^.^.^.^.E.^.^.^.E.E.E.J.J.J.J.J.M.$.( S / N.[.|.a.h ,     ",
"    O 6 i.Y.) J 4.G.Y.h._ ~ ] | | <.Y.|.|.|.|.}.}.|.|.}.|.|.|.|.|.}.|.}.|.}.|.|.|.|.|.|.}.Y.:.| | | | $.x.N.8.l./.|.|.i.e O     ",
"    X 5 r.~.<. .g.P..XT.o.S ( [ [ #.x.J.J.J.J.J.J.G.J.J.J.J.J.J.J.G.J.J.J.J.J.J.J.J.J.J.J.x.$.{ [ [ [ $.F.{.!.).|..XT.W > o     ",
"    o 5 t.|.~.4.I R A.|.T.b.x.M.w.0.$.| | | | | | | | | | | | | | | | | | | | | | | | | | $.w.B.x.x.w.C.J.^.}.|.|.T.o.p - o     ",
"    o 5 Q I.|.n.I B *.v.b.H.E.^.).F.,.{ [ K [ [ [ [ [ [ [ [ [ [ [ [ [ [ [ [ [ [ [ [ [ [ K $.J.!.).^.^.^.~.Y.A.Z.Z.=.N t * o     ",
"        l T A.XXk.X.B b Z ` G.|.|.XXY.K.M.x.w.x.w.x.M.x.w.x.x.x.x.x.w.x.M.x.w.x.x.w.w.x.e.C.L.^.'.|.|.|.|.G.` C F N p t         ",
"        , f a.|.[.j.U j N _ u.Z.H.J.J.Y.E.^.^.^.^.^.^.^.^.^.^.^.^.^.^.^.^.^.^.^.^.^.^.E.^.^.E.E.J.J.b.b.n.g._ C F n 9 <         ",
"        @ 7 i.|.|./.z.7.h.4./ G ) | | <.Y.|.|.|.|.|.|.}.|.|.|.}.|.|.}.|.|.|.|.}.|.|.}.|.}.|.|.L.,.] G C C _ -.G.H...6 @         ",
"        X : Y d.XX|.{.!.[.Z._ S H { { $.x.J.J.J.J.J.J.J.G.J.J.J.J.J.J.J.J.J.J.J.J.J.J.G.Z.b.v.4. .H S V C o.T..Xv.Y : X         ",
"            ; z d.|.|.[.!.F.j.8.w.M.B.w.$.| | | | | | | | | | | | | | | | | | | | | | ] G Z v B >.e.9.z.l.T.|.f.z :             ",
"            . > Y i.p.A.R.^.^.!.^.^.).J.$.[ K [ [ [ [ [ K [ [ [ [ [ [ K [ [ [ [ [ { [ H G V v R k.{.{.R.A.d.i.Y > .             ",
"                > 7 f T A.|.|.|.|.}.E.L.C.w.e.M.w.e.x.M.w.M.M.w.x.x.e.x.x.e.e.x.x.e.x.w.8.z.k.P.'.|.|.I.T f 7 :                 ",
"                . @ , k Q r.r.t.a.b./.^.^.^.!.!.!.!.^.^.!.^.^.^.!.^.!.^.^.!.!.^.^.^.^.!.!.R.A.a.t.r.r.Q k < O X                 ",
"                        5 4 4 7 f T A.|.|.|.|.|.|.|.|.|.|.|.|.|.|.|.|.|.|.|.|.|.|.|.|.|.|.A.T h 7 4 4 5                         ",
"                        o o X @ , k Q r.r.r.r.*.r.r.*.r.r.r.r.r.r.*.r.r.r.*.r.r.r.r.r.r.r.Q x , @ X X o                         ",
"                                    5 5 5 5 5 5 5 5 5 5 5 5 5 5 5 5 5 5 5 5 5 5 5 5 5 5 5 5                                     ",
"                                    o o o o o o o o o o o o o o o o o o o o o o o o o o o o                                     ",
"                                                                                                                                ",
"                                                                                                                                "
};
