/* XPM */
static char *result[] = {
/* columns rows colors chars-per-pixel */
"32 32 27 1 ",
"  c #7E7E7E",
". c #D94848",
"X c #D94A4A",
"o c #D75151",
"O c #E34F4F",
"+ c #E44E4E",
"@ c #EB4E4E",
"# c #E05050",
"$ c #EA5050",
"% c #EB5050",
"& c #EA5959",
"* c #D66464",
"= c #E87171",
"- c gray54",
"; c #D0AFAF",
": c #C6C6C6",
"> c gray80",
", c #CECECE",
"< c #CED0D0",
"1 c #D8D8D8",
"2 c #DFDFDF",
"3 c #E3C1C1",
"4 c #E2D5D5",
"5 c #E1E1E1",
"6 c #E1E3E3",
"7 c #EFE6E6",
"8 c None",
/* pixels */
"88888888888888888888888888888888",
"88888888888888874888888888888888",
"888888888888888=*O%8888888888888",
"888888888888888@.+$$$88888888888",
"888888888888888$X+$$$$$888888888",
"888888888888888$X+$$$$$$$8888888",
"888888888888888$X+$$$$$$$$$88888",
"888888888888888$X+$$$$$$$$$88888",
"888888888888888$X+$$$$$$88888888",
"888888888888888$X+$$$88888888888",
"888888888888888&o#88888888888888",
"8888888888888883;888888888888888",
"8888888888888886<888888888888888",
"8888888888888885,888888888888888",
"8888888888888885,888888888888888",
"8888888888888885,888888888888888",
"8888888888888885,888888888888888",
"8888888888888885,888888888888888",
"8888888888888885,888888888888888",
"8888888888888885,888888888888888",
"8888888888888885,888888888888888",
"8888888888888885,888888888888888",
"8888888888888882>888888888888888",
"8888888888888881:888888888888888",
"888888888888888- 888888888888888",
"88888888888888888888888888888888",
"88888888888888888888888888888888",
"88888888888888888888888888888888",
"88888888888888888888888888888888",
"88888888888888888888888888888888",
"88888888888888888888888888888888",
"88888888888888888888888888888888"
};
