/* XPM */
static char *result[] = {
/* columns rows colors chars-per-pixel */
"32 32 48 1 ",
"  c #1E0000",
". c #360006",
"X c #301807",
"o c #132A00",
"O c #063C05",
"+ c #1F3C05",
"@ c #4E0007",
"# c #540000",
"$ c #542F12",
"% c #54331A",
"& c #4E1C2D",
"* c #44600E",
"= c #6C4424",
"- c #785E3B",
"; c #657E36",
": c #960000",
"> c #A8200A",
", c #BA2B14",
"< c #8A1D27",
"1 c #C03A35",
"2 c #8A6431",
"3 c #E44101",
"4 c #F0793D",
"5 c #845F44",
"6 c #9D624B",
"7 c #907247",
"8 c #D24F4A",
"9 c #D86A66",
"0 c #DA7F68",
"q c #648426",
"w c #B4843F",
"e c #AE8A5A",
"r c #89A84E",
"t c #FC9B6A",
"y c #EE8472",
"u c #EA817D",
"i c #FF9779",
"p c #CCA777",
"a c #B5C060",
"s c #FFB39D",
"d c #E7CFA3",
"f c #F9DDBB",
"g c #FFE8CD",
"h c #FAECD0",
"j c #FCF3DF",
"k c #FFFBF3",
"l c white",
"z c None",
/* pixels */
"zzzzzzzzzzzzzzzzzzzzzzzzzzzzzzzz",
"zzzzzzzzzzzzzzzzzzzzzzzzzzzzzzzz",
"zzzzzzzzzzzzzzzzzzzzzzzzzzzzzzzz",
"zzzzzzzzzzzzzzzzzzzzzzzzzzzzzzzz",
"zzzzzzzzzzz5555555555zzzzzzzzzzz",
"zzzzzzzz55edllllllllde55zzzzzzzz",
"zzzzzz%2dllll     llllld5%zzzzzz",
"zzzzz%dllll $=---=$ glllld%zzzzz",
"zzzz%dlll @$=---77=- ppdlld%zzzz",
"zzz5dlld@6isiw7=$=77= ppdlld5zzz",
"zzzelld@i9989usiw--=$ hfdpllezzz",
"zzXdldp@8989u989ui6$$@hoodpldXzz",
"zzellp@...<8989u91i6$@o;ropllezz",
"zXdll@=---$@.<89188@@poraoolldXz",
"zXll@=7-=77-$=.....pdo;roqqollXz",
"zXll@0isi6-7=--=.pdkdoa;OqrollXz",
"zXll@98990is6-=$.dkkorrO**OpllXz",
"zXllp@@@<199i.....pd+;*aqOppllXz",
"zXllphpp@@@@&=---=.or*rqOphdllXz",
"zXlldp@@=--776siy0&O;O##pkhfllXz",
"zXhll@=---6siy8998&;;#>>#hfhlhXz",
"zzXll@=6siy8999198###>t3,#dllXzz",
"zzXhl&6i899199&&&#>4>#433#klhXzz",
"zzz5ll&9919&&&pd#>3t3#3,#hll5zzz",
"zzzXhlk&&&&pdkkk:,333###hklhXzzz",
"zzzz5hklhdfjkkkkp:::#pdhlkh5zzzz",
"zzzzzXhkkklffffffffffllllhXzzzzz",
"zzzzzzX5hllllllllllllllh5Xzzzzzz",
"zzzzzzzzXX5hllllllllh5XXzzzzzzzz",
"zzzzzzzzzzzXXXXXXXXXXzzzzzzzzzzz",
"zzzzzzzzzzzzzzzzzzzzzzzzzzzzzzzz",
"zzzzzzzzzzzzzzzzzzzzzzzzzzzzzzzz"
};
