/* XPM */
static char *result[] = {
/* columns rows colors chars-per-pixel */
"32 32 84 1 ",
"  c #5E4C52",
". c #6B575D",
"X c #896F78",
"o c #91757E",
"O c #8A8385",
"+ c #A98993",
"@ c #AA8993",
"# c #AD8B96",
"$ c #B7939F",
"% c #B8949F",
"& c #BC97A2",
"* c #B899A4",
"= c #BB9AA5",
"- c #ACA8AA",
"; c #C39DA9",
": c #C29EAA",
"> c #C59EAA",
", c #CEA5B1",
"< c #C0ABB6",
"1 c #D6ACB9",
"2 c #C4B2BC",
"3 c #C4B3BD",
"4 c #DCB0BD",
"5 c #CEB6C1",
"6 c #DFBAC7",
"7 c #E2B5C3",
"8 c #E4B7C5",
"9 c #E4B8C6",
"0 c #E5B9C7",
"q c #E4BAC7",
"w c #E5BAC8",
"e c #E6BDCB",
"r c #D2C0CA",
"t c #D5C7CB",
"y c #DAC7D2",
"u c #DDC9D5",
"i c #DED0D4",
"p c #E7C0CE",
"a c #E8C4D1",
"s c #E2C9D1",
"d c #E2C9D4",
"f c #E6C8D5",
"g c #E4CCD7",
"h c #E0CCD8",
"j c #E3CFDA",
"k c #E3CFDB",
"l c #EBCBD8",
"z c #EBCFDB",
"x c #ECCCD9",
"c c #EDCEDB",
"v c #EDCFDC",
"b c #E7D5DB",
"n c #EAD0DA",
"m c #EDD0DC",
"M c #EDD0DD",
"N c #EAD7DF",
"B c #EDD4DF",
"V c #EFD4E1",
"C c #EED5E1",
"Z c #ECD7E0",
"A c #EFD6E2",
"S c #EED7E3",
"D c #EDD8E4",
"F c #F0D7E3",
"G c #F1DAE7",
"H c #F1DBE7",
"J c #F2DBE8",
"K c #F1DCE8",
"L c #F2DCE8",
"P c #F2DCE9",
"I c #F2DDE9",
"U c #F2DEE9",
"Y c #F2DEEA",
"T c #F3DEEA",
"R c gray90",
"E c #E9E0E3",
"W c #EAE0E3",
"Q c gray91",
"! c #EBE9EA",
"~ c #EBEAEA",
"^ c gray92",
"/ c #EBECEC",
"( c #ECECEC",
") c None",
/* pixels */
"))))))))))))))))))))))I)))))))))",
"))))))))III))))))))))III))))))))",
"))))))))IIII))))))))IIII))))))))",
"))))))))IIIII))))))IIIII))))))))",
"))))))))IIIII))))))IIIII))))))))",
"))))))))IIIIII))))IIIIII))))))))",
"))))))))IIIIII))))IIIIII))))))))",
"))))))))IIIIII))))IIIIII))))))))",
"))))))))IIIIII))))IIIIII))))))))",
"))))))))IIIIIIG))IIIIII)))))))))",
")))))))))IIIIUvqVIIIIII)))))))))",
")))))))))IIIIYmaLIIIIII)))))))))",
")))))))))IIIIIFAIIIIIIS)))))))))",
")))))))))IIIIIIIIIIIIHg)))))))))",
"))))))))IIIIIIIIIIIIIIDr))))))))",
"))))))))IIIIIIIIIIIIIIIy))))))))",
"))))))))IIIIIIIIIIIIIITh))))))))",
")))))))IIIIIIIIIIIIIIITk3)))))))",
")))))))IIIIIIIIIIIIIIITj2)))))))",
")))))))VLIIIIIIIIIIIIITu<)))))))",
")))))))evIIIIIIIIIIIIIK5*)))))))",
"))))))))wMIIIIIHPIIIITd=))))))))",
"))))))))90lGYJBNZCHYJf:$))))))))",
")))))))))18pxnW~!Ezc6;#)))))))))",
"))))))))).>47b/^^^s,&+ )))))))))",
")))))))))))o%i(^^(t@X)))))))))))",
")))))))))))))-Q^^RO)))))))))))))",
")))))))))))))))^()))))))))))))))",
"))))))))))))))))))))))))))))))))",
"))))))))))))))))))))))))))))))))",
"))))))))))))))))))))))))))))))))",
"))))))))))))))))))))))))))))))))"
};
