/* XPM */
static char *result[] = {
/* columns rows colors chars-per-pixel */
"32 21 125 2 ",
"   c black",
".  c gray1",
"X  c #040606",
"o  c gray4",
"O  c #0B0B0B",
"+  c gray5",
"@  c #0E0E0E",
"#  c #111111",
"$  c #151515",
"%  c gray9",
"&  c #191919",
"*  c #1B1B1B",
"=  c #1D1D1D",
"-  c #1E1E1E",
";  c gray12",
":  c #202020",
">  c #222222",
",  c #232323",
"<  c gray14",
"1  c gray15",
"2  c gray16",
"3  c #2A2A2A",
"4  c gray17",
"5  c #2C2C2C",
"6  c #313131",
"7  c #323232",
"8  c gray20",
"9  c #343434",
"0  c #353535",
"q  c gray21",
"w  c #3A3335",
"e  c gray22",
"r  c #393939",
"t  c #3C3C3C",
"y  c gray24",
"u  c #3E3E3E",
"i  c #4F3239",
"p  c gray25",
"a  c #414141",
"s  c #434343",
"d  c #444444",
"f  c gray27",
"g  c gray28",
"h  c #494949",
"j  c gray29",
"k  c #4C4C4C",
"l  c gray30",
"z  c #4C4E4D",
"x  c #4E4E4E",
"c  c #505050",
"v  c #515151",
"b  c gray32",
"n  c gray33",
"m  c gray34",
"M  c #585858",
"N  c #5A5A5A",
"B  c gray36",
"V  c #5F5F5F",
"C  c #606060",
"Z  c #626262",
"A  c #656565",
"S  c gray40",
"D  c #676767",
"F  c #686868",
"G  c DimGray",
"H  c gray42",
"J  c #6D6D6D",
"K  c gray43",
"L  c gray44",
"P  c #717171",
"I  c #727272",
"U  c #7B7677",
"Y  c #7B7B7B",
"T  c #7C7C7C",
"R  c gray49",
"E  c #7E7E7E",
"W  c gray50",
"Q  c #813F4F",
"!  c #8F5C69",
"~  c #807E7F",
"^  c #808080",
"/  c #818181",
"(  c gray51",
")  c #848484",
"_  c gray52",
"`  c #888888",
"'  c #898989",
"]  c #8D8D8D",
"[  c #8E8E8E",
"{  c gray56",
"}  c #909090",
"|  c gray57",
" . c #929292",
".. c #939393",
"X. c gray58",
"o. c #959595",
"O. c gray59",
"+. c #979797",
"@. c #989697",
"#. c gray60",
"$. c #9B9B9B",
"%. c gray61",
"&. c #9D9D9D",
"*. c #9C9E9D",
"=. c gray62",
"-. c #9F9F9F",
";. c #A89399",
":. c #A9959A",
">. c #A29A9C",
",. c #A0A0A0",
"<. c gray63",
"1. c #A2A2A2",
"2. c gray65",
"3. c #AAAAAA",
"4. c gray67",
"5. c #AEAEAE",
"6. c #B4B4B4",
"7. c #B7B7B7",
"8. c gray72",
"9. c gray76",
"0. c #D7D7D7",
"q. c gray91",
"w. c #EEEEEE",
"e. c white",
"r. c None",
/* pixels */
"r.r.r.r.r.r.r.r.r.r.r.r.r.r.r.r.r.r.r.r.r.r.r.r.r.r.r.r.r.r.r.r.",
"r.r.r.r.r.r.r.r.r.r.r.r.r.r.r.r.r.r.r.r.r.r.r.r.r.r.r.r.r.r.r.r.",
"r.r.r.r.r.r.r.r.r.r.r.r.r.r.r.r.r.r.r.r.r.r.r.r.r.r.r.r.r.r.r.r.",
"r.r.r.r.r.r.r.r.r.r.r.r.r.r.r.r.r.% > - - ; # r.r.r.r.r.r.r.r.r.",
"r.r.r.r.r.r.r.r.r.r.r.r.r.r.r.r.  6 D [ ] { I % r.r.r.r.r.r.r.r.",
"r.r.r.r.r.r.r.r.r.r.q I L L P F : $ 1 j k j J / % r.r.r.r.r.r.r.",
"r.r.r.r.r.r.r.r.r.r.> _ -.<.,.-.O.o.X.1.4.3.5.8.{ 7 r.r.r.r.r.r.",
"r.r.r.r.r.r.r.r.r.r.r.- 5 Z &.<.<.<.<.,.-.%.%.&.7.V r.r.r.r.r.r.",
"r.r.r.r.r.r.r.r.r.r.r.r.r.t W n m M M v J =.&.O.B h O r.r.r.r.r.",
"r.r.r.r.r.r.r.r.r.r.r.r.h X.| r 5.9.Z   9 =.=.' b a   r.r.r.r.r.",
"r.r.r.r.r.r.3 H d r.r.h ..=.=.c q.w.< . q =.=.` H N   r.r.r.r.r.",
"r.r.r.r.r., ` 6.)   x ..=.&.&.z q.e.0.$.m =.-.{ F l   r.r.r.r.r.",
"r.r.r.r.4 ^ -.2.R u O.=.&.*.:.! U E ( s ` +.T E ) w Q r.r.r.r.r.",
"r.r.r.r.y 1.,.E C O.=.&.&.&.>.;.~ T R ) Y a m C o.@.i r.r.r.r.r.",
"r.r.r.r.3 h g M o.=.&.&.&.&.&.*.-.O.K +.$.#.$.%.%.Z X r.r.r.r.r.",
"r.r.r.r.r.r.r.S <.&.&.&.&.&.&.&.&.%.K 8  .,.,.%.A 6 = r.r.r.r.r.",
"r.r.r.r.r.r.+ G 1.<.%.| } } } } } } | q e f p p A ..V r.r.r.r.r.",
"r.r.r.r.r.@ C #.] K x & - - - - - - - o r.r.    - - * r.r.r.r.r.",
"r.r.r.r.r.r.2 s 0 r.r.r.r.r.r.r.r.r.r.r.r.r.r.r.r.r.r.r.r.r.r.r.",
"r.r.r.r.r.r.r.r.r.r.r.r.r.r.r.r.r.r.r.r.r.r.r.r.r.r.r.r.r.r.r.r.",
"r.r.r.r.r.r.r.r.r.r.r.r.r.r.r.r.r.r.r.r.r.r.r.r.r.r.r.r.r.r.r.r."
};
