/* XPM */
static char *result[] = {
/* columns rows colors chars-per-pixel */
"32 32 134 2 ",
"   c #322E30",
".  c #332F31",
"X  c #5D4B51",
"o  c #68555B",
"O  c #826971",
"+  c #876E76",
"@  c #8D737C",
"#  c #91757E",
"$  c #977A83",
"%  c #9A7D86",
"&  c #DE7C96",
"*  c #9E8089",
"=  c #9F808A",
"-  c #9F818A",
";  c #9D8F97",
":  c #9F9199",
">  c #A3838D",
",  c #B4909B",
"<  c #B6929D",
"1  c #B6B4B5",
"2  c #C68698",
"3  c #E0829C",
"4  c #C29BA7",
"5  c #C39DA9",
"6  c #C59EAA",
"7  c #C7A0AC",
"8  c #C1A4AD",
"9  c #CCA2AF",
"0  c #CCA3AF",
"q  c #CDA4B1",
"w  c #CEA9B5",
"e  c #D2A8B5",
"r  c #D3A9B6",
"t  c #D5ABB8",
"y  c #D6ABB9",
"u  c #D6ACB9",
"i  c #C5B4BE",
"p  c #C5B5BE",
"a  c #D8B2BE",
"s  c #DAB3C0",
"d  c #D1BFC9",
"f  c #E3B5C3",
"g  c #E3B6C4",
"h  c #E3B7C5",
"j  c #EAB0C3",
"k  c #EBB2C5",
"l  c #E4B8C6",
"z  c #E5BAC8",
"x  c #E5BBC8",
"c  c #E3BDCA",
"v  c #E6BDCA",
"b  c #E6BECC",
"n  c #E6BFCC",
"m  c #E7BFCD",
"M  c #EBBACB",
"N  c #ECBCCD",
"B  c #ECBECE",
"V  c #D2C0CA",
"C  c #D3C1CB",
"Z  c #D8C5D0",
"A  c #DAC7D2",
"S  c #E7C0CE",
"D  c #E6C2CF",
"F  c #E8C2CF",
"G  c #E8C3D0",
"H  c #EDC3D3",
"J  c #E8C4D1",
"K  c #E9C6D3",
"L  c #EAC7D4",
"P  c #EDC4D4",
"I  c #EDC5D4",
"U  c #E0CDD5",
"Y  c #EBC8D5",
"T  c #EAC9D6",
"R  c #EBC9D6",
"E  c #EBCAD7",
"W  c #EEC8D7",
"Q  c #E1CDD8",
"!  c #E2CEDA",
"~  c #EACBD8",
"^  c #EBCBD8",
"/  c #ECCBD8",
"(  c #EFCBDA",
")  c #ECCCD9",
"_  c #ECCDDA",
"`  c #EDCDDA",
"'  c #ECCEDB",
"]  c #EDCFDC",
"[  c #E5D1DC",
"{  c #E5D1DD",
"}  c #E6D2DD",
"|  c #E7D3DF",
" . c #EDD0DD",
".. c #EDD1DD",
"X. c #EED2DF",
"o. c #E1DDDF",
"O. c #F0D1DF",
"+. c #EAD6E1",
"@. c #EFD4E1",
"#. c #EFD5E1",
"$. c #EED5E2",
"%. c #EFD6E3",
"&. c #E6D9E0",
"*. c #EDD8E4",
"=. c #EFDBE7",
"-. c #F1D2E0",
";. c #F1D5E2",
":. c #F1D6E3",
">. c #F0D7E3",
",. c #F0D8E4",
"<. c #F1D8E5",
"1. c #F0D9E5",
"2. c #F1D9E5",
"3. c #F2D9E6",
"4. c #F1DAE6",
"5. c #F1DAE7",
"6. c #F0DBE7",
"7. c #F1DBE7",
"8. c #F0DCE8",
"9. c #F0DDE8",
"0. c #F2DCE8",
"q. c #F2DDE9",
"w. c #F2DEE9",
"e. c #F3DDEA",
"r. c #F2DEEA",
"t. c #F3DEEA",
"y. c #F4DFEB",
"u. c #E5E2E3",
"i. c #EBE7E9",
"p. c #EAEAEA",
"a. c gray92",
"s. c #EBECEC",
"d. c #F5E0EC",
"f. c None",
/* pixels */
"f.f.f.f.f.f.f.f.f.f.q.q.f.f.f.f.f.f.f.f.f.f.f.f.f.f.f.f.f.f.f.f.",
"f.f.f.f.f.f.f.f.f.f.0.q.q.q.f.f.f.f.f.f.f.f.f.f.f.f.f.f.f.f.f.f.",
"f.f.f.f.f.f.f.f.f.f.#.^ ,.q.q.q.f.f.f.f.f.f.f.f.f.f.f.f.f.f.f.f.",
"f.f.f.f.f.f.f.f.f.f.f.n v X.q.q.q.f.f.f.f.f.f.f.f.f.f.f.f.f.f.f.",
"f.f.f.f.f.f.f.f.f.f.f.K f x @.q.q.q.f.f.f.f.f.f.f.f.f.f.f.f.f.f.",
"f.f.f.f.f.f.f.f.f.f.f.' l f F 7.q.q.f.f.f.f.f.f.f.f.f.f.f.f.f.f.",
"f.f.f.f.f.f.f.f.f.f.f.f.m f h  .w.q.q.f.f.f.f.f.f.f.f.f.f.f.f.f.",
"f.f.f.f.f.f.f.f.f.f.f.f.E h f G 0.q.q.f.f.f.f.f.f.f.f.f.f.f.f.f.",
"f.f.f.f.f.f.f.f.f.f.f.f.f.b f z >.q.q.f.f.f.f.f.f.f.f.f.f.f.f.f.",
"f.f.f.f.f.f.f.f.f.f.f.f.f.T h h ..r.q.f.f.f.f.f.f.f.f.f.f.f.f.f.",
"f.f.f.f.f.f.f.f.f.f.f.f.f.1.S g ] r.q.q.f.f.f.f.f.f.f.f.f.f.f.f.",
"f.f.f.f.f.f.f.f.f.f.f.f.q.q.%.' 4.q.q.q.q.f.f.f.f.f.f.f.f.f.f.f.",
"f.f.f.f.f.f.f.f.f.f.q.q.q.q.q.r.q.q.q.q.q.6.f.f.f.f.f.f.f.f.f.f.",
"f.f.f.f.f.f.f.f.f.q.q.q.q.q.q.q.q.q.q.q.q.q.{ f.f.f.f.f.f.f.f.f.",
"f.f.f.f.f.f.f.f.f.q.q.q.q.q.q.q.q.q.q.q.q.q.*.V f.f.f.f.f.f.f.f.",
"f.f.f.f.f.f.f.f.q.q.q.q.q.q.q.q.q.q.q.q.q.q.q.A f.f.f.f.f.f.f.f.",
"f.f.f.f.f.f.f.f.q.q.e.y.q.q.q.q.q.q.q.q.q.q.t.Q f.f.f.f.f.f.f.f.",
"f.f.f.f.f.f.f.q.q.q.+.Z 8.q.q.q.q.q.q.q.q.q.t.[ i f.f.f.f.f.f.f.",
"f.f.f.f.f.f.f.q.q.d.: . C y.q.q.q.q.q.q.q.q.t.} i f.f.f.f.f.f.f.",
"f.f.f.f.f.f.f.q.q.d.;   C y.q.q.q.q.q.q.q.q.t.! p f.f.f.f.f.f.f.",
"f.f.f.f.f.f.f.q.q.t.| d =.q.q.q.q.q.q.q.q.q.q.&.o.a.a.f.f.f.f.f.",
"f.f.f.f.f.f.f.q.q.q.3.-.( <.q.q.q.q.q.q.q.q.9.i.s.a.a.a.f.f.f.f.",
"f.f.f.f.f.k :.r.4.N j M I O.q.q.q.q.q.q.r.$.U p.a.a.a.a.f.f.f.f.",
"f.f.f.f.& 3 B 7.5.O.W H P ;.r.r.r.r.q.2.~ w 8 u.s.a.a.a.f.f.f.f.",
"f.f.f.f.f.2 9 a c J L R Y / ) ` _ E D s 6 , + 1 a.a.a.f.f.f.f.f.",
"f.f.f.f.f.f.f.f.5 7 q e t y y u r 0 4 < > o f.f.f.f.f.f.f.f.f.f.",
"f.f.f.f.f.f.f.f.f.f.@ # % * - - = $ O X f.f.f.f.f.f.f.f.f.f.f.f.",
"f.f.f.f.f.f.f.f.f.f.f.f.f.f.f.f.f.f.f.f.f.f.f.f.f.f.f.f.f.f.f.f.",
"f.f.f.f.f.f.f.f.f.f.f.f.f.f.f.f.f.f.f.f.f.f.f.f.f.f.f.f.f.f.f.f.",
"f.f.f.f.f.f.f.f.f.f.f.f.f.f.f.f.f.f.f.f.f.f.f.f.f.f.f.f.f.f.f.f.",
"f.f.f.f.f.f.f.f.f.f.f.f.f.f.f.f.f.f.f.f.f.f.f.f.f.f.f.f.f.f.f.f.",
"f.f.f.f.f.f.f.f.f.f.f.f.f.f.f.f.f.f.f.f.f.f.f.f.f.f.f.f.f.f.f.f."
};
