/* XPM */
static char *result[] = {
/* columns rows colors chars-per-pixel */
"32 32 140 2 ",
"   c #3A3538",
".  c #3C363A",
"X  c #3C373A",
"o  c #55464B",
"O  c #56464B",
"+  c #604F55",
"@  c #665359",
"#  c #7E656D",
"$  c #80676F",
"%  c #816870",
"&  c #93767F",
"*  c #967A83",
"=  c #987B84",
"-  c #8F8289",
";  c #91858C",
":  c #92858C",
">  c #9F818A",
",  c #A0818B",
"<  c #AE8C97",
"1  c #B48F9A",
"2  c #B68E9A",
"3  c #B5919C",
"4  c #B7939E",
"5  c #BA9DA8",
"6  c #BFA0AB",
"7  c #E1849E",
"8  c #E1859E",
"9  c #C19AA6",
"0  c #C39CA8",
"q  c #CF99A9",
"w  c #D598AA",
"e  c #C8A1AD",
"r  c #CBA3AF",
"t  c #CCA3B1",
"y  c #CFA7B4",
"u  c #C2AFB9",
"i  c #D2A8B5",
"p  c #D3AAB6",
"a  c #D4A8B6",
"s  c #D6ABB8",
"d  c #DEAEBC",
"f  c #C4B3BD",
"g  c #D7B0BC",
"h  c #E4A9BB",
"j  c #D3BDC8",
"k  c #E3AFC0",
"l  c #E6B1C2",
"z  c #E1B4C2",
"x  c #E3B5C3",
"c  c #E3B5C4",
"v  c #E3B6C4",
"b  c #E3B7C5",
"n  c #E4B7C5",
"m  c #E6B6C6",
"M  c #EAB0C3",
"N  c #E4B8C6",
"B  c #E4B9C7",
"V  c #E5BAC8",
"C  c #E5BBC8",
"Z  c #E6BDCB",
"A  c #E6BECB",
"S  c #E5BFCC",
"D  c #E6BECC",
"F  c #ECBACC",
"G  c #ECBBCC",
"H  c #ECBBCD",
"J  c #EABECE",
"K  c #EBBECE",
"L  c #EBBFCF",
"P  c #D3C1CB",
"I  c #D4C1CC",
"U  c #D8C5D0",
"Y  c #DAC7D2",
"T  c #DECBD5",
"R  c #DFCBD6",
"E  c #DFCCD7",
"W  c #E6C0CD",
"Q  c #E7C0CD",
"!  c #E6C0CE",
"~  c #E7C0CE",
"^  c #E7C1CE",
"/  c #E8C1CF",
"(  c #E8C2CF",
")  c #E8C2D0",
"_  c #E8C3D0",
"`  c #ECC0D0",
"'  c #E8C4D1",
"]  c #E9C5D3",
"[  c #E9C6D3",
"{  c #E9C7D4",
"}  c #EAC7D4",
"|  c #EEC4D4",
" . c #EDC7D6",
".. c #EDC7D7",
"X. c #EAC8D5",
"o. c #EAC9D6",
"O. c #EBCAD7",
"+. c #E2CFDA",
"@. c #E3CFDB",
"#. c #EBCBD8",
"$. c #EBCCD9",
"%. c #E8CDDA",
"&. c #ECCCD9",
"*. c #EFCCDB",
"=. c #ECCEDA",
"-. c #ECCEDB",
";. c #EDCFDB",
":. c #E3D0DB",
">. c #E4D0DC",
",. c #E5D1DC",
"<. c #EDD0DC",
"1. c #EFD0DE",
"2. c #EED1DE",
"3. c #EED2DE",
"4. c #EFD2DF",
"5. c #E8D4DF",
"6. c #F0D0DE",
"7. c #EFD4E1",
"8. c #ECD7E3",
"9. c #EFD6E3",
"0. c #F0D3E1",
"q. c #F0D7E3",
"w. c #F0D8E4",
"e. c #F1D8E5",
"r. c #F0D9E5",
"t. c #F0D9E6",
"y. c #F1D9E6",
"u. c #F1DAE6",
"i. c #F1DBE7",
"p. c #F1DCE8",
"a. c #F1DDE8",
"s. c #F2DCE8",
"d. c #F2DDE9",
"f. c #F2DEE9",
"g. c #F3DDEA",
"h. c #F2DEEA",
"j. c #F3DEEA",
"k. c #F4DEEA",
"l. c #F5E0EC",
"z. c None",
/* pixels */
"z.z.z.z.z.z.z.z.z.z.z.z.z.z.z.z.z.z.z.z.z.z.d.z.z.z.z.z.z.z.z.z.",
"z.z.z.z.z.z.z.z.d.d.d.z.z.z.z.z.z.z.z.z.z.d.d.d.z.z.z.z.z.z.z.z.",
"z.z.z.z.z.z.z.z.d.w.u.h.z.z.z.z.z.z.z.z.d.y.r.d.z.z.z.z.z.z.z.z.",
"z.z.z.z.z.z.z.z.d.o.( w.d.z.z.z.z.z.z.d.9.~ &.h.z.z.z.z.z.z.z.z.",
"z.z.z.z.z.z.z.z.s.' x Q w.d.z.z.z.z.h.9.A x } d.z.z.z.z.z.z.z.z.",
"z.z.z.z.z.z.z.z.p.^ x c ] s.z.z.z.z.i.) x x ' d.z.z.z.z.z.z.z.z.",
"z.z.z.z.z.z.z.z.i.~ x v V q.z.z.z.z.7.N v x ' s.z.z.z.z.z.z.z.z.",
"z.z.z.z.z.z.z.z.s._ x v b 3.z.z.z.z.;.v v x [ d.z.z.z.z.z.z.z.z.",
"z.z.z.z.z.z.z.z.d.} x v v =.z.z.z.h.O.v v v #.h.z.z.z.z.z.z.z.z.",
"z.z.z.z.z.z.z.z.z.-.v v v O.h.z.z.d.{ x v b 3.z.z.z.z.z.z.z.z.z.",
"z.z.z.z.z.z.z.z.z.q.C v x X.d.d.d.d.' x v Z r.z.z.z.z.z.z.z.z.z.",
"z.z.z.z.z.z.z.z.z.d.X.x B 2.d.d.d.d.-.n v #.d.z.z.z.z.z.z.z.z.z.",
"z.z.z.z.z.z.z.z.z.z.r.#.2.d.d.d.d.d.s.<.$.t.z.z.z.z.z.z.z.z.z.z.",
"z.z.z.z.z.z.z.z.z.d.d.f.d.d.d.d.d.d.d.d.h.d.>.z.z.z.z.z.z.z.z.z.",
"z.z.z.z.z.z.z.z.z.d.d.d.d.d.d.d.d.d.d.d.d.d.8.z.z.z.z.z.z.z.z.z.",
"z.z.z.z.z.z.z.z.d.d.d.d.d.d.d.d.d.d.d.d.d.d.p.U z.z.z.z.z.z.z.z.",
"z.z.z.z.z.z.z.z.d.d.d.d.d.k.j.d.d.j.k.d.d.d.j.R z.z.z.z.z.z.z.z.",
"z.z.z.z.z.z.z.d.d.d.d.d.a.Y 5.g.j.5.Y a.d.d.j.+.f z.z.z.z.z.z.z.",
"z.z.z.z.z.z.z.d.d.d.d.j.E X : l.l.; X E j.d.j.@.f z.z.z.z.z.z.z.",
"z.z.z.z.z.z.z.r.d.d.d.j.R . - l.l.;   T j.d.j.E u z.z.z.z.z.z.z.",
"z.z.z.z.z.z.z.( 7.d.d.h.p.I :.j.j.,.P p.h.d.d.j 5 z.z.z.z.z.z.z.",
"z.z.z.z.z.z.z.z.D 4.*.6.e.j.j.h.h.j.k.e.6.*.%.6 z.z.z.z.z.z.z.z.",
"z.z.z.z.z.z.z.z.n m K G M F 0.| | 0.F M H J t 4 z.z.z.z.z.z.z.z.",
"z.z.z.z.z.z.z.z.z.d h l L 1. .7 8 ..1.` k q 2 z.z.z.z.z.z.z.z.z.",
"z.z.z.z.z.z.z.z.z.& a z V / ! w w W S g 0 1 # z.z.z.z.z.z.z.z.z.",
"z.z.z.z.z.z.z.z.z.z.@ < e i s p y r 9 3 , + z.z.z.z.z.z.z.z.z.z.",
"z.z.z.z.z.z.z.z.z.z.z.z.o % = , > * $ O z.z.z.z.z.z.z.z.z.z.z.z.",
"z.z.z.z.z.z.z.z.z.z.z.z.z.z.z.z.z.z.z.z.z.z.z.z.z.z.z.z.z.z.z.z.",
"z.z.z.z.z.z.z.z.z.z.z.z.z.z.z.z.z.z.z.z.z.z.z.z.z.z.z.z.z.z.z.z.",
"z.z.z.z.z.z.z.z.z.z.z.z.z.z.z.z.z.z.z.z.z.z.z.z.z.z.z.z.z.z.z.z.",
"z.z.z.z.z.z.z.z.z.z.z.z.z.z.z.z.z.z.z.z.z.z.z.z.z.z.z.z.z.z.z.z.",
"z.z.z.z.z.z.z.z.z.z.z.z.z.z.z.z.z.z.z.z.z.z.z.z.z.z.z.z.z.z.z.z."
};
