/* XPM */
static char *result[] = {
/* columns rows colors chars-per-pixel */
"32 32 119 2 ",
"   c #5D555A",
".  c #5E555A",
"X  c #61595E",
"o  c #7B646B",
"O  c #8D737B",
"+  c #8A777D",
"@  c #92767F",
"#  c #B6657B",
"$  c #947881",
"%  c #9A7D87",
"&  c #9E808A",
"*  c #9F818A",
"=  c #A5858F",
"-  c #B78593",
";  c #B5919C",
":  c #B6939E",
">  c #B8939E",
",  c #BF9CA8",
"<  c #CB8095",
"1  c #C29BA7",
"2  c #C59EAA",
"3  c #CBA2AF",
"4  c #C8A6B2",
"5  c #CCA4B1",
"6  c #D0A7B3",
"7  c #D0A7B4",
"8  c #D4AAB7",
"9  c #D6ABB8",
"0  c #D6ACB9",
"q  c #C6B4BE",
"w  c #D1B0BC",
"e  c #C7B6C0",
"r  c #C8B7C1",
"t  c #C9B7C1",
"y  c #E0B3C1",
"u  c #E3B5C3",
"i  c #E3B6C4",
"p  c #EAB2C4",
"a  c #EBB4C7",
"s  c #E3B8C5",
"d  c #E4B8C6",
"f  c #E4B9C7",
"g  c #E5BAC8",
"h  c #E5BBC8",
"j  c #E0BECB",
"k  c #E5BCCA",
"l  c #E6BDCA",
"z  c #E6BECC",
"x  c #E8BCCC",
"c  c #ECBECF",
"v  c #D7C4CF",
"b  c #D9C3CA",
"n  c #D9C6D1",
"m  c #DFCCD7",
"M  c #D4D5D5",
"N  c #E7C1CF",
"B  c #E8C2CF",
"V  c #E8C2D0",
"C  c #E8C3D0",
"Z  c #EDC3D3",
"A  c #E9C6D3",
"S  c #EEC6D6",
"D  c #E9C8D5",
"F  c #EAC8D5",
"G  c #EBC9D6",
"H  c #EBCAD7",
"J  c #EEC8D7",
"K  c #E0CDD8",
"L  c #EACDDA",
"P  c #ECCCD9",
"I  c #ECCDDA",
"U  c #EDCEDB",
"Y  c #EDCFDC",
"T  c #EFCEDC",
"R  c #F0CEDC",
"E  c #F0CFDD",
"W  c #E6D2DE",
"Q  c #EBD1DD",
"!  c #EDD0DC",
"~  c #EDD1DE",
"^  c #EED1DE",
"/  c #EED2DE",
"(  c #E8D4DF",
")  c #E4D8DD",
"_  c #E8D4E0",
"`  c #EAD6E2",
"'  c #EBD7E2",
"]  c #EFD6E3",
"[  c #E8DAE2",
"{  c #EED9E5",
"}  c #EFDBE6",
"|  c #EFDCE7",
" . c #F0D2E0",
".. c #F1D6E3",
"X. c #F2D7E5",
"o. c #F0D8E4",
"O. c #F0D9E5",
"+. c #F1D9E5",
"@. c #F2D9E6",
"#. c #F1DAE7",
"$. c #F0DBE7",
"%. c #F1DBE7",
"&. c #F2DAE7",
"*. c #F1DCE8",
"=. c #F2DCE8",
"-. c #F2DDE9",
";. c #F1DEE9",
":. c #F2DEE9",
">. c #F3DDEA",
",. c #F2DEEA",
"<. c #F3DEEA",
"1. c #ECE2E8",
"2. c #E9E9E9",
"3. c #EAEAEA",
"4. c gray92",
"5. c #ECE9EA",
"6. c #EBECEC",
"7. c #ECECEC",
"8. c None",
/* pixels */
"8.8.8.8.8.8.8.8.8.8.8.8.8.8.8.8.8.8.8.8.8.-.8.8.8.8.8.8.8.8.8.8.",
"8.8.8.8.8.8.8.8.8.8.8.8.8.8.8.8.8.8.-.-.-.=.8.8.8.8.8.8.8.8.8.8.",
"8.8.8.8.8.8.8.8.8.8.8.8.8.8.8.8.8.-.-.%.I ! 8.8.8.8.8.8.8.8.8.8.",
"8.8.8.8.8.8.8.8.8.8.8.8.8.8.8.8.-.-.o.C f Y 8.8.8.8.8.8.8.8.8.8.",
"8.8.8.8.8.8.8.8.8.8.8.8.8.8.8.-.-.#.V u z 8.8.8.8.8.8.8.8.8.8.8.",
"8.8.8.8.8.8.8.8.8.8.8.8.8.8.-.-.-.P i i A 8.8.8.8.8.8.8.8.8.8.8.",
"8.8.8.8.8.8.8.8.8.8.8.8.8.8.-.-.O.l u f Y 8.8.8.8.8.8.8.8.8.8.8.",
"8.8.8.8.8.8.8.8.8.8.8.8.8.-.-.:.I i i B 8.8.8.8.8.8.8.8.8.8.8.8.",
"8.8.8.8.8.8.8.8.8.8.8.8.8.-.-.=.V u d I 8.8.8.8.8.8.8.8.8.8.8.8.",
"8.8.8.8.8.8.8.8.8.8.8.8.8.-.-.+.k u N 8.8.8.8.8.8.8.8.8.8.8.8.8.",
"8.8.8.8.8.8.8.8.8.8.8.8.8.-.-.o.h f / 8.8.8.8.8.8.8.8.8.8.8.8.8.",
"8.8.8.8.8.8.8.8.8.8.8.8.-.-.-.=.~ ^ -.-.-.8.8.8.8.8.8.8.8.8.8.8.",
"8.8.8.8.8.8.8.8.8.8.-.-.-.-.-.-.:.:.-.-.-.*.8.8.8.8.8.8.8.8.8.8.",
"8.8.8.8.8.8.8.8.8.-.-.-.-.-.-.-.-.-.-.-.-.-._ 8.8.8.8.8.8.8.8.8.",
"8.8.8.8.8.8.8.8.8.-.-.-.-.-.-.-.-.-.-.-.-.-.} v 8.8.8.8.8.8.8.8.",
"8.8.8.8.8.8.8.8.-.-.-.-.-.-.-.-.-.-.-.-.-.-.>.m 8.8.8.8.8.8.8.8.",
"8.8.8.8.8.8.8.8.-.-.-.-.-.-.-.-.-.-.-.-.<.<.<.W e 8.8.8.8.8.8.8.",
"8.8.8.8.8.8.8.8.-.-.-.-.-.-.-.-.-.-.-.<.K K <.` t 8.8.8.8.8.8.8.",
"8.8.8.8.8.8.8.8.-.-.-.-.-.-.-.-.-.-.-.$.X X *.' r 8.8.8.8.8.8.8.",
"8.8.8.8.8.8.8.;.-.-.-.-.-.-.-.-.-.-.-.$.  . $.( q 8.8.8.8.8.8.8.",
"8.8.8.8.8.8.4.5.1.| -.-.-.-.-.-.-.-.-.-.n n <.{ n 8.8.8.8.8.8.8.",
"8.8.8.8.8.4.4.4.2.[ -.-.-.-.-.-.-.-.=.T E X.=.-.-.8.8.8.8.8.8.8.",
"8.8.8.8.4.4.4.4.6.) Q -.-.-.-.-.-.-...J c p a  .,.=.x 8.8.8.8.8.",
"8.8.8.8.4.4.4.4.3.b s F ] =.-.,.,.,.&.J Z S R @.%.L < # 8.8.8.8.",
"8.8.8.8.8.4.4.7.M + 5 y g B G I U U P G H D j w 4 , - 8.8.8.8.8.",
"8.8.8.8.8.8.8.8.8.8.8.= 2 7 9 0 0 9 8 6 3 1 > ; : 8.8.8.8.8.8.8.",
"8.8.8.8.8.8.8.8.8.8.8.8.8.o $ * * * & % @ O 8.8.8.8.8.8.8.8.8.8.",
"8.8.8.8.8.8.8.8.8.8.8.8.8.8.8.8.8.8.8.8.8.8.8.8.8.8.8.8.8.8.8.8.",
"8.8.8.8.8.8.8.8.8.8.8.8.8.8.8.8.8.8.8.8.8.8.8.8.8.8.8.8.8.8.8.8.",
"8.8.8.8.8.8.8.8.8.8.8.8.8.8.8.8.8.8.8.8.8.8.8.8.8.8.8.8.8.8.8.8.",
"8.8.8.8.8.8.8.8.8.8.8.8.8.8.8.8.8.8.8.8.8.8.8.8.8.8.8.8.8.8.8.8.",
"8.8.8.8.8.8.8.8.8.8.8.8.8.8.8.8.8.8.8.8.8.8.8.8.8.8.8.8.8.8.8.8."
};
