/* XPM */
static char *result[] = {
/* columns rows colors chars-per-pixel */
"33 32 101 2 ",
"   c #1C1727",
".  c #171A2A",
"X  c #181D2B",
"o  c #211827",
"O  c #241A29",
"+  c #2B1D2B",
"@  c #311F2B",
"#  c #18222E",
"$  c #192631",
"%  c #192C34",
"&  c #183037",
"*  c #18343A",
"=  c #173A3E",
"-  c #193B3E",
";  c #212829",
":  c #33222D",
">  c #3A252E",
",  c #25352D",
"<  c #27392E",
"1  c #2A3F2F",
"2  c #252D35",
"3  c #2E2932",
"4  c #3C2630",
"5  c #2E3037",
"6  c #273D30",
"7  c #25353A",
"8  c #2D3138",
"9  c #3B3739",
"0  c #3B3D3A",
"q  c #41272E",
"w  c #43282E",
"e  c #412932",
"r  c #4D2D33",
"t  c #512F34",
"y  c #543134",
"u  c #5C3435",
"i  c #593B39",
"p  c #623736",
"a  c #673936",
"s  c #1C423E",
"d  c #2A402F",
"f  c #2C4430",
"g  c #2E4831",
"h  c #244D3E",
"j  c #3E4E3B",
"k  c #2F5336",
"l  c #2D593C",
"z  c #325736",
"x  c #375E36",
"c  c #3F513B",
"v  c #325D38",
"b  c #3E583D",
"n  c #396237",
"m  c #34643C",
"M  c #3E6F39",
"N  c #42463A",
"B  c #484438",
"V  c #4A4C3B",
"C  c #504238",
"Z  c #5D463B",
"A  c #504D3B",
"S  c #4E5D3E",
"D  c #437C3C",
"F  c #1F4840",
"G  c #214D40",
"H  c #245341",
"J  c #275942",
"K  c #2A5D42",
"L  c #2D6443",
"P  c #2F6944",
"I  c #316D44",
"U  c #337345",
"Y  c #397645",
"T  c #367A46",
"R  c #3B7D45",
"E  c #406A41",
"W  c #417E40",
"Q  c #47833E",
"!  c #3B8347",
"~  c #3C8648",
"^  c #3E8A48",
"/  c #438644",
"(  c #428B46",
")  c #418D48",
"_  c #4C9342",
"`  c #4F9843",
"'  c #459449",
"]  c #479949",
"[  c #499B49",
"{  c #529F44",
"}  c #4EA44A",
"|  c #53A245",
" . c #53AC4B",
".. c #56B14B",
"X. c #5AB54A",
"o. c #5DBC4B",
"O. c #60BF4B",
"+. c #5FC14C",
"@. c #62C54D",
"#. c #64C94D",
"$. c None",
/* pixels */
"$.$.$.$.$.$.$.$.$.$.$.$.$.$.$.$.$.$.$.$.$.$.$.$.$.$.$.$.$.$.$.$.$.",
"$.$.$.$.$.$.$.$.$.$.$.k m , $.$.1 1 1 < $.$.$.$.$.$.$.$.$.$.$.$.$.",
"$.$.$.$.$.$.$.$.$.f z R [ ( v D o.o.o.| d $.$.$.$.$.$.$.$.$.$.$.$.",
"$.$.$.$.$.$.$.$.$.l ' ) ) [ } X.#.#.#.#.X.Q $.$.$.$.$.$.$.$.$.$.$.",
"$.$.$.$.$.$.$.$.X K ) ^ ) ' [ [  .X.@.+.o.@.g $.$.$.$.$.$.$.$.$.$.",
"$.$.$.$.$.$.$.$.. h ! ) ' ) [ [ } [ X.@.X.@.M $.$.$.$.$.$.$.$.$.$.",
"$.$.$.$.$.$.$.$.$.% T ) ) ' [ [ [ [  .#.#.#.X.x < $.$.$.$.$.$.$.$.",
"$.$.$.$.$.$.$.$.X = P ~ ^ ) ' ' [ [ [ o.@.#.X.| _ $.$.$.$.$.$.$.$.",
"$.$.$.$.$.$.$.$.% - H ^ ^ ^ ~ W ' [ [ } @.#.#.#.Q $.$.$.$.$.$.$.$.",
"$.$.$.$.$.$.$.$.# & s U ~ ) ) V I ) R '  . . ./ $.$.$.$.$.$.$.$.$.",
"$.$.$.$.$.$.$.$.$.$ - s H I U Z S / P U ' [ [ z ; _ _ < $.$.$.$.$.",
"$.$.$.$.$.. X . % s - = - = - i N G s F I ! [ | { O._ | n $.$.$.$.",
"$.$.$.$ $ * - J L ! P K K F G Z 9 = L L L P ..#.#.@.O.#.D $.$.$.$.",
"$.$.$.$ = F I ^ ) ^ ^ ^ ^ ! U i 9 H R ) ) [ X.o.@.#.@.O.X.n $.$.$.",
"$.$.$.X - P ~ ) ' ' ' ~ b j B u 0 T ) ~ ' [ [ [ [ O.@...@.{ $.$.$.",
"$.$.$.$ - P ^ ) [ [ [ / j j V V K ~ ) ) ' [ [ [ [ X.#.@.@.z $.$.$.",
"$.$.$.% F R ^ ) [ [ [ ' ) ' ' R G T ) ) ^ ' [ [ [ } +.#.o.g $.$.$.",
"$.$.$.& H ~ ^ ) ' ' ' [ [ [ [ ' H G Y ) ^ ' ] ] [ [  .#.D $.$.$.$.",
"$.$.$.& - U ^ ) ~ ' [ [ [ [ ' ' L = P ^ ^ ^ ' [ [ [ } } _ 6 $.$.$.",
"$.$.$.X = J ^ ^ ) ) [ [ [ ' [ ) - s H ~ ^ ^ ^ [ [ [ ] ] } g $.$.$.",
"$.$.$.$ - - L U ! ) ) ) ' [ [ ) G - s U T ~ ^ ^ ' [ [ ] [ x $.$.$.",
"$.$.$.& - - - - J ~ ! R ! ) ^ [ P - = G Y ^ ^ ^ ^ ~ ^ ) ] W $.$.$.",
"$.$.$.% - - - - s P F F J ! U ' I - - s K I P U ~ U ! ^ R 6 $.$.$.",
"$.$.$.$.# = - - - = = = F G H K J * 7 s = = = F G H G m 6 $.$.$.$.",
"$.$.$.$.$.$ $ & - - * 2 8 8 8 $   X 3 3 8 7 % & - - %   $.$.$.$.$.",
"$.$.$.$.$.$.$.$.X X   + e 4 4 4 4 4 4 r r > . $.X . X $.$.$.$.$.$.",
"$.$.$.$.$.$.$.$.$.$.$.$.+ : 4 e y y t t r : $.$.$.$.$.$.$.$.$.$.$.",
"$.$.$.$.$.$.$.$.$.$.$.$.$.$.  4 y u >   o $.$.$.$.$.$.$.$.$.$.$.$.",
"$.$.$.$.$.$.$.$.$.$.$.$.$.$.$.> r u e $.$.$.$.$.$.$.$.$.$.$.$.$.$.",
"$.$.$.$.$.$.$.$.$.$.$.$.$.$.$.> r u w $.$.$.$.$.$.$.$.$.$.$.$.$.$.",
"$.$.$.$.$.$.$.$.$.$.$.$.$.$.  4 y u a > $.$.$.$.$.$.$.$.$.$.$.$.$.",
"$.$.$.$.$.$.$.$.$.$.$.$.$.$.: > u p r p : $.$.$.$.$.$.$.$.$.$.$.$."
};
