/* XPM */
static char *result[] = {
/* columns rows colors chars-per-pixel */
"64 64 155 2 ",
"   c #010521",
".  c #050B26",
"X  c #0B0E26",
"o  c #060D2A",
"O  c #090E2B",
"+  c #0D1126",
"@  c #0E132C",
"#  c #0F182E",
"$  c #11152E",
"%  c #13182F",
"&  c #191B2E",
"*  c #0E1433",
"=  c #0F1834",
"-  c #0F1838",
";  c #121631",
":  c #141934",
">  c #1B1D34",
",  c #161C3A",
"<  c #181F3C",
"1  c #1E2135",
"2  c #16203D",
"3  c #19203D",
"4  c #222335",
"5  c #282436",
"6  c #2A2A37",
"7  c #23253B",
"8  c #28273B",
"9  c #25283D",
"0  c #2B2C3D",
"q  c #312F3C",
"w  c #2F303E",
"e  c #33323D",
"r  c #39353E",
"t  c #3C3A3E",
"y  c #161F41",
"u  c #191F42",
"i  c #162142",
"p  c #1A2243",
"a  c #17244A",
"s  c #1B254A",
"d  c #1C284D",
"f  c #1C2751",
"g  c #1E2B53",
"h  c #1E2D5A",
"j  c #1F305B",
"k  c #212641",
"l  c #252942",
"z  c #2B2D43",
"x  c #2E3144",
"c  c #2D3248",
"v  c #343342",
"b  c #393645",
"n  c #3D3A45",
"m  c #35364A",
"M  c #36394F",
"N  c #3B3A4B",
"B  c #202750",
"V  c #202B54",
"C  c #212E5B",
"Z  c #21315E",
"A  c #1F2F63",
"S  c #1F3361",
"D  c #222F60",
"F  c #233363",
"G  c #253669",
"H  c #28376A",
"J  c #26386B",
"K  c #28396D",
"L  c #263B72",
"P  c #293C73",
"I  c #2A3E79",
"U  c #423D44",
"Y  c #423E48",
"T  c #413F51",
"R  c #3F424F",
"E  c #2A4077",
"W  c #27417A",
"Q  c #2B417C",
"!  c #474145",
"~  c #45414C",
"^  c #4B454B",
"/  c #4E494D",
"(  c #534A46",
")  c #534B4D",
"_  c #584F4B",
"`  c #5A504C",
"'  c #444352",
"]  c #494450",
"[  c #4D4954",
"{  c #4F4E5A",
"}  c #534C52",
"|  c #545152",
" . c #5C5353",
".. c #5C5459",
"X. c #625554",
"o. c #645A55",
"O. c #6E5F55",
"+. c #645B5B",
"@. c #6B5D5C",
"#. c #6F6057",
"$. c #6C615C",
"%. c #736556",
"&. c #73645D",
"*. c #766A5E",
"=. c #7C6C5D",
"-. c #5E5960",
";. c #665E61",
":. c #695E61",
">. c #6D6161",
",. c #6F6569",
"<. c #746662",
"1. c #746963",
"2. c #7B6E63",
"3. c #75696A",
"4. c #7A6D69",
"5. c #7C7060",
"6. c #806F63",
"7. c #847464",
"8. c #897666",
"9. c #8A7A65",
"0. c #84736A",
"q. c #8D7B6B",
"w. c #917D6B",
"e. c #877770",
"r. c #877870",
"t. c #8D7C73",
"y. c #907E73",
"u. c #928266",
"i. c #95836D",
"p. c #9A856E",
"a. c #9A886E",
"s. c #8D8077",
"d. c #948272",
"f. c #9C8675",
"g. c #9C8A72",
"h. c #968379",
"j. c #9F877A",
"k. c #9E897B",
"l. c #A58E7B",
"z. c #A6907F",
"x. c #AE957E",
"c. c #2C4482",
"v. c #2B4886",
"b. c #2F4B8C",
"n. c #314B8E",
"m. c #A28D80",
"M. c #A88F80",
"N. c #A69082",
"B. c #AB9481",
"V. c #BB9C88",
"C. c #BBA082",
"Z. c #BBA28D",
"A. c #C0A588",
"S. c #C7AB8A",
"D. c #C9AB8D",
/* pixels */
"< 2 s p 2 g F g C g 1 2 i < s F F p Z K F s : p p p s h Z s : , : : : : : ; : ; @ , h s j G u F D f s ; @ ; $ % @ $ $ $ : ; a C ",
"3 3 2 s < p j L F s p 3 < 3 F F Z C s Z Z Z 2 s V V g h C < : , : : : : : : ; : % : : : - W , F A G s s ; % % @ $ $ $ % $ ; < : ",
"3 3 3 p B 1 , g h H F 2 < 3 3 : g Q d p g Z F d h V h F s : , : , , : : : : : % % = $ , F Q a h g A P a s * $ $ $ $ $ $ $ $ ; @ ",
"3 3 3 , B d < , g J J V < < 3 3 3 C p : 3 3 g Z F F C s , : , , : : : : ; : ; % % % % : H c.2 Z g a v.g h , $ $ $ $ $ $ $ ; $ % ",
"3 3 3 < i F p < s C F d , 3 3 < 2 , , 3 < i p u < , : , : : , : : : : : : : : % % % % + F n.y : ; g G h J a % $ $ ; $ $ $ $ $ $ ",
"3 3 < 3 < V Z V s d F s 3 3 < 2 3 3 3 , < < 3 s s s i p p i y < , : : : : : ; ; % : * @ f v.I d F I j F F h : $ $ @ $ $ $ $ $ $ ",
"3 < 3 2 < < F P G K h C p < 3 < < , < < < < < > 1 s d s p p d g d u < : ; : : ; ; ; % $ , c.v.b.c.L h F h G u @ ; $ $ $ $ $ $ @ ",
"2 3 3 3 < 3 p K c.W L E p 2 3 < 3 < < < < < : < , , < h g i , p F V p s : : : ; % ; @ $ : f I L F - ; P D L y @ $ $ $ $ $ $ $ ; ",
"3 2 < 3 3 3 < p H c.c.C > 3 < < < < < < < < < < u > ; B D G u ; L c.y u s , % % ; ; % ; $ p D f $ $ ; : D G ; $ $ O $ $ $ $ $ $ ",
"3 3 3 3 < 2 3 < 2 s a > < u 3 < < < < < < < , < , , , ; u B u H P P a C f a : ; ; ; # ; $ s Q h + ; ; + a u + ; $ ; $ $ $ $ $ $ ",
"< 3 < 3 3 3 < 3 3 < 3 3 2 3 < 3 , u < < < < < < , , , , , ; ; D y ; , f V D u ; ; $ % # $ : D , $ $ $ ; + $ ; @ $ $ $ $ ; $ $ $ ",
"3 3 < p 3 3 < p 3 3 3 3 3 3 < < < < < < < < , < , , , , , , , u I , $ : : V : $ ; % % ; $ $ $ $ $ $ $ $ $ ; $ $ $ $ ; $ @ $ $ $ ",
"3 p < 3 2 3 < 3 3 2 3 3 3 < < < < < < < u > , , u , > , , , , ; F p % : : % & ; ; ; % % * % % % $ $ $ $ $ $ $ $ $ $ $ $ $ $ ; $ ",
"3 < < 3 3 3 3 3 < 3 3 < 3 3 p 2 < < < < > u , , , , , , ; , : , : : : : : % ; : ; % * % $ ; ; $ $ $ $ $ $ ; $ $ $ $ $ $ $ $ $ $ ",
"3 < 3 2 3 3 3 3 p < 3 3 < 2 < < < < u u u u , , u , : , , , , : : : : : : : ; ; % ; ; # % $ ; ; $ $ $ $ $ @ $ $ $ @ @ ; $ $ @ $ ",
"3 3 3 3 < 3 3 3 < 3 3 3 3 3 3 < > u > , u > , , , , , > , > , , : , : : : ; : ; % % @ ; $ $ % $ $ ; @ $ $ $ $ $ $ ; $ $ $ $ $ ; ",
"3 3 3 3 3 < 3 3 3 2 < 3 3 3 3 < < < 3 3 < < , < , , , , : , , : : : : : : ; ; > : > 8 $ $ $ : $ $ $ $ @ $ $ @ $ $ $ $ $ $ $ $ $ ",
"< 3 3 3 3 3 3 2 3 3 3 3 < 3 3 < 2 < , < < < < , , , > , , , , : : : > : ; : ; v 8 0 0 $ % % $ $ $ $ ; ; $ $ $ ; $ $ ; @ $ $ $ $ ",
"3 p < < 3 3 3 3 < 3 < p p < 3 2 < < < < < < , , , , , , : : , , , : : : : : ; 8 % 1 > % $ % % $ $ $ @ $ ; ; O @ ; $ $ $ ; $ ; @ ",
"2 < 3 p < 3 3 < 3 3 < 3 < 3 < < < 2 < 2 < 3 , 3 , , , , , , , : : : : : : ; % : 9 & 8 5 > $ $ : $ $ $ $ @ & q 1 $ $ $ $ $ $ $ $ ",
"y , M l < 3 3 3 3 < 3 3 < 3 3 2 , 3 2 1 < < > , < , , , , , : , : : : : : : ; ; 9 b b 0 8 ^ 4 $ ; ; ; @ > 6.} > $ $ $ $ $ @ ; $ ",
"u < M 3 y < 2 3 3 3 2 3 p 3 3 < 3 2 , , < < , < < : : , , : , : : : : : $ ; 1 z v > 0 n n U | : @ $ ; X / @.  @ $ $ $ $ $ $ $ $ ",
"3 , M z , u 3 3 3 3 3 3 < 3 3 < 2 < < 3 < < , < < < : , , , : , : : : 4 7 > 9 0 8 7 8 4 &.[  .v v 8 $ . <.Y o ; $ $ @ ; $ $ $ $ ",
"< < k ' l < < 3 < 3 3 3 < 2 < < 3 < < < < < 3 , < , , : , , , : : : 4 x b 9 1 b ) ^ +.+.<.X.<. .q $ $ & y.5 @ $ $ $ $ $ $ $ $ $ ",
"3 3 < 3 { z < < < < 3 3 3 3 3 < , < < < < 2 , , < 3 : : , , : , , < < ; O O ; 1 1./  . .:.0.+.<.8 $ . ^ >.X ; $ $ $ $ $ @ $ $ $ ",
"3 3 2 , N ' , p p 3 3 3 3 < 2 < 3 2 < 2 < < < 3 3 9 z 7 , - : , , : v b ..:.> 0.>.| ^ v Y @.X.Y $ @ q <.> @ ; $ $ $ $ ; $ ; $ $ ",
"3 3 3 < p T 3 - - , , , 2 3 < < < 2 < < < 3 , , , , 3 7 1 v x < : ; : : Y Z.0.l./ ^ ) ~ Y v ^ e v 5 Y > @ $ $ $ $ @ $ $ $ $ $ $ ",
"< 3 3 3 < M -.[ ..;.;.M , y 3 < , 3 , 3 < < 3 < < , 3 3 : c 9 1 7 : : : O n ^ ; 0 4 9 e +.b Y b v & O O & $ $ $ $ ; $ $ @ $ $ $ ",
"p < < 3 < 3 N -.;.3.t.z.,.1 < , 2 3 < < 3 < , , < > , 7 3 ; , : : < : : * Y y.v O : % > 4 1 & @ + $ $ $ $ $ $ $ $ $ $ $ ; $ $ $ ",
"3 3 p < < u , < < < 3 ' h.3., < 3 3 < , , < , , : , : 3 3 N [ 3 < : 8 : * 7 m.X.> + O @ O O @ : : $ $ $ $ $ $ $ $ $ $ $ $ $ $ $ ",
"< 2 3 3 < 3 3 3 y p , , l s.3.> - - : c [ 1.3.+.R l 3 : 7 l 7 > z : : m > @ & } y.0...e ^ U 8 o @ ; $ $ $ $ $ @ $ $ $ $ $ $ $ $ ",
"3 3 3 < 3 3 3 3 2 3 3 i , z h.s...+.0.m.l.k.B.M.j.q.} < : z 1 * , 8 ; 7 N : # b <.D.0.0 &.t.0.X.4 X $ $ $ $ ; $ $ $ $ $ ; $ $ $ ",
"2 3 3 < < 2 3 3 3 3 p u < 2 N 0.h.y.1.[ [ ' b ..1.V.Z.>.9 < n [ } < 9 % 4 n z 8 b @.X.X.e.X.8.w.y.U O ; $ X $ $ $ $ $ @ X $ $ $ ",
"< 3 3 3 p 3 3 < 3 , < m c 3 p z z p , z N 7 | q.0. .f.D.q.n - 0 0 7 8 x > : > 7 v Y )  .B.w.U 2.w.A.5 O & 8 > > : $ $ 5 v $ $ $ ",
"p < 3 3 < 3 2 3 3 l l < N N k z k < 7 M 9 4.t.R } [ U 0.B.l.+.r < : 7 v Y N 8 7 1 4 0 ) l.S.^ X.*.V.X.  e e 1 % : & > 1 8 2.7 X ",
"3 3 3 3 < 3 3 3 3 u N R , l 7 3 l < l ~ e.>.3 l b x.q x @.f.f.f.2.) 0 0 n U e 0 n } } r 8.x.( +.2.p.0.q 5 4 & $ $ r q X 4 &.q O ",
"< 3 3 3 p < 3 3 3 < , m ' , < , < z [ 4.} , v +.3 >.0.w &.@.w.9.w.l.7. .^ }  .! e q ^ &.#.w.U @.=.8.w.` 5 b $ $ $ $ U _ O.( % $ ",
"3 3 3 < < 3 3 < 3 3 u , z c l m | 4...b 3 9 ' ~ n v 5.n <.w./ d.u.8.w.g.8.$. .@.2.#.( o.6._ _ 6.*.o.r q & > @ $ $ @ : q 1 4 @ % ",
"3 3 3 3 3 3 3 3 3 3 < 3 v N } @.@.[ k 3 p c x v 7 3 | v x i.$.> @.f.i.u.p.a.9.*.O.` o.o.g.&.9.%.7.> 0 & 4 $ $ $ $ $ $ O $ @ $ $ ",
"p < 2 3 3 3 < 3 3 3 k c l z 9 p 3 < < 3 1 l 3 v l 7 7.q.n U 9.> * 8 } =.7.9.9.9.=.%.6.=.a.o.O.7.( $ 6 e 8 $ % $ $ $ $ $ $ $ $ $ ",
"< < 3 3 3 3 < p < p 3 3 < < < < 3 3 3 7 p l 3 , z 7 x 8.9.*.9.1 : , % : 4 e U e U 7.=.%.u.%.2.t $ 8 U U $ $ $ $ $ $ $ $ $ $ $ $ ",
"3 3 < 2 3 3 3 < 3 3 3 3 3 3 3 k 7 l x 7 3 7 , , 7 < < : U $.n ; : : : 4 7 > v e n ( u.u._ U & % 4 e b > @ $ $ $ $ $ $ $ $ $ @ ; ",
"3 < 3 3 < 3 < 3 3 3 2 3 3 3 k k 3 l 3 3 < < 3 , , k 7 , - ; < l : 7 0 6 r > 4 v % ) 9.( O @ > > 8 5 & @ ; $ ; $ $ $ $ $ $ $ $ $ ",
"3 3 3 3 3 2 3 3 3 3 < 3 3 3 u < 3 3 3 2 < < , 2 , k l 5 : , 7 > 7 7 > < : : 4 % t ( 5 & 4 5 > 4 1 $ @ $ $ $ @ $ $ $ $ $ $ ; $ $ ",
"< 3 < 3 3 3 3 < 3 3 3 3 3 3 3 , 2 3 < < < < > < , , 5 < , 8 z , : : : = 1 1 8 U g.n @ 1 1 > : % $ $ $ $ $ $ $ $ ; @ $ $ @ $ $ $ ",
"3 < p 3 3 3 < p 3 3 < 3 3 3 3 < < , 3 < < < < , , , , k , z Y 8 - : , > 0 e ! ) t % * $ % % $ $ $ $ $ $ ; $ $ $ $ $ $ $ $ ; $ $ ",
"3 3 3 3 3 2 3 < 2 < 3 3 2 3 3 < < 3 < 3 < < , < u , , k z v U 8 : 1 3 0 6 n 4 o @ ; # % ; ; $ $ $ $ $ $ $ $ $ $ $ $ $ $ $ $ $ $ ",
"3 2 3 3 < 3 3 3 3 3 3 < 3 3 3 2 3 , < < < 3 , , , , , ; 7 m z 8 , 1 1 4 3 : : : % % ; ; # $ $ % $ $ $ $ $ @ ; $ $ $ $ $ $ $ ; @ ",
"< 3 3 3 3 3 < 3 < 3 p < 3 3 < < < 2 < 2 3 < > , < , , , , 5 7 : , x n l @ : : ; % ; * % $ ; ; $ $ $ $ $ $ $ $ $ $ ; ; $ $ $ @ ; ",
"3 3 < 3 3 3 p < 3 3 < 3 < 3 2 < < < < > < < , < , , : , , : - , > ' q v : : ; % ; % % # $ $ % $ $ $ $ $ $ $ $ $ $ $ $ $ $ $ $ $ ",
"3 u 3 3 < 3 3 < 3 < 3 3 < 3 3 < 3 2 < 2 < < < , , , < , : , > , : : 1 : : : ; : % ; ; % ; % ; % $ $ $ $ $ $ $ $ $ $ $ $ $ $ $ $ ",
"3 3 3 2 < p 3 3 3 3 3 3 3 3 3 2 , 3 < 3 < < < , < , , : , : , : , : : : ; : : ; % ; ; @ % $ % ; ; $ $ $ $ $ ; $ @ $ $ $ $ $ $ $ ",
"3 3 < < , 3 < 3 3 3 3 3 3 3 2 < < 3 , , < < , 2 < , , , , , : , , : > : : : ; % * ; % % ; % # $ $ $ ; $ X $ @ % ; ; ; $ $ @ ; $ ",
"2 < < p Z p < < 3 3 < 3 3 3 3 < < < 3 3 < < 2 , < , , : , : , , : : : : ; : : % % % # # - G I s $ $ : , C V i : X $ X @ $ $ $ $ ",
"< s 3 g E C < p p < 3 3 < < 3 < < < < < < < 1 , < < : < , , , : : : : : : ; : : % : % @ G c.I c.: @ ; , y , < y B g y , ; $ $ $ ",
"s c.h < B d k s s s s s p p 3 < < < < < < < , 2 < , , : : , , : : : : : : : ; * % ; @ , I S F J p @ % @ $ $ * , y < , , * $ $ $ ",
"s Z h p s s s s s p s 3 < 3 2 < 3 < < < < < 2 , < , , : : : , : , : : : : : : ; % ; @ s L j D J s @ ; $ $ ; % @ @ $ $ @ $ $ $ $ ",
"< < p 3 3 3 3 p p p 3 2 3 3 3 < < < < 3 < < , > , : , < f s < , : : : : ; : ; % : ; @ V F g i S C + $ $ $ @ $ @ $ % $ $ $ $ $ $ ",
"3 3 2 3 3 3 3 < < > p i < 3 3 < < < < < p s Z E F f h C H G C d , % % : ; : : % % ; # C d s ; h H $ $ $ % @ , a ; $ $ $ $ $ $ $ ",
"3 3 3 3 < 3 3 3 < Z Q Q g < 2 < < < < < p B d d g B p < : : : : 2 p g < , : : % * % , G a : : a P : u , @ : c.b.F $ $ $ $ $ $ $ ",
"3 3 3 3 3 2 3 < h b.c.Q Q p 3 < < < < < < , : , , : : , , , : u d g Z g s p , * % $ s P , h I S D f y < X C c.L I y $ ; + @ ; ; ",
"3 < 3 3 3 3 < u P W F F v.j , < < < u < < < < < , , , , , , , : : $ @ # ; : : % , ; A g a K S J h D a p # J G h I s X D K ; @ $ ",
"< 3 < 3 3 3 < d c.j g d G P < < < < < < < < < , , , , : , : , : : s J g ; : ; : s s h i G G s g F C g , i I g s P h , K c.C + $ ",
"3 3 3 3 3 3 , G c.Z i i F Q a < < < < < < < 1 , , , , , , , > : , P c.G g y ; : y G y f S f y , g g h @ h G y ; f h a h F P : $ "
};
