/* XPM */
static char *result[] = {
/* columns rows colors chars-per-pixel */
"64 64 70 1 ",
"  c #88CC8A218AC7",
". c #9BCA9BCA9BCA",
"X c #9FBBA13DA20A",
"o c #A4E7A4E7A4E7",
"O c #AAE3ACCDAD9B",
"+ c #B3CCB607B709",
"@ c #B618B9F5BB7A",
"# c #BAEBBD34BE1E",
"$ c #F31A97A6864C",
"% c #F3F29F048E56",
"& c #F464A517952C",
"* c #F517AB8E9CCD",
"= c #F590AFA4A193",
"- c #F5FBB305A571",
"; c #F646B6B6A9CE",
": c #F6A0BA0FAD81",
"> c #F75ABE47B2B8",
", c #C267C0A9B7B9",
"< c #C441C3AEBC3B",
"1 c #F7C2C156B659",
"2 c #F80BC5CFBB59",
"3 c #F8B5C936BF97",
"4 c #A861BD27D076",
"5 c #BE64C2F6C4A5",
"6 c #B4A4C3D7D1DE",
"7 c #BC2BC81CD2CF",
"8 c #BE81CAC4D51E",
"9 c #C2C5C494C33D",
"0 c #C255C747C900",
"q c #C6EECB09CC9D",
"w c #CA6BCDE4CF32",
"e c #C449CDF6D595",
"r c #CB8BCFECD18F",
"t c #C73ED139D836",
"y c #CDFFD2CCD4BB",
"u c #C6E5D1F5D92E",
"i c #CBDDD49DD9EF",
"p c #D248D60FD77A",
"a c #D2A5D76FD91F",
"s c #D373D9E8DC61",
"d c #DC7BDD0DDD7A",
"f c #F93FCDD2C505",
"g c #F99BD061C805",
"h c #F9F0D36CCB92",
"j c #FAE2DAFBD483",
"k c #FB5CDF58D997",
"l c #F756E37EDF7C",
"z c #FBD3E265DD38",
"x c #D654DD90E2B2",
"c c #DB92DF59E189",
"v c #DDB9E1CBE37C",
"b c #D748E305EEF7",
"n c #DD56E703F0E0",
"m c #E37AE7C8EC1C",
"M c #E777E93FEAE8",
"N c #EC3EEC71EC9F",
"B c #FC6AE660E1DB",
"V c #F530E881E5F2",
"C c #FC83E97CE582",
"Z c #FD24EDB5EA82",
"A c #F665F112EFE8",
"S c #FDABF1D7EF5C",
"D c #E9A3EE25F264",
"F c #EF46F184F374",
"G c #F39EF3E7F432",
"H c #FE41F635F485",
"J c #FE84F90BF7D9",
"K c #F738F86BF8AC",
"L c #F768F968F9C6",
"P c #FF75FF74FF73",
/* pixels */
"y@#54@++0ssssssssssssssassassaayyaaaaaaappaaaaaappapapppp@+,+O q",
"y00q55<5wsssxsssssssssssaasaasayyaaaasaapppaaaaaaapaaaappq49<#Xw",
"sssssxsssssssssssssssyry,yyyyaryqywyapyyrpwpaaapaaapaayypppppspp",
"aiiei8ieissssssxssssstr<<yyyyywyry0yawyyppraaaaaapaaai6epr7r4r40",
"auieu8uiussssxssssssiyy<ayyayayawawaayayyppaaaaappaapy48pe6e4eee",
"vvcxvxxxvvvvvvvvvvvvvvvvvvvvvvvvvvvvcvvvvvdvdvccvvdvvcsdvcsxddxs",
"PPPPPPPPPPPPLPPPPLPPPPPPPPLPPPPLPPPLPPPJLPPPPPPPPJPPPLPPPPPJPPJJ",
"PPPPPPPPPPPPPPPPPPPPPPPPPPPPPPPPPPPPPPPPPPPPPPPPPPPPPPPPPPPPPPPP",
"PPPPPPPPPPPPPPPPPPPPPPPPPPPPPPPPPPPPPPPPPPPPPPPPPPPPPPPPPPPPPPPP",
"PPPPPPPPPPPPPPPPPPPPPPPPPPPPPPPPPPPPPPPPPPPPPPPPPPPPPPPPPPPPPPPP",
"PPPPPPPPPPPPPPPPPPPPPPPPPPPPPPPPPPPPPPPPPPPPPPPPPPPPPPPPPPPPPPPP",
"PPPPPPPPPPPPPPPPPPPPPPPPPPPPPPPPJJPPPPPPPPPPPPPPPPPPPPPPPPPPPPPP",
"PPPPPPPPPPPPPPPPPPPPPPPPPPPPPPZ2;SPPPPPPPPPPPPPPPPPPPPPPPPPPPPPP",
"PPPPPPPPPPPPPPPPPPPPPPPPPPPJk;*2SPPPPPPPPPPPPPPPPPPPPPPPPPPPPPPP",
"PPPPPPPPPPPPPPPPPPPPJjhhf3-&*fSPPPPPPPPPPPPPPPPPPPPPPPPPPPPPPPPP",
"PPPPPPPPPPPPPPPPPPPPZ3>213hZPPPPPPPPPPPPPPPPPPPPPPPPPPPPPPPPPPPP",
"PPPPPPPPPPPPPPPPPPPPPJ3PPPPPPPPPPPPPPPPPPPPPPPPPPPPPPPPPPPPPPPPP",
"PPPPPPPPPPPPPPPPPPPPPHfPPPPPPPPPPPPPPPPPPPPPPPPPPPPPPPPPPPPPPPPP",
"PPPPPPPPPPPPPPPPPPPPPH2JPPPPPPPPPPPPPPPPPPPPPPPPPPPPPPPPPPPPPPPP",
"PPPPPPPPPPPPPPPPPPPPPH2PPPPPPPPPPPPPPPPPPPPPPPPPPPPPPPPPPPPPPPPP",
"PPPPPPPPPPPPPPPPPPPPPJ1PPPPPPPPPPPPPPPPPPPPPPPPPPPPPPPPPPPPPPPPP",
"PPPPPPPPPPPPPPPPPPPPPJ>JPPPPPPPPPPPPPPPPPPPPPPPPPPPPPPPPPPPPPPPP",
"PPPPPPPPPPPPPPPPPPPPPJ1JPPPPPPPPPPPPPPPPPPPPPPPPPPPPPPPPPPPPPPPP",
"PPPPPPPPPPPPPPPPPPPPPH>PPPPPPPPPPPPPPPPPPPPPPPPPPPPPPPPPPPPPPPPP",
"PPPPPPPPPPPPPPPPPPPPPH>JPPPPPPPPPPPPPPPPPPPPPPPPPPPPPPPPPPPPPPPP",
"PPPPPPPPPPPPPPPPPPPPPH1PPPPPPPPPPPPPPPPPPPPPPPPPPPPPPPPPPPPPPPPP",
"PPPPPPPPPPPPPPPPPPPPPS1PPPPPPPPPPPPPPPPPPPPPPPPPPPPPPPPPPPPPPPPP",
"PPPPPPPPPPPPPPPPPPPPPZ2PPPPPPPPPPPPPPPPPPPPPPPPPPPPPPPPPPPPPPPPP",
"PPPPPPPPPPPPPPPPPPPPPC2PPPPPPPPPPPPPPPPPPPPPPPPPPPPPPPPPPPPPPPPP",
"PPPPPPPPPPPPPPPPPPPPPB3PPPPPPPPPPPPPPPPPPPPPPPPPPPPPPPPPPPPPPPPP",
"PPPPPPPPPPPPPPPPPPPPPzfPPPPPPPPPPPPPPPPPPPPPPPPPPPPPPPPPPPPPPPPP",
"PPPPPPPPPPPPPPPPPPPPPkgPPPPPPPPPPPPPPPPPPPPPPPPPPPPPPPPPPPPPPPPP",
"PPPPPPPPPPPPPPPPPPPPPkhPPPPPPPPPPPPPPPPPPPPPPPPPPPPPPPPPPPPPPPPP",
"PPPPPPPPPPPPPPPPPPPPPhhPPPPPPPPPJPPPPPPPPPPPPPPPPPPPPPPPPPPPPPPP",
"PPPPPPPPPPPPPPPPPPPPPhjPPPPPPPz;-HPPPPPPPPPPPPPPPPPPPPPPPPPPPPPP",
"PPPPPPPPPPPPPPPPPPPPPhkPPPPZf*&fSPPPPPPPPPPPPPPPPPPPPPPPPPPPPPPP",
"PPPPPPPPPPPPPPPPPPPPP:2zjf*&;jJPPPPPPPPPPPPPPPPPPPPPPPPPPPPPPPPP",
"PPPPPPPPPPPPPPPPPPPPH$$=*:hHPPPPPPPPPPPPPPPPPPPPPPPPPPPPPPPPPPPP",
"PPPPPPPPPPPPPPPPPPPPPhjPPPPPPPPPPPPPPPPPPPPPPPPPPPPPPPPPPPPPPPPP",
"PPPPPPPPPPPPPPPPPPPPPfjPPPPPPPPPPPPPPPPPPPPPPPPPPPPPPPPPPPPPPPPP",
"PPPPPPPPPPPPPPPPPPPPPhjPPPPPPPPPPPPPPPPPPPPPPPPPPPPPPPPPPPPPPPPP",
"PPPPPPPPPPPPPPPPPPPPPhkPPPPPPPPPPPPPPPPPPPPPPPPPPPPPPPPPPPPPPPPP",
"PPPPPPPPPPPPPPPPPPPPPghPPPPPPPPPPPPPPPPPPPPPPPPPPPPPPPPPPPPPPPPP",
"PPPPPPPPPPPPPPPPPPPPPgkPPPPPPPPPPPPPPPPPPPPPPPPPPPPPPPPPPPPPPPPP",
"PPPPPPPPPPPPPPPPPPPPPhjPPPPPPPPPPPPPPPPPPPPPPPPPPPPPPPPPPPPPPPPP",
"PPPPPPPPPPPPPPPPPPPPPhhPPPPPPPPPPPPPPPPPPPPPPPPPPPPPPPPPPPPPPPPP",
"PPPPPPPPPPPPPPPPPPPPPjhPPPPPPPPPPPPPPPPPPPPPPPPPPPPPPPPPPPPPPPPP",
"PPPPPPPPPPPPPPPPPPPPPjgPPPPPPPPPPPPPPPPPPPPPPPPPPPPPPPPPPPPPPPPP",
"PPPPPPPPPPPPPPPPPPPPPzfPPPPPPPPPPPCJPPPPPPPPPPPPPPPPPPPPPPPPPPPP",
"PPPPPPPPPPPPPPPPPPPPPB>PPPPPJHZzj3:HPPPPPPPPPPPPPPPPPPPPPPPPPPPK",
"PPPPPPPPPPPPPPPPPPPPPJ;CBf>*&%&&->BPPPPPPPPPPPPPPPPPPPPPPPPPPPPG",
"PPPPPPPPPPPPPPPPPPPPPPf&%=fjlVAKKLLLPPPPPPPPPPPPPPPPPPPPPPPPPPPG",
"PPPPPPPPPPPPPPPPPPPPPPPJJPPPFNNmmDAFJPPPPPPPPPPPPPPPPPPPPPPPPPPP",
"PPPPPPPPPPPPPPPPPPPPPPPPPPPLGLKnbGJGLPPPPPPPPPPPPPPPPPPPPPPPPPPP",
"PPPPPPPPPPPPPPPPPPPPPPPPPPPLGGDNmFFGLPPPPPPPPPPPPPPPPPPPPPPPPPPP",
"PPPPPPPPPPPPPPPPPPPPPPPPPPPPGMmMMMMFPPPPPPPPPPPPPPPPPPPPPPPPPPPP",
"PPPPPPPPPPPPPPPPPPPPPPPPPPPPPPLPPLPPPPPPPPPPPPPPPPPPPPPPPPPPPPPP",
"PPPPPPPPPPPPPPPPPPPPPPPPPPPPPPPPPPPPPPPPPPPPPPPPPPPPPPPPPPPPPPPP",
"PPPPPPPPPPPPPPPPPPPPPPPPPPPPPPPPPPPPPPPPPPPPPPPPPPPPPPPPPPPPPPPP",
"PPPPPPPPPPPPPPPPPPPPPPPPPPPPPPPPPPPPPPPPPPPPPPPPPPPPPPPPPPPPPPPP",
"PPPPPPPPPPPPPPPPPPPPPPPPPPPPPPPPPPPPPPPPPPPPPPPPPPPPPPPPPPPPPPPP",
"PPPPPPPPPPPPPPPPPPPPPPPPPPPPPPPPPPPPPPPPPPPPPPPPPPPPPPPPPPPPPPPP",
"PPPPPPPPPPPPPPPPPPPPPPPNddddddddddddddddNPPPPPPPPPPPPPPPPPPPPPPP",
"PPPPGMNNNMMNNNNMMNNNNMN#.ooooooooooooooopPPPPPPPPPPPPPPPPPPPPPPP"
};
