/* XPM */
static char *result[] = {
/* columns rows colors chars-per-pixel */
"64 64 131 2 ",
"   c #090B17",
".  c #070A19",
"X  c #0A0D1C",
"o  c #0B101E",
"O  c #0B0F21",
"+  c #060D2A",
"@  c #0A0E2B",
"#  c #0D1224",
"$  c #07112C",
"%  c #0E132B",
"&  c #101327",
"*  c #11152E",
"=  c #13182F",
"-  c #191B2E",
";  c #071030",
":  c #0E1432",
">  c #0F1935",
",  c #121631",
"<  c #141A34",
"1  c #1A1D34",
"2  c #161C39",
"3  c #181E3C",
"4  c #201F34",
"5  c #1E2235",
"6  c #17203D",
"7  c #19203D",
"8  c #232436",
"9  c #2A2737",
"0  c #2B2C37",
"q  c #23253B",
"w  c #25293D",
"e  c #2B2C3C",
"r  c #312F3B",
"t  c #2F303F",
"y  c #32323D",
"u  c #3A3A3F",
"i  c #1A1F40",
"p  c #1A2140",
"a  c #232641",
"s  c #262A41",
"d  c #2B2D43",
"f  c #322F42",
"g  c #2E3144",
"h  c #2F3149",
"j  c #333444",
"k  c #393643",
"l  c #3B3A45",
"z  c #343549",
"x  c #3A3648",
"c  c #37394C",
"v  c #3B3B4B",
"b  c #413D44",
"n  c #413E4C",
"m  c #423F51",
"M  c #3F4148",
"N  c #444146",
"B  c #4B4547",
"V  c #44424C",
"C  c #4B454C",
"Z  c #4D494C",
"A  c #504947",
"S  c #524C4D",
"D  c #56524E",
"F  c #5C564D",
"G  c #5D584F",
"H  c #444351",
"J  c #494652",
"K  c #4D4953",
"L  c #4E4C59",
"P  c #504750",
"I  c #534D53",
"U  c #584F53",
"Y  c #504C58",
"T  c #555153",
"R  c #5B5354",
"E  c #5E5953",
"W  c #55515A",
"Q  c #5C555A",
"!  c #5E595D",
"~  c #625A53",
"^  c #695E56",
"/  c #615658",
"(  c #635B5B",
")  c #6A6157",
"_  c #6E6458",
"`  c #746957",
"'  c #746C59",
"]  c #7B6E5D",
"[  c #7E715F",
"{  c #655D61",
"}  c #6A5F60",
"|  c #6E6264",
" . c #716663",
".. c #766963",
"X. c #7C6C66",
"o. c #766C68",
"O. c #7B6D6B",
"+. c #7C7360",
"@. c #79706A",
"#. c #84745D",
"$. c #88765F",
"%. c #87795F",
"&. c #817463",
"*. c #867862",
"=. c #8C7A64",
"-. c #84746A",
";. c #8B7B6B",
":. c #917E67",
">. c #927E6C",
",. c #857771",
"<. c #8F7D76",
"1. c #988667",
"2. c #96826C",
"3. c #98856C",
"4. c #9D886D",
"5. c #928171",
"6. c #9A8572",
"7. c #9B8974",
"8. c #A38D74",
"9. c #A58F79",
"0. c #A69076",
"q. c #AB9276",
"w. c #AC957B",
"e. c #AD987A",
"r. c #B19779",
"t. c #B59C7E",
"y. c #BEA17F",
"u. c #B89C83",
"i. c #BDA384",
"p. c #C2A785",
"a. c #C9AC89",
/* pixels */
"< 2 = # o X # o & # 7 3 7 p = # 6 5 3 2 * < 2 < & 2 2 2 O , < , 1 2 2 < < < < , < , = * < * & % X X o # * * # * & # % # o % & = ",
"# 7 1 X   X X X X & 2 7 3 7 O < 6 6 3 < = 2 2 = = 6 2 1 X @ 1 2 2 < < < < < < < < * < * & % X X X # # % * % # & * % % % # * = % ",
"& 6 6 2 #       X X 1 7 p = O 3 6 6 = = 2 < < < < 3 2 2 & & 2 2 < 2 < < < < < , , = = , & X o X X # & = * # % # % # % * = & % % ",
"p 6 6 7 %   X X # < 6 7 3 X = 7 6 > = < = = 2 < < 3 6 2 2 < < < 2 2 < < 1 < < < < < , = < % X X # * % = % # # * # # % * % % o % ",
"6 7 3 7 % , X X 1 p 7 6 X # p 7 2 * < < , < 3 2 2 3 2 2 2 2 2 2 2 < < < < < < , , < * * , , = = < * * # X & & % % * = # % o # % ",
"& 7 7 7 p 7 # & 2 2 = . & 7 3 2 * < 6 * , < 2 3 6 2 3 2 < 2 2 < 2 < 2 < < < < < < = = < = O O & < & # X & # , & % % * % # # % % ",
"# 6 7 7 7 3 2 O # o # 1 7 1 < , 1 < < * < = 1 i 1 2 3 1 2 1 2 2 2 < < < < < < , < * , , , & X & & X X # O & , * & = % % # # # % ",
"= = 7 6 7 7 7 7 2 2 2 2 < < = 3 2 < < % 1 < 3 3 6 2 3 2 2 2 2 2 2 2 2 < < , < < < * < = = = X   X # % O & * * , , * % # # o % = ",
"6 % p 7 7 7 7 7 7 6 * 2 < 1 6 < < 2 < = < < 3 3 2 2 i 2 2 < 2 2 2 < < < < < < , , , , & O & O & # # O # & , * , * % = & # # * * ",
"6 < 3 7 7 7 7 2 < 6 < = % & < < 2 7 < < = 6 3 3 2 2 2 2 2 2 < < 2 < < < < < , < & & < &   X X X X O % % , % , * * # # % O % = * ",
"7 6 6 7 2 < 2 < < < 1 2 < = < 6 7 3 2 < < 6 1 3 2 4 4 2 2 2 < 2 2 2 < < 2 < , < & O , , & O X X # # % , * * * * % % # o % * % = ",
"7 6 7 7 % 1 2 2 = 2 = = < 1 6 6 7 2 6 2 6 6 7 2 2 i 2 2 2 2 2 2 2 2 < < , 2 , , & X X O O O O & & , , * * * * * % # # # % , * % ",
"7 3 7 7 3 < < < = * < < 6 6 6 7 3 3 3 7 3 3 3 3 2 3 2 2 2 < 2 < 2 < < < < < < < < , * * & * * , , , * * * , % * * * & * * * * * ",
"7 7 7 7 7 7 6 3 6 7 7 7 6 6 7 7 3 3 3 3 3 3 3 i 2 i 2 2 2 2 2 2 2 < < < 1 < , < < , , , , * * * = * * * * * , * * * , : * * < & ",
"7 7 7 3 3 7 7 7 7 7 7 7 7 7 7 7 3 3 3 3 3 3 3 2 3 2 2 2 1 2 1 2 2 < < < < < < < < , , - * , * , * = , * * * , % * * * * * * % * ",
"3 7 7 7 7 7 7 7 3 7 7 7 7 7 7 6 3 3 3 3 3 3 3 i 2 i 4 3 2 2 2 2 < 2 2 < < < < < , , , , * * * - , , * * * * * * * * * * * * * * ",
"7 7 7 3 7 7 7 3 p 7 7 7 7 6 6 6 3 3 i 6 3 6 7 3 3 3 2 2 < 2 < 2 2 < < < < < < < < < < * < * * * * * = * * * * * * * * * * , * * ",
"7 7 p 3 7 7 6 p 3 6 3 7 7 7 6 i 3 3 7 6 2 > > 3 3 p q 3 1 3 6 2 2 < 2 1 < < < , , * = * * = , , = , , * * * * * * * * * * % , % ",
"7 7 7 7 7 7 7 3 7 7 6 7 3 3 3 i p > 2 i s x J { O.O.O.o.| Q J v v d 7 , , < < < < * = < = = * * * , * * * , * * * * , * * * * * ",
"7 3 7 7 3 7 7 7 7 7 7 6 p 7 p 2 < h J W W W W Y I I Y W I ( Q { / I H x q < < < < < < % : % , * , * * * * * * * * * % , * * % * ",
"7 3 p 3 p 3 7 7 p 6 6 6 p 2 < v { W K J v x s 7 2 2 < : : : < q j h J I P x < , , % = 8 8 1 % % , * * * * * * * * * * * * % , % ",
"7 7 6 7 6 7 7 7 6 6 i 6 2 a ! { H M z a 3 3 2 3 2 3 2 3 2 2 2 < : > 1 f l R C 1 * v P I I P M 8 % , * * * * * * * * * , * , * * ",
"7 7 7 7 3 7 6 7 i 6 i i h { L v c a 2 2 6 7 3 3 2 3 3 3 3 4 3 2 2 2 2 : , j Q R T I l e w y N / b = , * * * * , , * * * * * , * ",
"3 7 6 7 7 7 p 3 i p > c W M J d 2 3 7 3 3 3 3 3 3 2 2 2 J n s , 2 < 2 < < * q ( T e % , % : & q / P * * * @ @ @ @ % & * * * @ * ",
"p 3 7 7 7 3 7 3 6 2 h L c J 7 3 p 3 3 6 3 6 6 3 2 2 h 5 J J z d 3 < 2 < < , 4 K Q k % < = = * % - S l @ - 9 k b r 4 < & * & z 1 ",
"6 7 7 7 7 7 p p 2 a W g H p 7 7 6 3 6 3 3 3 3 1 6 s v v j 3 v V q < 2 < < : v P Q Q * , < % * < % 5 U C K R U P C C b N l f e * ",
"7 3 7 3 p 6 6 p 2 W v H 7 p 7 3 3 6 3 3 2 6 < g v z H V 3 : m n v e < 2 < : n I l ..5 * = < % , * % R ( b 9 , @ @ * 1 8 4 * @ , ",
"7 7 6 p 7 7 7 > c L H s 3 7 7 7 3 3 3 6 6 2 L ! | n Y c 2 < f K I ( > 2 < : e U k ( j * < & < % 1 n U I 9 + * * , * * @ % * = * ",
"7 7 7 7 7 3 i i J H c 2 p 6 7 6 6 3 3 3 2 W @.K H H z 1 2 2 < m z { 4 < < , < U S } y @ : & , e / S 1 P K * * , * , * * * * * * ",
"p 6 3 p 7 7 2 d M c p p 6 6 7 3 6 3 3 3 3 J <.J v z 3 2 3 < 2 d n x 2 < < 2 % x R  .l w e x S R k = @ n / , & * * % * * * * * * ",
"3 3 7 6 7 7 2 c H c 2 3 7 3 6 6 7 3 p 2 7 o.K J n 3 2 2 1 < 2 1 | P 2 < < - 2 + C  .P / U R S 8 @ , % e R 4 @ * * % * * * * * * ",
"7 7 7 7 7 p 2 H L c i i i p 3 2 2 > 2 s Q L K H a 2 2 2 2 2 2 < e { x , : : : 9 / n 8 f q 1 % % = = % 0 U 8 % , * , * * * * * * ",
"7 3 7 7 7 7 2 J K h 2 p 3 3 a v Y I } ,. .L v 2 < 7 s a 2 < 1 3 < f Q K x j C ( n = % % % % = * * * % e I 4 * * * * * % , * * * ",
"7 7 7 7 7 7 6 L H h 2 3 a c I W Q o.{ W m h > f K v V C J z : 2 2 2 q x n n n e 1 * < < < = * * , < % e C 1 % , * * * , * * * * ",
"7 7 7 3 7 3 7 H M h 2 s H c J / u.! > i 2 : J K v V n v x V J , : : ; + @ @ @ @ < < = , = : * * , , % k P - * * * * * % * * * * ",
"7 7 7 7 7 7 7 n H z 7 H J v Y ;.u.2 2 i 2 { V v v a 3 w v C l C U Q / I C b x w < * $ % = = = < = , % B b * * * * * * , * % * * ",
"3 3 7 6 7 p 2 c M c d H d K K 7.u.V 3 : v C z I V ( ;.6.t.9.V I u.r.a.y.p.i.-.r b U C e $ % * $ & , - n r * * * , % * * * , * * ",
"p 7 7 7 7 7 3 j M H h c s J Z ;.>.X.5...&.X.>.7.i.r.q.9.y.q.w.l &.e.2.q.u.l 1 q k k C Q U e 8 9 C 8 r C 1 & * * , * * * * * * * ",
"3 7 7 7 7 7 3 w l n z H s K K ! / ^ 9.4.9.q.8.6.8.>.e.2.3.2.e.) C 6.0.;.d 8 f s 8 w q 8 b C C B 8 1 R 0 * * * * % , * * * * * % ",
"7 6 p 3 7 7 7 6 c v z J j v Z w I ^ >.2.=.=.4.=.4.3.=.:.8.:.4.#.n &.~ 8 8 x n 9 : < & < , % % % % Z u * * * * * % * * * * * * * ",
"7 7 3 p 6 7 p 2 j c l Y J 5 T V K S =.=.=.=.*.=.=.=.3.=.#.=.4.3.R b e 3 q t 8 e w , < < = = % - U n * , * & , * , * * * * * * % ",
"7 7 7 7 7 3 p 2 w J z N K j l S D z =.#.&.#.:.*.%.%.%.%.1.*.X.U y b ~ U w = 5 5 t = % * & = 9 S b * * * , , , * * * * * * * * * ",
"3 7 3 7 6 6 6 p 6 V V l M j g V E 7 S ] =.%.$.#.%.%.#.[ _ Z r 8 e y b A ~ Z % 5 q 8 < 8 e b B 0 & < * * , * * * % * * * * * * * ",
"p 6 7 7 7 i 3 2 3 6 Z V l j g s ~ S e e l b C C V N g t 7 5 8 w d 8 d l u / k 1 8 y u N l y = % , - * 4 4 & * * , * % , * * * * ",
"7 7 7 7 p 3 a h w p s N Z l v k C ` E w 3 7 6 6 7 w 5 q 7 D I , e w 3 9 y N F < 8 y y e 1 % = 5 * & 9 f @ , & * * * * * * * * * ",
"7 6 6 3 7 p g l l j g s s M Z S D Z S d s w w q 7 7 7 7 < k [ k 5 w e 7 1 1 k k 1 u u e 0 u t - 4 b b & * , * * * * * * * * * % ",
"7 6 2 s g 7 7 q 7 7 p g j g e v 3 7 Z w g V V 7 2 2 2 5 7 2 b ' F b w 8 e < , b 8 1 b A N u u B B r * * : , * * * * * * * * * * ",
"6 3 l V g 2 7 6 p 7 7 6 w Z R N s < y D 7 l S Z V M j y 7 6 : 8 k F ' l e 8 < < N y 8 0 0 - 0 r - % * * * * * * * * * * * * * * ",
"3 p c d 7 3 p 6 7 7 6 i 3 w M Z K j 3 l j 7 g w w 7 7 6 2 2 < < 7 b N e j 8 < < = j N l r B B = , * * , * * % , * % * * * * * % ",
"p 3 6 2 3 p 6 6 7 3 6 i i 3 2 3 p s 7 6 M e 7 2 2 2 2 6 2 < s x b w 6 5 N N 1 * : % = 8 0 u D k * , * * * * * * * , , % , * * * ",
"i 7 6 7 7 7 p 7 7 7 3 7 6 6 p 2 3 2 2 i 3 j w 7 6 2 2 6 2 q j e 7 < 2 < 5 k l z e 7 5 1 = % % y r , * = * * * * * * * * * * * * ",
"7 7 7 7 6 7 3 7 7 7 p 3 7 6 p p p 7 3 6 2 3 a a 6 2 6 2 d j e q 2 1 2 < < : < 5 8 8 5 1 < , * % 1 8 4 - * * , * * * * * * * * * ",
"7 7 7 7 3 p 7 3 3 7 7 7 7 p 6 7 6 3 3 3 3 6 2 s w 3 2 2 d e 7 < < 2 2 < 2 < < , * , , * , * = < % % 9 8 * = * * * , * , * * * % ",
"3 7 6 7 6 7 6 p 7 p 3 6 7 3 7 3 p 3 6 3 p 2 q j h 5 2 6 2 < 2 1 2 2 2 < < < < < < < < < = = * * 8 n n r * * * * * % * % * * , * ",
"7 7 7 7 3 7 7 3 7 6 7 7 p 3 7 7 7 3 3 3 2 h V e j 7 6 1 2 2 2 2 2 2 2 < < < < < , < * < < * * = C A U 9 & , * * * % * * * * * * ",
"7 7 3 7 7 7 7 7 7 7 7 3 7 7 6 7 6 3 6 6 2 j v d 3 2 6 2 3 2 < 2 < 2 2 < < < < < < < < % * < * , , 9 1 * * * * * * , * , % * * * ",
"7 7 6 p 7 7 7 7 7 3 7 7 7 6 7 7 3 7 3 3 7 2 6 6 3 3 2 3 1 2 2 < 2 < 2 < < < < < < , < * = , * * , % * , , % * * * * * * * * % * ",
"7 3 7 3 7 7 p 7 7 p 7 7 7 7 3 7 7 7 3 6 7 3 6 2 3 2 3 < , 2 2 2 < 3 2 < < < < < , < , < = , * * * , = , , * , * , % , , * , * * ",
"7 7 7 7 7 7 3 & % 2 7 7 3 7 7 7 7 6 6 3 3 7 3 3 3 3 1 X X , 2 2 2 < 2 2 < < < < < , < < < < = = * , = & % & % & * % & @ & * * * ",
"p 3 7 6 7 7 6 # # 2 7 7 p 6 7 7 7 7 3 3 3 3 3 6 3 3 < O O & 3 < 2 2 2 < 2 < < < < < , , & # % * * & & O O O & % & & & O O @ O & ",
"6 7 7 6 7 1 * , & % 7 7 7 7 3 p 7 7 3 6 6 3 6 6 3 3 * X X & 3 2 < 2 2 2 < < < < < , * & & O O & & * = = , , * * * * * , , , * * ",
"7 3 3 p < # # 3 = % * 7 3 7 7 6 6 7 3 3 3 3 6 6 3 7 % & = # 2 2 2 < 2 < < < < < , 1 , , , , , * , , , * % * * * * * * , * * * * ",
"p 3 7 7 1 6 6 2 2 # X < i 7 3 7 7 7 3 6 3 6 5 % % & & * , # , 1 O % 2 < 2 < < < < , , , , = * , , * * , , * * * * * * * * * & O ",
"7 7 7 6 7 6 2 2 1 = % < p 7 7 7 7 6 3 3 3 6 = X o # = 2 1 * * , X O 2 2 < < < 1 < , < , - , = , * * , * % * * * * * * * * , O   "
};
