/* XPM */
static char *result[] = {
/* columns rows colors chars-per-pixel */
"64 64 74 1 ",
"  c #7BDB7D177DB6",
". c #964896B296EA",
"X c #9E4A9E4A9E4A",
"o c #BF33AE6B923B",
"O c #A980AB6CAC39",
"+ c #BDE3BA1DAE47",
"@ c #AB36AFEFB1E5",
"# c #AF8DB30CB4A0",
"$ c #B188B524B682",
"% c #BEDBBCD8B324",
"& c #B5B9B80AB90A",
"* c #B67FBAD7BC98",
"= c #BAF3BD51BE36",
"- c #C073B00993F9",
"; c #C0EEB0949527",
": c #C47AB5149B2B",
"> c #C77FB8DEA06D",
", c #CA79BCAAA52D",
"< c #CCBBBF7FA91B",
"1 c #CF2EC297AD0A",
"2 c #D0A8C476AF92",
"3 c #C305C121B78C",
"4 c #C5FBC55FBE11",
"5 c #D233C666B247",
"6 c #D479C943B63B",
"7 c #D75ACCE4BB07",
"8 c #D907CF03BDA8",
"9 c #DA18D053BFBC",
"0 c #9DF8B691CDC8",
"q c #A7E6BC18CF7E",
"w c #ABF7BDEFCEE8",
"e c #B9F3BF54C144",
"r c #B04CC019CF36",
"t c #BEB3C273C3D4",
"y c #B0D3C142D045",
"u c #AD8DC061D1F0",
"i c #B77FC585D260",
"p c #BAD0C684D119",
"a c #BBA8C995D52A",
"s c #C259C657C7C1",
"d c #C342C779C911",
"f c #C69ECB2DCCD2",
"g c #CA6DCD6DCE8F",
"h c #DC69D345C391",
"j c #DFB6D76EC94F",
"k c #C2DECD17D4D6",
"l c #CAA0CF8CD1C5",
"z c #C800D195D837",
"x c #CE04D2CDD4E4",
"c c #C616D15FD8DC",
"v c #CDDAD5A9DA1E",
"b c #D288D637D772",
"n c #D2C7D780D93F",
"m c #D3C3D9ECDC2B",
"M c #DA87DBCFDC78",
"N c #E065D849CA81",
"B c #E1E4DA2ECCFD",
"V c #E584DEBED344",
"C c #E859E251D7EE",
"Z c #E871E26FD83E",
"A c #EB15E5C4DCA6",
"S c #ED40E880E006",
"D c #D42BDBCFE14A",
"F c #DB97DFA0E154",
"G c #DCCCE175E365",
"H c #EE1BE992E1DA",
"J c #ECF6ECF6ECF6",
"K c #F15AEDAAE75A",
"L c #F313EFD6EA55",
"P c #F4D1F209ED42",
"I c #F767F54BF1A8",
"U c #F925F77DF4A8",
"Y c #FAFAF9CCF7C3",
"T c #FF78FF74FF6E",
/* pixels */
"x$*t*#$@pmmmmmmmmmmmmmmmnmnmmnmfxmnnnnnnnnnnnbnnbbbnbnbbn&#=$O k",
"bttftettfmmmmmmmmvmmmmmvmmmnnmmxxnnbnnnnbbbnnnnnnnnbbbbbndte<e.l",
"mFFmFGGGDmmDDmmmmmmmmmlm+nxxxblxdxfxnxbxgbfbnbnbbnbnbbvnbnMMMDFn",
"mcmavacavDmmmmmDmmmmmkl34xlxbxfxxxdxnfbxbbbbMbnnnnnnnnukMlilqlra",
"vkvazaccamvvmmmmmvmmvxn%mlxxxxlnfxfbbgnxxxbbxbbbbbbbbx0abkrkwkrk",
"GGFFFDFGGGGGGGGGGGGGGGGGGGGGGGGGGGGGGGFFFFMFGFFFFFGMFMvMMFmMnDnM",
"TTTTTTTTTTTTTTTTTTTTTTTTTTTTTTTTTTTTTTTTTTTTTTTTTTTTTTTTTTTTTTTT",
"TTTTTTTTTTTTTTTTTTTTTTTTTTTTTTTTTTTTTTTTTTTTTTTTTTTTTTTTTTTTTTTT",
"TTTTTTTTTTTTTTTTTTTTTTTTTTTTTTTTTTTTTTTTTTTTTTTTTTTTTTTTTTTTTTTT",
"TTTTTTTTTTTTTTTTTTTTTTTTTTTTTTTTTTTTTTTTTTTTTTTTTTTTTTTTTTTTTTTT",
"TTTTTTTTTTTTTTTTTTTTTTTTTTTTTTTTTTTTTTTTTTTTTTTTTTTTTTTTTTTTTTTT",
"TTTTTTTTTTTTTTTTTTTTTTTTTTTTTTTTTTTTTTTTTTTTTTTTTTTTTTTTTTTTTTTT",
"TTTTTTTTTTTTTTTTTTTTTTTTTTTTTTTTTTTTTTTTPTTTTTTTTTTTTTTTTTTTTTTT",
"TTTTTTTTTTTTTTTTTTTTTTTTTTTTTTTTTTTTTTTTBYTTTTTTTTTTTTTTTTTTTTTT",
"TTTTTTTTTTTTTTTTTTTTTTTTTh8TTTTTTTTTTTTThTTTTTTTTTTTTTTTTTTTTTTT",
"TTTTTTTTTTTTTTTTTTTTTTTTT-HTTTTTTTTTTTTY9TTTTTTTTTTTTTTTTTTTTTTT",
"TTTTTTTTTTTTTTTTTTTTTTTTT,YTTTTTTTTTTTTP7TTTTTTTTTTTTTTTTTTTTTTT",
"TTTTTTTTTTTTTTTTTTTTTTTTT:LTTTTTTTTTTTTL8TYTTTTTTTTTTTTTTTTTTTTT",
"TTTTTTTTTTTTTTTTTTTTTTTTT;BTTTTTTTTTTTTAhTTTTTTTTTTTTTTTTTTTTTTT",
"TTTTTTTTTTTTTTTTTTTTTTTTT,,TYTTTTTTTTTTC9TTTTTTTTTTTTTTTTTTTTTTT",
"TTTTTTTTTTTTTTTTTTTTTTTYT8:TTTTTTTTTTYTVBTTTTTTTTTTTTTTTTTTTTTTT",
"TTTTTTTTTTTTTTTTTTTTTTTTT81LTTTTTTTTTTTBhTTTTTTTTTTTTTTTTTTTTTTT",
"TTTTTTTTTTTTTTTTTTTTTTTTThhhTTTTTTTTTTTNBTTTTTTTTTTTTTTTTTTTTTTT",
"TTTTTTTTTTTTTTTTTTTTTTTTT6K5TTTTTTTTTTTNBTTTTTTTTTTTTTTTTTTTTTTT",
"TTTTTTTTTTTTTTTTTTTTTTTTY5T5ITTTTTTTTTTjBTTTTTTTTTTTTTTTTTTTTTTT",
"TTTTTTTTTTTTTTTTTTTTTTTTU5ThBTTTTTTTTTTBjTTTTTTTTTTTTTTTTTTTTTTT",
"TTTTTTTTTTTTTTTTTTTTTTTTK7TK6TYTTTTTTTTjBTTTTTTTTTTTTTTTTTTTTTTT",
"TTTTTTTTTTTTTTTTTTTTTTTTShTT1YTTTTTTTTTBjTTTTTTTTTTTTTTTTTTTTTTT",
"TTTTTTTTTTTTTTTTTTTTTTTTjBTT6VTTTTTTTTTBhTTTTTTTTTTTTTTTTTTTTTTT",
"TTTTTTTTTTTTTTTTTTTTTTTT8STTS7TTTTTTTTTVhTYTTTTTTTTTTTTTTTTTTTTT",
"TTTTTTTTTTTTTTTTTTTTTTTT5PTTY<TTTTTTTTTVhTTTTTTTTTTTTTTTTTTTTTTT",
"TTTTTTTTTTTTTTTTTTTTTTTT1TTTT5KTTTTTTTTZ7TTTTTTTTTTTTTTTTTTTTTTT",
"TTTTTTTTTTTTTTTTTTTTTTTP1TTYTNhTTTTTTYTS9TTTTTTTTTTTTTTTTTTTTTTT",
"TTTTTTTTTTTTTTTTTTTTTTTZ8TTTTP5TTTTTTTTA8TTTTTTTTTTTTTTTTTTTTTTT",
"TTTTTTTTTTTTTTTTTTTTTTThBTTTTT2YTTTTTTTH6TYTTTTTTTTTTTTTTTTTTTTT",
"TTTTTTTTTTTTTTTTTTTTTTT6HTTTTT6ZTTTTTTTH5TTTTTTTTTTTTTTTTTTTTTTT",
"TTTTTTTTTTTTTTTTTTTTTTT1YTTTTTV7TYTTTTTA6TTTTTTTTTTTTTTTTTTTTTTT",
"TTTTTTTTTTTTTTTTTTTTTTY2TTTTTTU<TTTTTTTA6TTTTTTTTTTTTTTTTTTTTTTT",
"TTTTTTTTTTTTTTTTTTTTTTL5TTTTTTT<PTTTTTTS7TTTTTTTTTTTTTTTTTTTTTTT",
"TTTTTTTTTTTTTTTTTTTTTTZ7TTTTTTTjhTTTTTTH7TTTTTTTTTTTTTTTTTTTTTTT",
"TTTTTTTTTTTTTTTTTTTTTTBVTTTTTTTU,TTTTTTA6TTTTTTTTTTTTTTTTTTTTTTT",
"TTTTTTTTTTTTTTTTTTTTYT7ATTTTTTTT1VTTTTTA7TTTTTTTTTTTTTTTTTTTTTTT",
"TTTTTTTTTTTTTTTTTTTTTT2KTTTTTTTTP;TTTTTZ7TTTTTTTTTTTTTTTTTTTTTTT",
"TTTTTTTTTTTTTTTTTTTTTT1YTTTTTTTYT<BTTTTZ7TYTTTTTTTTTTTTTTTTTTTTT",
"TTTTTTTTTTTTTTTTTTTTTT1TTTTTTTTTTI;TTTTVhTYTTTTTTTTTTTTTTTTTTTTT",
"TTTTTTTTTTTTTTTTTTTTTU1TTTTTTTTTTT6hTYTNBTTTTTTTTTTTTTTTTTTTTTTT",
"TTTTTTTTTTTTTTTTTTTTTP5TTTTTTTTTTTT-PTTjCTTTTTTTTTTTTTTTTTTTTTTT",
"TTTTTTTTTTTTTTTTTTTTTK2TTTTTTTTTTTTS:TT8STTTTTTTTTTTTTTTTTTTTTTT",
"TTTTTTTTTTTTTTTTTTTTTZ7TTTTTTTTTTTYT65T<PTTTTTTTTTTTTTTTTTTTTTTT",
"TTTTTTTTTTTTTTTTTTTTTZhTTTTTTTTTTTTTToH5ITTTTTTTTTTTTTTTTTTTTTTT",
"TTTTTTTTTTTTTTTTTTTTTZhTTTTTTTTTTTTTTI;<TTTTTTTTTTTTTTTTTTTTTTTT",
"TTTTTTTTTTTTTTTTTTTTTZhTYTTTTTTTTTTTTT65TTTTTTTTTTTTTTTTTTTTTTTT",
"TTTTTTTTTTTTTTTTTTTTTA8TTTTTTTTTTTTTTTTTTTTTTTTTTTTTTTTTTTTTTTTT",
"TTTTTTTTTTTTTTTTTTTTTU1YTTTTTTTTTTTTTTTTTTTTTTTTTTTTTTTTTTTTTTTT",
"TTTTTTTTTTTTTTTTTTTTTTYTTTTTTTTTTTTTTTTTTTTTTTTTTTTTTTTTTTTTTTTT",
"TTTTTTTTTTTTTTTTTTTTTTTTTTTTTTTTTTTTTTTTTTTTTTTTTTTTTTTTTTTTTTTT",
"TTTTTTTTTTTTTTTTTTTTTTTTTTTTTTTTTTTTTTTTTTTTTTTTTTTTTTTTTTTTTTTT",
"TTTTTTTTTTTTTTTTTTTTTTTTTTTTTTTTTTTTTTTTTTTTTTTTTTTTTTTTTTTTTTTT",
"TTTTTTTTTTTTTTTTTTTTTTTTTTTTTTTTTTTTTTTTTTTTTTTTTTTTTTTTTTTTTTTT",
"TTTTTTTTTTTTTTTTTTTTTTTTTTTTTTTTTTTTTTTTTTTTTTTTTTTTTTTTTTTTTTTT",
"TTTTTTTTTTTTTTTTTTTTTTTTTTTTTYTTTTTYTTTTTTTTTTTTTTTTTTTTTTTTTTTT",
"TTTTTTTTTTTTTTTTTTTTTTTTTTTTTTTTTTTTTTTTTTTTTTTTTTTTTTTTTTTTTTTT",
"TTTTTTTTTTTTTTTTTTTTTTTJbMMMMMMMMMMMMMMbJTTTTTTTTTTTTTTTTTTTTTTT",
"TTTTTTTTTTTTTTTTTTTTTTTg.XXXXX.XXXXXXXX.gTTTTTTTTTTTTTTTTTTTTTTT"
};
