/* XPM */
static char *result[] = {
/* columns rows colors chars-per-pixel */
"64 64 156 2 ",
"   c #010925",
".  c #090B27",
"X  c #070E2A",
"o  c #090E2A",
"O  c #06102C",
"+  c #0E132D",
"@  c #0F182F",
"#  c #11152E",
"$  c #13182F",
"%  c #191B2E",
"&  c #0E1533",
"*  c #0F1836",
"=  c #0F1938",
"-  c #121632",
";  c #191733",
":  c #141934",
">  c #1A1C34",
",  c #111739",
"<  c #161C3A",
"1  c #181F3C",
"2  c #221C36",
"3  c #251D39",
"4  c #2A1E3A",
"5  c #1E2135",
"6  c #17203D",
"7  c #19203D",
"8  c #222435",
"9  c #292736",
"0  c #272937",
"q  c #2C2A37",
"w  c #23243C",
"e  c #2A233C",
"r  c #25293D",
"t  c #2B2C3D",
"y  c #34243F",
"u  c #312F3D",
"i  c #2D3037",
"p  c #2E313E",
"a  c #33333E",
"s  c #39353D",
"d  c #3F403F",
"f  c #1A1F40",
"g  c #1D2341",
"h  c #242441",
"j  c #2B2342",
"k  c #252941",
"l  c #2B2D42",
"z  c #332542",
"x  c #3A2645",
"c  c #332C42",
"v  c #3E2846",
"b  c #2E3143",
"n  c #2E3248",
"m  c #333443",
"M  c #393642",
"N  c #3C3B44",
"B  c #353649",
"V  c #3B374B",
"C  c #363849",
"Z  c #3C3C4A",
"A  c #412646",
"S  c #423E44",
"D  c #423E49",
"F  c #3C404E",
"G  c #434145",
"H  c #4D4746",
"J  c #4B4846",
"K  c #44434B",
"L  c #4A454C",
"P  c #4E4B4B",
"I  c #534D4C",
"U  c #55504E",
"Y  c #5A544E",
"T  c #5E584E",
"R  c #454252",
"E  c #494451",
"W  c #4E4A52",
"Q  c #4D4758",
"!  c #534C53",
"~  c #534D58",
"^  c #565050",
"/  c #5C5453",
"(  c #5C5851",
")  c #56525B",
"_  c #5B5158",
"`  c #605757",
"'  c #625A53",
"]  c #61565A",
"[  c #645B5B",
"{  c #695F5B",
"}  c #6C625D",
"|  c #756957",
" . c #71655A",
".. c #73695B",
"X. c #796C5E",
"o. c #7E735A",
"O. c #6B6363",
"+. c #726562",
"@. c #736964",
"#. c #7E6F65",
"$. c #746768",
"%. c #776C69",
"&. c #7B6D6A",
"*. c #7E7160",
"=. c #7C7169",
"-. c #82755F",
";. c #83785D",
":. c #877966",
">. c #8D7B63",
",. c #83736C",
"<. c #89776E",
"1. c #8D7B6C",
"2. c #917E64",
"3. c #907D6C",
"4. c #837471",
"5. c #827870",
"6. c #8C7C72",
"7. c #937E72",
"8. c #90826C",
"9. c #9E8A6D",
"0. c #958373",
"q. c #9D8573",
"w. c #9F8E76",
"e. c #9B877C",
"r. c #9C8879",
"t. c #A38D6F",
"y. c #A48D73",
"u. c #A48D7A",
"i. c #AC8F7C",
"p. c #AB9475",
"a. c #A69078",
"s. c #AC937B",
"d. c #AF997B",
"f. c #B0967D",
"g. c #B69B7B",
"h. c #BBA27E",
"j. c #B19581",
"k. c #B59E81",
"l. c #B99E83",
"z. c #BEA282",
"x. c #BBA189",
"c. c #C6A786",
"v. c #C3A488",
"b. c #C4A889",
"n. c #CAAD8D",
"m. c #D0AF8B",
"M. c #CEB089",
"N. c #C3A991",
"B. c #CAB194",
"V. c #D1B194",
"C. c #DBB792",
"Z. c #DFBF9E",
"A. c #E1BC93",
"S. c #E1BC99",
"D. c #ECCA9C",
"F. c #F3CCA2",
/* pixels */
"1 h h j h f 1 1 h 1 7 7 7 6 1 g f j z 1 1 1 1 6 1 < < < < < ; < : 4 z > : > ; , : : $ e 4 2 2 # - # # # # # ; % % 2 4 2 % # 3 4 ",
"j h h 1 1 1 h h 1 1 7 7 6 7 g < h j z 1 f 1 < 1 < 6 6 1 < < < < < j j : : < : - - $ # e 4 > > $ # $ - # # ; ; 2 2 4 ; # # # 4 y ",
"1 1 1 1 1 1 h 1 f 6 7 1 7 6 < 1 z j w 6 1 1 1 1 7 1 < 1 < < < < < < ; : : : : - - : @ e e > # $ # $ # # 4 2 ; 2 # % ; # # # 4 y ",
"w f f 1 1 h h < 1 f 7 7 7 1 f g j 1 1 < 1 1 1 1 < < < 1 < < < ; < , < : : : < - - - $ ; 4 $ # # - # ; 2 4 ; # # $ # + # # # # y ",
"z f 1 1 f h j h < < 1 g 1 1 g f 1 7 1 7 6 < 7 > 7 < 6 1 < : < < : < : : : : : - : - - $ e % # # # # ; ; ; ; # # # # # # # # # 2 ",
"c 3 j h 1 h j h g g 1 1 g 1 1 1 7 6 < 7 7 7 6 6 6 6 < 1 < 1 < < < < < < : > : : : - - @ ; 2 # $ - # # # # # # # # # # # # # + # ",
"x x x 1 1 j h 1 1 g g 1 7 6 6 1 7 6 7 1 < 7 7 6 > 6 < < < < > ; < < : < : : : - : : - $ $ ; # # $ - # # # # # # + # # # # # # # ",
"x x x j 1 h f f 6 < 1 6 7 1 1 g 7 7 < 7 < 7 < 1 7 < 6 > < < < < < : : < : : < - : - - $ # > : # # # # # # # # # # # # # # # # # ",
"x z z x g = g < g < g < 6 g < 6 7 1 1 1 1 1 1 1 7 < < 1 < < < , < < < : : : : : - : $ $ $ # # - # $ # # # # # # # # # # # # # + ",
"z z h z g f < g g 6 6 < g < < g 7 6 6 1 1 6 6 1 7 1 < 1 1 < : < < ; ; < : > : : ; , - # - - $ # # # # # # # # # # # + # # # # # ",
"1 j 1 7 7 6 g < < 6 g g 6 6 6 g 7 7 7 1 1 1 1 7 1 < < 1 < : l < < : , , : : : - : - - - $ # # # $ # # # # # + # # # # # # + # # ",
"7 7 6 6 7 7 1 1 g < < 6 7 6 6 1 7 7 < 6 1 6 < 6 1 7 < : < R h ; : < < < : : : $ - : - $ # - $ - # - # # : $ + # + # # # # # # # ",
"7 7 1 7 g 1 1 1 7 1 7 6 7 g 1 1 7 7 6 7 < 7 7 6 7 , & C O.l : < 1 : ; , : : : : : : - $ $ $ # # $ - # # 2 $ # # # # # # # # # + ",
"7 7 1 7 1 6 6 g 7 7 7 7 7 1 7 6 7 7 7 < 7 7 < 7 & m O.@.k & < < < < < : , > : : : : - - - # $ # # # # $ 9 % # # # # + # # # # # ",
"7 7 g 1 1 1 g 1 7 7 f 6 1 g 7 g 7 < 1 1 6 1 6 * Q O.W > ; 1 < : : < : < : > - : : : # $ $ $ # - # # # 9 9 # # # # # # # # + # # ",
"6 7 7 1 g 1 1 7 7 6 6 6 1 1 1 1 7 1 1 1 1 7 = R [ Z l 1 1 : < < < < < : : : : , : : - $ - # # # # # > m 4 . # # # # # # # # # # ",
"7 7 6 g 1 g < g < 6 g < 6 g 6 g = g 1 < g 6 7 O.D ~ g < 1 < < < < < : < : : : : - : - $ $ $ - $ - # a M % # # # # # # + # # # # ",
"g 1 1 1 1 1 g < g 6 < g g < 6 f g < 1 1 < = B _ R Z , 1 1 , - , < : < : : : : : : : - - $ # # $ + m K 9 o # # # + # # # # # # # ",
"1 1 1 g < g < 6 g < 1 1 < < = n R = g 1 g < k O.V B h < : 1 m B 1 : < < : > : , : : - $ - # - + D S M 8 $ # # # # # # # # # # # ",
"1 g 6 1 6 6 < g < g 1 g g g * j.C = 1 1 f < & Z K [ %.4.4.&.~ w : < : : : : : - : : - - # $ . } _ M m > # # # # # # # # # + # # ",
"1 g 1 g g g < g 1 1 g 6 f , ) l.< 6 1 6 < g ) &.@.5.D [ Q 7 & ; < 1 : : : > : : : - $ - >   +.6.9 H u + # # # # # # # # # # # # ",
"1 1 1 6 < 6 6 6 1 g 1 1 1 1 N.u.& g 1 1 < k C $.0.~ r V t ; < < < : < < : : - - : - $ - X D B.q c L 8 # # # # # # # # # # # # # ",
"6 6 1 1 7 6 1 6 6 6 1 f , Z D.,.& 7 1 1 6 < = , k Z 7 , w B 1 < < : : : : > m - : : 5 @   l.<.: D M $ # # # # # # # # # # # o # ",
"1 g g 1 7 7 7 6 1 1 g g & ) F.4., 7 6 1 6 7 7 6 w m F k 7 B n : < < < < , > O.- # 5 5 O c D.s 8 D 9 # # # # # # # # # # # # # # ",
"1 1 1 6 1 1 g 6 g g f 1 6 { F.6.< 7 7 7 < 7 6 7 < < 7 > 1 B l : < < : < + c =.+ : 1 8   +.V.5 q M $ # 2 # # # + # # # # # # + # ",
"1 g < g 1 g 1 1 < 6 7 = Z j.Z.i.7 1 1 1 7 6 1 6 < 7 & 1 7 m w : < : : 6 O ! q.t + w 2   <.l.> u M 8 q % + # # # # # # + # # # # ",
"< g 6 g 6 6 1 1 1 g g , l n.C.l.C g < 6 6 > 7 7 7 1 K D r B > < < < ; > > 3.l.m + 8 8   ,.s.# t s t % + # # # # + # # # # # # # ",
"g 1 1 1 1 1 g 1 1 1 6 f r f.A.x.K Z h 1 6 7 7 7 h : r.=.1 1 : : > < , 6 ! v.f.D + > r   [ 0.# q c $ + # # # # # # # # # # + # # ",
"< g < g 6 6 6 g 6 6 g = ~ v.m.s.l F 7 6 < 7 l 7 7 5.6.B ; < < < < , : q u.c.l.! . 1 q o M #.: t q - # # # # + # # # # + # # # + ",
"6 < g 6 6 1 1 1 1 g 6 6 k d.m.i.@.Z k l 6 l 7 , +.r.1 < < < 1 5 < h q ,.c.g.n.S + > l + 8 [ 8 9 9 - # # # # # # # # # # # # # # ",
"g g < < 6 6 7 g 1 1 g , B j.c.y.C l Z b k 7 l l k.m & 1 > - Z Z C L L f.h.l.z.y & : c $ > P > 9 9 + # # # # # # # # # # # + # # ",
"< 6 6 g 7 7 7 1 1 g < 6 1 7.z.s._ O.l C g w 7 ! z.k < 1 1 , t l c 8 s y.g.g.q.: - : t > - S 8 l 8 # $ # # # # + # # # # # # # # ",
"6 f 1 g 1 1 6 6 7 7 7 7 < O.s.h.@.9 ~ l f l w ! z.L & 7 1 7 l t =.R S g.s.z.{ O : > t > : M 8 t > # # # # # # + # # # # # # # # ",
"6 6 1 1 1 g 6 1 7 7 7 7 7 7 1.p.a.L m 7 6 g w C d.y.m w B t S F t m X.s.y.y.9 # - 5 m % : s 8 0 $ $ # # # # # # # # # # # # + # ",
"6 7 1 1 g 1 g 1 7 6 7 7 7 7 } p.p.y.K 7 7 7 k 7 ..g.y.K r ! ( 0.L M p.t.f.Y + < - r t - 0 N e q # # # # # # + # # # # + # # # # ",
"7 7 g 6 6 1 6 < 7 7 7 7 7 6 6 Z #.y.p.:.l < k 7 b K l D t K ! t J 8.9.p. .8 < & > m 9 > G M i a # $ # # # # # # # # # # # # # # ",
"1 7 7 6 g < g g 7 7 6 1 1 6 f = 5 } *.[ C < 7 0 b l l L } a 0 l M N ' ' 0 t 5 > m q 7 q I 9 a % # # # # # # # # # # # # # + # # ",
"7 7 1 g 6 1 < 6 7 7 7 7 g 1 1 g 1 < l b b b , 7 7 K t l K m b r : r m 8 m q t m q 8 0 J q t 8 # # - - # # # # # # # # # # # # # ",
"6 6 1 1 g 1 1 g g 1 7 7 g 1 7 7 6 g Z G m K K < 7 7 g 7 7 b 5 6 t K 9 < 8 q a q t t G q 8 t % # # $ # # # # # # # # # # # # # # ",
"g 1 1 g 1 6 1 1 1 7 7 7 1 7 7 7 7 7 m G Z 8 C F t 5 7 t 5 < U  .;.8.2.' l > 1 5 t s 8 5 t 5 $ - - # # # # # # # # # # o # # # # ",
"1 1 1 7 7 7 7 7 g < 6 6 g 1 7 6 7 1 m Z c 1 k 7 N ..P 7 l L p N G Y  .>.>.U 8 5 5 > q a 8 # # # ; # # # # # # # # # # # # # # # ",
"g 1 6 7 7 7 g 1 1 1 g < 6 1 1 7 g 1 m m 7 < L l t ;...5 0 L K < : : < q J X.| s $ 8 a r - # # # # # # # # # # # # # # o # # # # ",
"1 6 f 7 1 1 1 1 1 g g 1 6 6 7 7 1 6 k 7 6 < Z T 7 Y o.t r t U r m < , : & : s T Y d : + # - $ # # # # # # + # # # # # # # # # # ",
"1 6 6 7 g 1 g 6 6 1 1 1 6 f 7 7 6 6 7 7 < 7 7 ( N t | N 7 < N i M s & l q 8 : 6 s T P 8 + + # $ # # + + # # # # # # # # # # # # ",
"7 6 6 6 1 g < 6 7 7 7 g 7 7 7 7 6 g 7 < 6 r 7 t P 7 d U r w t G 5 ' 8 0 a 5 5 8 : 5 s P d q % $ # % 9 9 # # # # # # # # # # # # ",
"7 6 f 1 1 6 1 g 6 7 7 1 7 7 7 7 1 w 7 6 1 7 B r p F 8 N M t , M q F T 6 l 0 > : $ : > 5 s s d G S S i % # # # # # + # # # # + # ",
"7 1 g 1 6 1 1 6 7 7 6 7 7 6 7 6 g k < 7 1 l Z 8 , a P 8 r m r 1 i 0 G G 7 5 : : : : $ : : $ > $ # # + # # # # # # # # # # # # # ",
"7 7 6 < g 1 g 1 7 7 7 7 7 7 7 7 g 1 1 1 < C p < 6 = l G p m t r : 6 8 s 0 t 8 7 > $ - - $ $ # # # $ # # + # # + # # # # + # # # ",
"7 6 7 1 1 1 g 6 g 1 g < 6 6 g < 1 6 1 1 7 k < < 6 6 - 8 t a b t r 5 5 r 5 r t 0 5 : $ $ : # $ # # # # # # # # # + # # # # # # # ",
"7 7 1 g 1 g 1 1 1 1 < g g < 6 g 6 7 1 1 7 7 6 6 7 < 7 , N k : 1 7 < - 7 t r i t 0 0 8 5 $ # - # $ # # # # # # # # # # # # # # + ",
"g 1 1 g 1 6 7 7 g < 6 6 6 7 6 1 7 7 7 1 1 1 < 1 6 > 6 7 J < : < < < & s G : 6 % - - : $ # $ # - # - $ # # + # # # # # # # # # # ",
"1 6 1 1 1 g 1 6 < g g < g 7 6 6 7 7 < 6 1 7 7 6 6 6 , p G : < < < < - G 8 - : - < - - $ - # # $ # # # # # # # # # # # + # # # # ",
"1 6 < 6 g < 7 7 6 6 6 6 1 g 1 1 7 7 < 7 < 7 7 6 1 1 * G J * < : < , 8 ( 8 , : : - : $ $ $ # # # $ - # # # # # + # # # # # # # # ",
"1 g g 6 g 6 6 6 f 6 6 g 1 1 g 6 7 7 7 < 7 7 < 6 7 < , ( Z : < < < # K q # < : : - : - $ - # # - # # - # # # # # + # # # # + # # ",
"1 < g < < < g 1 1 6 g = < g 1 1 7 7 < 7 6 < 6 > 1 < t W & < : > , 5 K @ : : < - : : - - - $ $ # # # $ # # # # # # # # # # # # # ",
"1 g < g g 6 6 6 1 7 g = g < g 1 7 6 7 1 6 7 7 7 7 = b r , 1 : < & Z s & % : : $ : - * $ - # # - - # # # # # # # # # # # + # # # ",
"6 6 g 1 1 1 7 1 g 1 g j h 1 1 7 7 1 1 1 1 1 1 : < 1 ( B 7 < w 9 7 ' : & : : : : : : # $ $ # # # # # # # + # # # # # # # # + # # ",
"g 1 1 1 6 g 7 7 1 1 x x A j 1 7 6 6 1 6 1 f 1 C B K / m B * Q } ` ^ Z p : : : : : - - - - # # - # # # # # # # # # # # # # # # # ",
"1 1 g 1 7 1 7 6 1 j x x x x 7 f 1 6 6 1 1 6 5 W L b < , < : 1 8 < 5 m m : < : : : : - - $ + - $ ; # # # # # + # # + # # + # # # ",
"g 1 6 1 1 g 1 1 h x j x j x z 1 g 1 1 1 6 , n R 5 < < 1 > < , ; < , & $ , : : - : - - - $ $ $ # # # # # # # # # # # # # # # # # ",
"1 g < 6 1 1 g g x x z z z z x h 1 1 1 1 < < < < 1 1 < 1 < < > < : < > < : > : - ; : - 3 3 # # # # # # # + # # # # # # # # # # # ",
"1 6 < g 1 f < j A z z z w j e z 7 6 6 1 6 6 6 6 1 1 < 1 < > < < < < : , : : : $ > > ; j 2 $ - - ; # # # # # # # # # # # # # + # ",
"g 1 6 g f 1 j z z z h 1 6 f j x j 1 7 < 7 7 < 6 1 < 1 1 < < < : : 1 < < : > : : z 4 - ; > ; ; ; % $ # # # # # # # # + # # # # # ",
"1 6 1 1 f 3 v z h h h j z 3 1 j x 1 6 7 7 < 1 1 1 < 1 < < < < < < : : : : : : - 3 3 > > > > ; # # # # # # # # # # + 2 2 . # # # "
};
