/* XPM */
static char *result[] = {
/* columns rows colors chars-per-pixel */
"64 64 95 2 ",
"   c #7BDB7D177DB6",
".  c #677F4F6AAB69",
"X  c #6C3354EAADFB",
"o  c #73295CF7B1D8",
"O  c #775761C9B424",
"+  c #7AC565C2B613",
"@  c #7D8368E8B795",
"#  c #7EDB6A80B857",
"$  c #82316E51BA31",
"%  c #85DA72A0BC24",
"&  c #896576B0BE22",
"*  c #8B3978E4BF21",
"=  c #8F377D81C14A",
"-  c #90ED7F6BC24C",
";  c #964896B296EA",
":  c #9E4A9E4A9E4A",
">  c #A980AB6CAC39",
",  c #BDE3BA1DAE47",
"<  c #AB36AFEFB1E5",
"1  c #AF8DB30CB4A0",
"2  c #B188B524B682",
"3  c #BEDBBCD8B324",
"4  c #B5B9B80AB90A",
"5  c #B67FBAD7BC98",
"6  c #BAF3BD51BE36",
"7  c #C305C121B78C",
"8  c #C5FBC55FBE11",
"9  c #93C382C2C3D3",
"0  c #99F589EDC741",
"q  c #9E5A8EFDC9B3",
"w  c #9F659033CA4F",
"e  c #A2A993F9CC18",
"r  c #A73B9944CEA0",
"t  c #A9309B8CCFB7",
"y  c #AC109EE0D14B",
"u  c #9DF8B691CDC8",
"i  c #A7E6BC18CF7E",
"p  c #ABF7BDEFCEE8",
"a  c #B9F3BF54C144",
"s  c #B04CC019CF36",
"d  c #AEEEA228D2F0",
"f  c #B2EFA6D6D516",
"g  c #B694AB11D716",
"h  c #BD2CB2BBDAB2",
"j  c #C12CB756DCF9",
"k  c #C4AABB64DEDE",
"l  c #C781BEA4E081",
"z  c #C897BFE4E118",
"x  c #BEB3C273C3D4",
"c  c #B0D3C142D045",
"v  c #AD8DC061D1F0",
"b  c #B77FC585D260",
"n  c #BAD0C684D119",
"m  c #BBA8C995D52A",
"M  c #C259C657C7C1",
"N  c #C342C779C911",
"B  c #C69ECB2DCCD2",
"V  c #CA6DCD6DCE8F",
"C  c #C2DECD17D4D6",
"Z  c #CAA0CF8CD1C5",
"A  c #C800D195D837",
"S  c #CE04D2CDD4E4",
"D  c #C616D15FD8DC",
"F  c #CDDAD5A9DA1E",
"G  c #D288D637D772",
"H  c #D2C7D780D93F",
"J  c #D3C3D9ECDC2B",
"K  c #DA66DBA9DC65",
"L  c #CCBAC4B6E35B",
"P  c #CFCCC84EE4FD",
"I  c #D444CD80E769",
"U  c #D678CFFAE8C4",
"Y  c #CBDCDC15EC9A",
"T  c #D42BDBCFE14A",
"R  c #DB97DFA0E154",
"E  c #DA46D467EAD5",
"W  c #DEE1D9C3ED5D",
"Q  c #E24FDDB8EF46",
"!  c #E476E034F07F",
"~  c #DCCCE175E365",
"^  c #DE21E397E91D",
"/  c #E366E5CCE80C",
"(  c #E632E7C2E93A",
")  c #E7C2E8E5E9C9",
"_  c #EB8BEB92EBAC",
"`  c #E79EE3D9F244",
"'  c #E997E633F331",
"]  c #E757EC94F176",
"[  c #ED25EBD3F4F9",
"{  c #F0F6EEACF76C",
"}  c #EE35F1F3F575",
"|  c #F44BF414F4B8",
" . c #F9C4F8A4F781",
".. c #F560F453F9C9",
"X. c #FF68FF64FF74",
/* pixels */
"S 2 5 x 5 1 2 < n J J J J J J J J J J J J J J J J H J H J G J Z Z J H H H H H H H H H H G H H H G G G H G G G G J 5 < 3 2 >   Z ",
"G x x B x a x x B J J J J J J J J J J J J J J F J J J J G J J S S J H H H H H H H G H H H H H H H H H G G G G G H N 7 j x 4 ; S ",
"J R R J R ~ ~ ~ T J J T T J J J J J J J J F A J , H S S S G S S N S B S H S G S V G V G K G H H H H G G G G S F G H K J K K R G ",
"J D J m F m D m F T J J J J J T J J J J J B Z 7 8 S Z S G S B S Z G N Z H B G S S G G H G G H H H H H H G G v C K Z b Z i Z c m ",
"F C F m A m D D m J J J J J J F J J F J G Z F 3 J B S F S S Z F Z S V G G Z G S S S G G S G G G G G G G G S u m G C b C p C n n ",
"~ ~ R R R T R ~ ~ ~ ~ ~ ~ ~ ~ ~ ~ ~ ~ ~ ~ ^ R R ~ ~ R R ~ ~ R R ~ R ~ R ~ ~ K ~ ~ R K K ~ R R R K R ~ K ~ K J K R K J K J H J K ",
"X.X.X.X.X.X.X.X.X.X.X.X.X.X.X.X.X.X.X.X.X.X.X.X.X.X.X.X.X.X.X.X.X.X.X.X.X.X.X.X.X.X.X.X.X.X.X.X.X.X.X.X.X.X.X.X.X.X.X.X.X.X.X.X.",
"X.X.X.X.X.X.X.X.X.X.X.X.X.X.X.X.X.X.X.X.X.X.X.X.X.X.X.X.X.X.X. .X.X.X.X.X.X.X.X.X.X.X.X.X.X.X.X.X.X.X.X.X.X.X.X.X.X.X.X.X.X.X.X.",
"X.X.X.X.X.X.X.X.X.X.X.X.X.X.X.X.X.X.X.X.X.X.X.X.X.X.X.X.X.X.X.X.X.X.X.X.X.X.X.X.X.X.X.X.X.X.X.X.X.X.X.X.X.X.X.X.X.X.X.X.X.X.X.X.",
"X.X.X.X.X.X.X.X.X.X.X.X.X.X.X.X.X.X.X.X.X.X.X.X. .g 9 = - 9 q r g L ` X.X.X.X.X.X.X.X.X.X.X.X.X.X.X.X.X.X.X.X.X.X.X.X.X.X.X.X.X.",
"X.X.X.X.X.X.X.X.X.X.X.X.X.X.X.X.X.X.X.X.X.X.X.z o 9 h P I P h f r 0 % % L X.X.X.X.X.X.X.X.X.X.X.X.X.X.X.X.X.X.X.X.X.X.X.X.X.X.X.",
"X.X.X.X.X.X.X.X.X.X.X.X.X.X.X.X.X.X.X.X.X.X.y o ! X.X.X.X.X.X.X.X.X.X.' - k X.X.X.X.X.X.X.X.X.X.X.X.X.X.X.X.X.X.X.X.X.X.X.X.X.X.",
"X.X.X.X.X.X.X.X.X.X.X.X.X.X.X.X.X.X.X. .X.y O X.X.X.X. .X.X.X.X.X.X.X.X.X.9 h X.X.X.X.X.X.X.X.X.X.X.X.X.X.X.X.X.X.X.X.X.X.X.X.X.",
"X.X.X.X.X.X.X.X.X.X.X.X.X.X.X.X.X.X.X.X.k o X.X.X.X.X.X.X.X.X.X.X.X.X.X.X.X.h ..X.X.X.X.X.X.X.X.X.X.X.X.X.X.X.X.X.X.X.X.X.X.X.X.",
"X.X.X.X.X.X.X.X.X.X.X.X.X.X.X.X.X.X.X.[ o [ X.X.X.X.X.X.X.X.X.X.X.X.X.X.X.X.X.X.X.X.X.X.X.X.X.X.X.X.X.X.X.X.X.X.X.X.X.X.X.X.X.X.",
"X.X.X.X.X.X.X.X.X.X.X.X.X.X.X.X.X.X.X.q L X.X.X.X.X.X.X.X.X.X.X.X.X.X.X.X.X.X.X.X.X.X.X.X.X.X.X.X.X.X.X.X.X.X.X.X.X.X.X.X.X.X.X.",
"X.X.X.X.X.X.X.X.X.X.X.X.X.X.X.X.X.X.[ * X.X.X.X.X.X.X.X.X.X.X.X.X.X.X.X.X.X.X.X.X.X.X.X.X.X.X.X.X.X.X.X.X.X.X.X.X.X.X.X.X.X.X.X.",
"X.X.X.X.X.X.X.X.X.X.X.X.X.X.X.X.X.X.g f X.X.X.X.X.X.X.X.X.X.X.X.X.X.X.X.X.X.X.X.X.X.X.X.X.X.X.X.X.X.X.X.X.X.X.X.X.X.X.X.X.X.X.X.",
"X.X.X.X.X.X.X.X.X.X.X.X.X.X.X.X.X.X.9 ` X.X.X.X.X.X.X.X.X.X.X.X.X.X.X.X.X.X.X.X.X.X.X.X.X.X.X.X.X.X.X.X.X.X.X.X.X.X.X.X.X.X.X.X.",
"X.X.X.X.X.X.X.X.X.X.X.X.X.X.X.X.X.' 9 X.X.X.X.X.X.X.X.X.X.X.X.X.X.X.X.X.X.X.X.X.X.X.X.X.X.X.X.X.X.X.X.X.X.X.X.X.X.X.X.X.X.X.X.X.",
"X.X.X.X.X.X.X.X.X.X.X.X.X.X.X.X.X.U y X.X.X.X.X.X.X.X.X.X.X.X.X.X.X.X.X.X.X.X.X.X.X.X.X.X.X.X.X.X.X.X.X.X.X.X.X.X.X.X.X.X.X.X.X.",
"X.X.X.X.X.X.X.X.X.X.X.X.X.X.X.X.X.j g X. .X.X.X.X.X.X.X.X.X.X.X.X.X.X.X.X.X.X.X.X.X.X.X.X.X.X.X.X.X.X.X.X.X.X.X.X.X.X.X.X.X.X.X.",
"X.X.X.X.X.X.X.X.X.X.X.X.X.X.X.X.X.k h X.X.X.X.X.X.X.X.X.X.X.X.X.X.X.X.X.X.X.X.X.X.X.X.X.X.X.X.X.X.X.X.X.X.X.X.X.X.X.X.X.X.X.X.X.",
"X.X.X.X.X.X.X.X.X.X.X.X.X.X.X.X.X.k h X.X.X.X.X.X.X.X.X.X.X.X.X.X.X.X.X.X.X.X.X.X.X.X.X.X.X.X.X.X.X.X.X.X.X.X.X.X.X.X.X.X.X.X.X.",
"X.X.X.X.X.X.X.X.X.X.X.X.X.X.X.X.X.U g X. .X.X.X.X.X.X.X.X.X.X.X.X.X.X.X.X.X.X.X.X.X.X.X.X.X.X.X.X.X.X.X.X.X.X.X.X.X.X.X.X.X.X.X.",
"X.X.X.X.X.X.X.X.X.X.X.X.X.X.X.X.X...9 X.X.X.X.X.X.X.X.X.X.X.X.X.X.X.X.X.X.X.X.X.X.X.X.X.X.X.X.X.X.X.X.X.X.X.X.X.X.X.X.X.X.X.X.X.",
"X.X.X.X.X.X.X.X.X.X.X.X.X.X.X.X.X.X.f y X.X. .X.X.X.X.X.X.X.X.X.X.X.X.X.X.X.X.X.X.X.X.X.X.X.X.X.X.X.X.X.X.X.X.X.X.X.X.X.X.X.X.X.",
"X.X.X.X.X.X.X.X.X.X.X.X.X.X.X.X.X.X.X.- 0 ..X.X.X.X.X.X.X.X.X.X.X.X.X.X.X.X.X.X.X.X.X.X.X.X.X.X.X.X.X.X.X.X.X.X.X.X.X.X.X.X.X.X.",
"X.X.X.X.X.X.X.X.X.X.X.X.X.X.X.X.X.X.X.X.g o - l [ X.X.X.X.X.X.X.X.X.X.X.X.X.X.X.X.X.X.X.X.X.X.X.X.X.X.X.X.X.X.X.X.X.X.X.X.X.X.X.",
"X.X.X.X.X.X.X.X.X.X.X.X.X.X.X.X.X.X.X.X.X.X.h = O $ g ` X.X.X.X.X.X.X.X.X.X.X.X.X.X.X.X.X.X.X.X.X.X.X.X.X.X.X.X.X.X.X.X.X.X.X.X.",
"X.X.X.X.X.X.X.X.X.X.X.X.X.X.X.X.X.X.X.X.X.X.X.X.X.z 9 O $ y ! X.X.X.X.X.X.X.X.X.X.X.X.X.X.X.X.X.X.X.X.X.X.X.X.X.X.X.X.X.X.X.X.X.",
"X.X.X.X.X.X.X.X.X.X.X.X.X.X.X.X.X.X.X.X.X.X. .X.X.X.X.X.U e o % U X.X.X.X.X.X.X.X.X.X.X.X.X.X.X.X.X.X.X.X.X.X.X.X.X.X.X.X.X.X.X.",
"X.X.X.X.X.X.X.X.X.X.X.X.X.X.X.X.X.X.X.X.X.X.X.X.X.X.X.X.X.X.X.l + * ..X.X.X.X.X.X.X.X.X.X.X.X.X.X.X.X.X.X.X.X.X.X.X.X.X.X.X.X.X.",
"X.X.X.X.X.X.X.X.X.X.X.X.X.X.X.X.X.X.X.X.X.X.X.X.X.X.X.X.X.X.X.X.X.h o h X.X.X.X.X.X.X.X.X.X.X.X.X.X.X.X.X.X.X.X.X.X.X.X.X.X.X.X.",
"X.X.X.X.X.X.X.X.X.X.X.X.X.X.X.X.X.X.X.X.X.X.X.X.X.X.X.X.X.X.X.X.X.X...$ r X.X.X.X.X.X.X.X.X.X.X.X.X.X.X.X.X.X.X.X.X.X.X.X.X.X.X.",
"X.X.X.X.X.X.X.X.X.X.X.X.X.X.X.X.X.X.X.X.X.X.X.X.X.X.X.X.X.X.X.X.X. .X.X.- y X. .X.X.X.X.X.X.X.X.X.X.X.X.X.X.X.X.X.X.X.X.X.X.X.X.",
"X.X.X.X.X.X.X.X.X.X.X.X.X.X.X.X.X.X.X.X.X.X.X.X.X.X.X.X.X.X.X.X.X.X.X.X.X.= z X.X.X.X.X.X.X.X.X.X.X.X.X.X.X.X.X.X.X.X.X.X.X.X.X.",
"X.X.X.X.X.X.X.X.X.X.X.X.X.X.X.X.X.X.X.X.X.X.X.X.X.X.X.X.X.X.X.X.X.X.X.X.X.X.% ..X.X.X.X.X.X.X.X.X.X.X.X.X.X.X.X.X.X.X.X.X.X.X.X.",
"X.X.X.X.X.X.X.X.X.X.X.X.X.X.X.X.X.X.X.X.X.X.X.X.X.X.X.X.X.X.X.X.X.X.X.X.X.X.L e X.X.X.X.X.X.X.X.X.X.X.X.X.X.X.X.X.X.X.X.X.X.X.X.",
"X.X.X.X.X.X.X.X.X.X.X.X.X.X.X.X.X.X.X.X.X.X.X.X.X.X.X.X.X.X.X.X.X.X.X.X.X.X.X.- Q X.X.X.X.X.X.X.X.X.X.X.X.X.X.X.X.X.X.X.X.X.X.X.",
"X.X.X.X.X.X.X.X.X.X.X.X.X.X.X.X.X.X.X.X.X.X.X.X.X.X.X.X.X.X.X.X.X.X.X.X.X. .X.U q X.X.X.X.X.X.X.X.X.X.X.X.X.X.X.X.X.X.X.X.X.X.X.",
"X.X.X.X.X.X.X.X.X.X.X.X.X.X.X.X.X.X.X.X.X.X.X.X.X.X.X.X.X.X.X.X.X.X.X.X.X.X.X.X.q ..X.X.X.X.X.X.X.X.X.X.X.X.X.X.X.X.X.X.X.X.X.X.",
"X.X.X.X.X.X.X.X.X.X.X.X.X.X.X.X.X.X.X.X.X.X.X.X.X.X.X.X.X.X.X.X.X.X.X.X.X.X.X.X.g L X.X.X.X.X.X.X.X.X.X.X.X.X.X.X.X.X.X.X.X.X.X.",
"X.X.X.X.X.X.X.X.X.X.X.X.X.X.X.X.X.X.X.X.X.X.X.X.X.X.X.X.X.X.X.X.X.X.X.X.X.X.X.X.L y X.X.X.X.X.X.X.X.X.X.X.X.X.X.X.X.X.X.X.X.X.X.",
"X.X.X.X.X.X.X.X.X.X.X.X.X.X.X.X.X.X.X.X.X.X.X.X.X.X.X.X.X.X.X.X.X.X.X.X.X.X.X.X.E r X. .X.X.X.X.X.X.X.X.X.X.X.X.X.X.X.X.X.X.X.X.",
"X.X.X.X.X.X.X.X.X.X.X.X.X.X.X.X.X.X...X.X.X.X.X.X.X.X.X.X.X.X.X.X.X.X.X.X.X.X.X.E w X.X.X.X.X.X.X.X.X.X.X.X.X.X.X.X.X.X.X.X.X.X.",
"X.X.X.X.X.X.X.X.X.X.X.X.X.X.X.X.X. .[ X.X.X.X.X.X.X.X.X.X.X.X.X.X.X.X.X.X.X.X.X.E d X.X.X.X.X.X.X.X.X.X.X.X.X.X.X.X.X.X.X.X.X.X.",
"X.X.X.X.X.X.X.X.X.X.X.X.X.X.X.X.X.X.' X.X.X.X.X.X.X.X.X.X.X.X.X.X.X.X.X.X.X.X.X.! r X.X.X.X.X.X.X.X.X.X.X.X.X.X.X.X.X.X.X.X.X.X.",
"X.X.X.X.X.X.X.X.X.X.X.X.X.X.X.X.X.X.E ..X.X.X.X.X.X.X.X.X.X.X.X.X.X.X.X.X.X.X.X.k 0 X.X.X.X.X.X.X.X.X.X.X.X.X.X.X.X.X.X.X.X.X.X.",
"X.X.X.X.X.X.X.X.X.X.X.X.X.X.X.X.X.X.W U X.X.X.X.X.X.X.X.X.X.X.X.X.X.X.X.X.X.X.X.t h X.X.X.X.X.X.X.X.X.X.X.X.X.X.X.X.X.X.X.X.X.X.",
"X.X.X.X.X.X.X.X.X.X.X.X.X.X.X.X.X.X. .h X.X.X.X.X.X.X.X.X.X.X.X.X.X.X.X.X.X.X.X.9 ` X.X.X.X.X.X.X.X.X.X.X.X.X.X.X.X.X.X.X.X.X.X.",
"X.X.X.X.X.X.X.X.X.X.X.X.X.X.X.X.X.X.X.l P X.X.X.X.X.X.X. ..... . ...|  .X.X.X.` * X.X.X.X.X.X.X.X.X.X.X.X.X.X.X.X.X.X.X.X.X.X.} ",
"X.X.X.X.X.X.X.X.X.X.X.X.X.X.X.X.X.X.X. .e { X.X.X.X.X.X._ _ _ ^ ^ _ } _ X.X.X.y f X.X.X.X.X.X.X.X.X.X.X.X.X.X.X.X.X.X.X.X.X.X._ ",
"X.X.X.X.X.X.X.X.X.X.X.X.X.X.X.X.X.X.X.X.W 0 X.X.X.X.X. .| X. .Y Y | X.|  .X. .+ ' X.X.X.X.X.X.X.X.X.X.X.X.X.X.X.X.X.X.X.X.X.X. .",
"X.X.X.X.X.X.X.X.X.X.X.X.X.X.X.X.X.X.X.X.X.k = X.X.X.X.| | } ] } ] _ } | ..X.y 0 X.X.X.X.X.X.X.X.X.X.X.X.X.X.X.X.X.X.X.X.X.X.X.X.",
"X.X.X.X.X.X.X.X.X.X.X.X.X.X.X.X.X.X.X.X.X.X.h * X.X.X.X._ ) / / / ) ) _ X.' X ..X.X.X.X.X.X.X.X.X.X.X.X.X.X.X.X.X.X.X.X.X.X.X.X.",
"X.X.X.X.X.X.X.X.X.X.X.X.X.X.X.X.X.X.X.X.X.X.X.h @ ` X.X. . .X.X.X.X. .X.X.X l X.X.X.X.X.X.X.X.X.X.X.X.X.X.X.X.X.X.X.X.X.X.X.X.X.",
"X.X.X.X.X.X.X.X.X.X.X.X.X.X.X.X.X.X.X.X.X.X.X.X.E @ r  .X.X.X.X.X.X.X.X.O y X.X.X.X.X.X.X.X.X.X.X.X.X.X.X.X.X.X.X.X.X.X.X.X.X.X.",
"X.X.X.X.X.X.X.X.X.X.X.X.X.X.X.X.X.X.X.X.X.X.X.X.X.X.y o w E  .X.X.[ k . q X.X.X.X.X.X.X.X.X.X.X.X.X.X.X.X.X.X.X.X.X.X.X.X.X.X.X.",
"X.X.X.X.X.X.X.X.X.X.X.X.X.X.X.X.X.X.X.X.X.X.X.X.X.X.X...d @ o o X X + L X.X.X.X.X.X.X.X.X.X.X.X.X.X.X.X.X.X.X.X.X.X.X.X.X.X.X.X.",
"X.X.X.X.X.X.X.X.X.X.X.X.X.X.X.X.X.X.X.X.X.X.X.X.X.X. .X.X.X.[ ' ' | X.X.X.X.X. .X.X.X.X.X.X.X.X.X.X.X.X.X.X.X.X.X.X.X.X.X.X.X.X.",
"X.X.X.X.X.X.X.X.X.X.X.X.X.X.X.X.X.X.X.X.X.X.X.X.X.X.X.X.X.X.X.X.X.X.X.X.X.X.X.X.X.X.X.X.X.X.X.X.X.X.X.X.X.X.X.X.X.X.X.X.X.X.X.X.",
"X.X.X.X.X.X.X.X.X.X.X.X.X.X.X.X.X.X.X.X.X.X.X._ G K K K K K K G K K K K K K K G _ X.X.X.X.X.X.X.X.X.X.X.X.X.X.X.X.X.X.X.X.X.X.X.",
"X.X.X.| ) _ ) _ ) ) ) _ ) _ ) ) ) _ ) ) | X.X.V ; : : : : : : : : : : : : : : ; V X.X.X.X.X.X.X.X.X.X.X.X.X.X.X.X.X.X.X.X.X.X.X."
};
