/* XPM */
static char *result[] = {
/* columns rows colors chars-per-pixel */
"64 64 140 2 ",
"   c #040627",
".  c #060C25",
"X  c #090D27",
"o  c #060C2A",
"O  c #0A0E2B",
"+  c #0B1027",
"@  c #0E132C",
"#  c #0F182E",
"$  c #11152E",
"%  c #13182E",
"&  c #191C2F",
"*  c #080F31",
"=  c #041231",
"-  c #0C1533",
";  c #0E1739",
":  c #121731",
">  c #141934",
",  c #1A1C33",
"<  c #101638",
"1  c #161C39",
"2  c #181F3C",
"3  c #201F33",
"4  c #201F3E",
"5  c #1D2135",
"6  c #17203D",
"7  c #19203D",
"8  c #222336",
"9  c #262834",
"0  c #2E2C37",
"q  c #22253C",
"w  c #28273B",
"e  c #25293C",
"r  c #2B2B3D",
"t  c #312E3E",
"y  c #2E313C",
"u  c #33323D",
"i  c #39363D",
"p  c #191F40",
"a  c #172241",
"s  c #1B2442",
"d  c #1E2946",
"f  c #1E2748",
"g  c #1E2A49",
"h  c #212641",
"j  c #242A42",
"k  c #2B2D42",
"l  c #212D4C",
"z  c #2D2E48",
"x  c #302E43",
"c  c #2D3144",
"v  c #24314F",
"b  c #2C3048",
"n  c #343445",
"m  c #3A3644",
"M  c #363947",
"N  c #3C3945",
"B  c #343549",
"V  c #37394B",
"C  c #3C3B4B",
"Z  c #222F50",
"A  c #253253",
"S  c #283555",
"D  c #293857",
"F  c #263759",
"G  c #293758",
"H  c #2B3A5C",
"J  c #3B3B50",
"K  c #2D3E61",
"L  c #433E45",
"P  c #423E4A",
"I  c #3F414E",
"U  c #2E4164",
"Y  c #314265",
"T  c #474345",
"R  c #484346",
"E  c #44414B",
"W  c #4A444C",
"Q  c #4E494E",
"!  c #534D4D",
"~  c #56504F",
"^  c #5E544F",
"/  c #454451",
"(  c #4A4553",
")  c #4D4A54",
"_  c #4D4B58",
"`  c #504653",
"'  c #544D54",
"]  c #584F50",
"[  c #534E59",
"{  c #575157",
"}  c #5B5355",
"|  c #56525A",
" . c #5B535C",
".. c #5C595E",
"X. c #625655",
"o. c #645A55",
"O. c #6A5D55",
"+. c #61575D",
"@. c #645B5B",
"#. c #6A5B5B",
"$. c #6C625B",
"%. c #72655C",
"&. c #74695D",
"*. c #78685D",
"=. c #635A60",
"-. c #695E60",
";. c #6B6263",
":. c #6F676B",
">. c #726563",
",. c #776A64",
"<. c #7C6D66",
"1. c #756C6A",
"2. c #796E6B",
"3. c #7E716D",
"4. c #7F6F70",
"5. c #867565",
"6. c #8C7D66",
"7. c #82736D",
"8. c #8D7D6B",
"9. c #827371",
"0. c #8D7D73",
"q. c #907E75",
"w. c #93826B",
"e. c #9B866C",
"r. c #9E8B6E",
"t. c #96847B",
"y. c #98877A",
"u. c #9F8C7E",
"i. c #A58D75",
"p. c #A28E7E",
"a. c #A69274",
"s. c #A9957E",
"d. c #9E8A80",
"f. c #AE9481",
"g. c #BBA287",
"h. c #BCA38B",
"j. c #C3A790",
"k. c #CBAA90",
"l. c #DABDA0",
"z. c #F3CFA6",
/* pixels */
"s d l l Z A g s 2 2 7 s A K A f a 2 2 2 s F H S A K K K K l d s a 1 > > > > > > > % # G K A > l Y F H H a l 1 $ $ 7 H v l 6 > % ",
"l f A l g A g a 2 p 7 2 A K H K S 2 6 2 1 1 6 A U H g H l p > > 1 > 1 > > > > > % $ d v 1 @ d D d g H H 1 > > $ $ $ > % % 1 6 7 ",
"g Z f p Z F h a 2 7 7 1 Z H S H f 2 6 2 7 1 d S A a s U F Y s > 1 > > > > > > > > $ > @ % v H d @ j H A > $ # $ $ $ 6 7 7 7 7 6 ",
"s Z s g F Z h g 7 7 a 2 Z A f Y F 2 2 2 7 6 l v A g 6 H K K p 1 2 1 1 1 1 > > > > 6 7 A H A 6 $ @ l H s > $ $ # $ 1 1 $ 6 d 7 % ",
"2 2 s l g Z s l 2 2 7 2 f g 2 A s 2 6 2 1 1 f Y H F l 7 l 7 > 2 6 7 d 7 h g d l v A l d , $ $ $ : v s 7 > $ $ $ $ $ $ $ $ > H D ",
"7 7 a s s l l g 2 2 s 2 a A 1 2 2 2 2 6 7 g H H H U A < > 1 1 > > 1 5 6 2 d 7 7 6 1 5 1 > % % $ 7 a d s % $ $ % $ $ $ $ $ d A F ",
"7 7 2 2 2 2 f d 2 a a 2 2 g f 2 2 2 2 2 s A K H H K K d 1 1 > 1 1 1 > 6 7 7 7 s a d 5 > > $ $ $ 1 l g 7 @ $ $ @ $ $ $ # 7 F l v ",
"7 7 7 7 2 2 2 p 7 2 7 2 a 7 a 2 6 6 2 2 2 H K H H H a 1 1 1 1 1 1 > > 1 > 1 d a 6 1 > $ $ > $ $ l j d % $ $ $ $ $ @ $ # % # A H ",
"2 a 7 7 7 7 2 a 7 7 7 2 s 7 2 7 2 2 2 2 2 a l G G H p 1 1 < 1 1 1 < > > > > , > $ $ $ > $ $ $ d d 1 1 O $ $ $ $ $ $ $ $ @ 1 U S ",
"7 2 7 7 2 7 7 2 2 7 7 7 2 2 2 7 2 2 2 2 2 > a F K l < 1 1 1 1 , 1 > > 1 > > > > > $ $ $ > $ $ d $ $ $ $ $ $ $ $ $ $ $ $ @ 1 U U ",
"7 7 7 7 s 2 7 7 s 2 7 7 7 7 a 2 2 2 p s g l F K l 1 1 1 1 , 1 < 1 1 > > : > > > $ > > $ $ $ $ % $ $ $ $ $ $ @ $ $ $ $ $ $ 1 d 7 ",
"2 7 7 2 7 2 7 7 2 2 7 7 7 7 p 2 a Z H K K K A a 1 1 p 1 , 1 1 1 1 > > 1 > > > : > % > $ $ $ > $ $ $ $ $ $ @ $ $ $ $ @ $ $ # @ # ",
"s 7 2 7 2 2 2 7 7 7 2 a 7 7 7 2 l l s p 2 1 1 2 2 1 1 1 1 1 1 , 1 > > > 1 > > > > $ > $ $ $ $ $ $ $ $ $ $ $ $ $ $ $ $ $ $ $ $ $ ",
"2 2 7 7 s 2 7 7 2 7 7 2 7 7 2 a 2 2 2 2 2 2 2 2 1 2 p 1 , 2 1 < 1 > > > > > > : > > % : : $ $ > $ % $ $ $ $ $ $ $ $ $ $ $ $ # $ ",
"2 2 7 7 7 7 s 7 7 7 2 7 7 7 2 7 2 2 2 2 2 2 1 2 1 2 1 1 1 < 1 < 1 < 1 > 1 > > > > $ % % $ $ $ $ > $ $ $ $ @ $ $ @ $ $ $ $ $ $ $ ",
"7 s 2 7 2 2 2 7 7 7 2 s 2 7 7 7 2 2 2 2 2 2 2 2 2 1 4 1 , 1 1 , > , > > > > > > > $ > $ $ > $ $ $ $ $ $ $ $ $ $ $ $ $ @ $ $ $ $ ",
"2 a 7 2 s 7 2 s 2 s 2 2 7 s 7 7 2 2 6 2 2 2 2 2 1 1 2 1 1 1 , 1 1 < 1 > > > > : > $ % : : $ : $ $ $ $ $ $ @ $ $ $ $ @ $ $ $ $ $ ",
"7 2 7 7 2 2 2 2 7 7 2 7 2 2 2 a 2 2 2 2 2 6 2 2 2 1 2 1 , 1 1 1 1 , > > > > > > > $ % : : : $ % $ $ $ $ $ $ $ $ $ $ $ $ $ $ $ $ ",
"7 2 7 7 7 7 2 7 7 7 7 2 2 7 7 2 7 7 2 7 2 2 2 2 1 1 2 2 1 , < 1 1 , > > > > > : > $ % : : : $ $ $ > $ $ $ $ $ $ $ $ $ $ $ $ @ $ ",
"7 7 7 7 7 7 7 7 7 7 2 2 7 7 7 7 2 2 2 2 2 2 2 2 2 1 2 1 1 , 2 < 1 < > > > > > > > > % : $ : $ $ $ $ $ $ $ $ $ $ @ $ $ $ $ $ $ $ ",
"7 7 7 7 2 7 7 7 7 7 7 s 7 7 7 7 2 2 s 2 1 2 2 1 1 1 2 1 1 1 > 1 , , < > > > > > > $ $ > $ $ $ > $ $ $ $ $ $ $ $ $ $ $ $ @ O $ $ ",
"7 7 7 2 a 2 7 7 2 a 7 2 7 7 2 7 2 2 < 1 B 2 < h p , 1 1 1 1 1 1 < 1 1 > > > > > > $ % $ > $ $ % $ $ $ $ $ $ $ $ $ $ $ O % w $ $ ",
"2 7 7 7 7 7 2 s 7 2 7 2 7 7 7 7 7 < ) 9.q./ / j 2 j h , 1 > > 1 1 > > 1 > > > > > % > $ $ % > $ > $ $ $ $ $ $ $ $ O X u 0.m O $ ",
"a 7 7 7 7 2 2 2 7 7 7 a 2 7 7 7 1 b 2.#.u.g.3.( B z 2 1 1 1 1 1 1 1 < > : : : > > % > $ $ $ $ $ $ $ $ $ $ $ $ $ $ t ] ,.t X $ $ ",
"p 2 p s s 1 7 7 7 7 7 7 2 a 2 7 1 C ) | ;.@.B C k 5 j 1 1 1 1 1 1 > > w r q 5 < > $ > > $ $ $ $ $ $ $ $ $ $ @ , #.#.t + @ $ $ $ ",
"7 7 2 ;.k h 7 2 7 7 7 7 7 7 7 a 2 _ E [ | 1. .j 1 k j 1 > 1 > 1 > 3 k n r q > > > % % $ $ $ $ > $ $ $ $ $ > O } W @ + $ $ $ $ $ ",
"2 2 x f.p.1.6 7 2 2 7 2 7 7 7 2 d C / [ B a  .;.V d < 1 j > 1 > 2 4 8 > : $ > > > $ > $ $ $ $ % $ > $ $ $ $ 3 } % $ $ $ $ $ $ $ ",
"s - 1.k.p.( 7 7 p s 2 a 7 7 6 7 2 h h h 1 = B y.w 1 < E B > 1 7 7 1 q > > > > > > $ % $ > $ $ $ $ $ X X O   } R $ $ $ $ $ $ $ $ ",
"p 2 r d.C - ; 6 q p p 7 7 7 2 p 2 < a 1 n ` 0.( - > ( C e - q V > > j , > > > > > $ > > $ $ $ : $ & L P L @.>., @ $ $ $ $ $ $ $ ",
"2 a ; ( h.9.[ > - 2 7 7 7 7 2 2 7 B C 0.t.) b - c  .B 5 e 2 _ 5 1 < w 4 : > > > > $ $ $ $ $ > @ & >.#.X.P N 8 $ : $ $ $ $ $ $ $ ",
"2 2 s < n p.l.j.;.7 2 p 2 7 2 d J c ( 3.P n C =. .k ; 7 / ) q < 1 > h j - : > , > $ $ $ $ : & O ! X.> $ O O @ $ $ : $ $ $ $ $ $ ",
"a 2 2 7 < - k q.z.h.P | b 2 1 J 6 c 2.` / J P V 7 < 7 C ( 6 > 1 1 > 2 3 3 w @ O > & > > $ > $ O 7.t $ $ $ : $ $ $ @ $ $ @ $ $ $ ",
"7 7 2 a a a 1 =  .s.=.1.0.<.P j 1 +.C M ( C c k c V ( P 5 > 1 ; > > ) 7.p.8.,.) & O O O O X   o.>.% $ $ $ $ $ $ @ $ $ $ $ $ $ $ ",
"2 7 7 2 2 p p h k j 1 { 9.C 4.j j :.=. .C B ( ( C c j 1 1 % 1 c m ` #.7.#.' W #.7.#.R n n R &.#.r > $ $ $ $ $ $ $ $ $ $ $ $ $ $ ",
"7 7 7 7 2 s 2 z 7 2 b j 1 - ( B 7 ' 7.B V } V k n w M M C / E | C k > w W m } 8 > L ' } @.+.L u 8 $ % $ $ $ $ $ @ $ $ $ $ $ $ $ ",
"7 7 7 7 2 2 2 h 7 s j 7 7 j 7 B 1 C =.h <. .B @.@...| W / n c > 2 3 P ` N C r ' > @ $ : > 8 w 5 $ $ $ $ $ $ $ $ > , $ $ $ $ $ $ ",
"7 2 a 2 7 7 7 2 k 7 h d 1 x k B V 1 5 k [ q { P P P < q r k c M C } o.T r r 5 m W O > : $ $ $ $ $ : $ $ $ $ $ & , @ $ $ $ $ $ $ ",
"7 7 7 7 7 2 7 2 7 j 7 h h d 2 2 B C k h 5 ( } I [ B c n ( I n e P W e r x @ = $ R m O % $ % $ $ $ $ $ $ $ $ 3 r $ @ $ $ $ $ $ $ ",
"7 2 7 7 7 7 7 7 2 7 s 7 h k k h 1 n / c d > 7 n 5 C W m w 5 ; e Q e 7 5 N } ! r $ W L & 5 $ $ $ > : $ $ $ 8 u $ $ $ $ $ $ $ $ $ ",
"2 2 s 2 7 7 7 7 7 7 2 7 s 4 s j j 7 2 7 j 7 5 @.' x M M 7 > > T W 2 i } ' 6.e.e.N $ R o.} $ > $ @ > & , 0 0 $ - $ $ $ @ $ $ $ $ ",
"7 7 2 s 2 7 7 7 a 2 7 7 2 p 2 2 7 j j d 1 7 j 8.5.y 5 k N q 1 N W P ! m y L o.e.8.3 $ 9 i u O $ u 0 & 9 8 $ $ $ $ $ $ $ @ $ $ $ ",
"7 7 7 7 2 2 7 7 2 7 7 7 7 2 7 2 2 1 6 7 q 7 > r w.5.e = q k 6 5 2 q 1 o i 7.o.! a.O.. # , r u R T O.W X $ $ $ $ $ $ $ $ $ $ $ $ ",
"7 2 a 7 7 7 7 7 7 7 7 2 7 7 7 a 7 2 7 2 2 2 7 1 y $.w.{ - w 7 1 6 - , ^ %.0 $ O L 8.! $ @ $ 8 9 % *.r.L X O $ $ $ $ $ $ $ $ $ @ ",
"7 7 2 7 7 2 a 2 7 7 7 2 7 7 7 2 2 2 2 2 6 6 2 2 ; ; y >.$.7 7 5 > 0 $.$.O @ > 1 O , ! T 0 , $ $ & 0 ^ 6.%.L & . $ $ $ $ $ $ $ $ ",
"2 7 7 2 7 s 2 2 2 7 7 a 7 7 7 7 2 7 2 7 1 6 2 1 1 7 < @ W #.> > w &.$.# > > $ > > $ O > 8 8 > $ $ @ O 3 L o.&.~ $ X $ $ $ $ $ $ ",
"7 7 7 a 7 2 7 2 7 7 7 7 2 7 7 7 2 2 2 2 6 2 1 2 5 1 5 @.n X.P * M ! m > > > > > > > > $ @ $ $ $ $ $ $ $ X . % R *.t $ $ $ @ $ $ ",
"7 7 7 2 2 7 7 7 7 7 7 7 7 7 7 6 7 2 2 2 7 2 2 2 6 1 1 X.5.6.` - 1 : - > > > > > % % > : $ $ $ $ $ $ $ $ $ $ t y O.^   $ $ $ $ $ ",
"7 7 2 2 s 7 7 7 2 a 2 6 7 7 7 7 2 2 7 2 2 2 2 2 6 1 6 C $.8.k < 1 > 1 > > > > > > $ $ % $ $ > $ $ $ $ $ $ $ 9 %.i.i X $ $ @ $ $ ",
"7 s 2 2 2 a 2 7 7 2 7 7 2 7 7 7 2 2 6 2 6 2 2 2 1 2 1 2 h C 1 1 1 1 1 > > > > > > > > $ $ $ $ > $ $ $ $ : @ ! e.X.@ $ $ $ $ $ $ ",
"7 2 s 2 7 7 7 7 a 7 7 7 a 2 7 7 6 2 2 2 2 2 2 2 1 2 2 , 1 < > , > 1 > > > > $ > % $ % $ > $ $ $ > $ $ $ @ $ & r % $ $ $ $ $ $ $ ",
"7 7 2 2 7 7 2 7 2 7 7 7 7 7 2 s 2 2 2 2 6 6 1 2 2 2 1 1 , 1 , 1 1 > > > 1 > > > : > % > $ $ : $ $ $ $ $ $ $ $ X $ $ $ $ $ $ $ $ ",
"7 7 2 7 7 7 7 7 7 7 2 7 7 2 2 2 7 6 2 7 2 2 2 2 1 1 2 1 1 1 < 1 1 1 > > > > < > > $ % > $ $ $ $ $ $ $ $ $ $ $ $ $ $ $ $ $ $ $ $ ",
"7 7 s 2 2 7 7 7 2 a 7 7 7 7 2 a 2 2 7 2 2 2 2 2 2 1 1 1 , 1 1 1 > > 1 > > > > > > % % : % $ $ : > $ $ $ $ $ $ $ $ $ $ $ @ $ $ $ ",
"2 7 2 7 7 2 7 7 7 2 7 7 7 7 7 2 a 2 2 2 2 2 2 2 1 2 2 1 1 1 < , 1 > > > > > : > > $ > : $ $ $ % $ $ $ $ $ $ $ $ $ $ $ $ $ $ $ $ ",
"a 7 7 7 s 2 2 1 2 a 7 7 2 2 7 7 2 2 2 2 2 2 2 2 1 2 2 1 1 1 1 1 1 > 1 > > > > > > % $ % $ $ % $ > $ $ $ $ $ $ $ $ @ $ @ $ $ $ $ ",
"2 7 7 2 2 s p f h 2 7 2 7 s 2 7 2 2 2 2 2 2 2 2 2 1 2 1 1 > , , > 1 > > > > > : > # : % $ $ $ $ $ $ > $ $ $ $ $ $ $ $ $ $ $ $ @ ",
"7 7 2 2 f F f l l 2 2 s 2 7 2 7 2 2 6 2 6 2 2 2 2 2 1 1 1 1 1 < 1 > 1 > > > > > > $ $ # a A 7 $ 1 v l $ $ $ $ $ $ $ $ @ $ $ $ $ ",
"7 2 7 v Z Z g d d d s a 7 7 7 7 p 2 2 2 2 6 2 1 1 2 p p 1 > 1 1 1 , < > > > > > > % % 1 A g j + 1 l 6 1 > > $ > $ $ $ $ $ $ $ $ ",
"7 7 a l d d d d s s a 2 7 7 a 2 2 2 2 2 2 1 1 d l v H G l h s 2 , , < > > > > > > $ $ # l d 6 1 , 7 7 d 1 > : $ $ $ $ $ $ $ $ @ ",
"7 7 2 2 2 1 p 2 2 p 2 2 7 7 2 7 2 2 2 2 a l g s a 2 1 2 2 2 2 1 < 1 1 > > > > > > % > d > > > > % > > $ : $ $ $ $ @ $ $ $ $ $ $ ",
"p 7 7 7 7 7 7 2 7 7 2 7 7 2 s 2 2 a d l A F G v j s a 1 , < 2 2 , 1 , > > > > : > # d v 6 $ > > > # $ $ $ $ $ $ : - @ : $ $ $ $ ",
"7 7 7 7 7 7 2 a 7 2 a 7 7 7 2 7 s 2 2 2 1 1 > 1 2 2 2 1 1 < , < < < , > > > > : > % > > > 1 1 1 > % $ # $ $ $ $ $ h h @ $ $ $ @ ",
"7 7 2 7 7 7 7 7 7 7 7 7 2 2 s H Y A 1 2 2 7 2 2 1 2 1 1 1 , , 1 2 < > > , > > > > $ $ % $ $ $ $ $ $ $ $ $ $ $ # : G K : $ $ $ $ ",
"7 7 7 7 2 2 a 7 7 2 7 7 2 2 F Y A U l 2 7 1 2 2 1 1 2 1 2 1 < 1 , 1 > > > > > : > > % % $ $ $ $ $ $ $ $ $ $ $ @ A S G h @ $ $ $ "
};
