/* XPM */
static char *result[] = {
/* columns rows colors chars-per-pixel */
"64 64 72 1 ",
"  c #7BDB7D177DB6",
". c #66378BA7F836",
"X c #69968E10F86C",
"o c #964896B296EA",
"O c #9E4A9E4A9E4A",
"+ c #A980AB6CAC39",
"@ c #BDE3BA1DAE47",
"# c #AB36AFEFB1E5",
"$ c #AF8DB30CB4A0",
"% c #B188B524B682",
"& c #BEDBBCD8B324",
"* c #B5B9B80AB90A",
"= c #B67FBAD7BC98",
"- c #BAF3BD51BE36",
"; c #C305C121B78C",
": c #C5FBC55FBE11",
"> c #9DF8B691CDC8",
", c #A7E6BC18CF7E",
"< c #ABF7BDEFCEE8",
"1 c #B9F3BF54C144",
"2 c #B04CC019CF36",
"3 c #83A6A1B8F9A8",
"4 c #8B31A6FDFA14",
"5 c #8F87AB6AFA0D",
"6 c #944FAE92FA61",
"7 c #96B8B09FFA6E",
"8 c #9C78B4B5FAC6",
"9 c #A0FEB7ECFB08",
"0 c #A41ABAA4FB18",
"q c #A994BEF1FB56",
"w c #BEB3C273C3D4",
"e c #B0D3C142D045",
"r c #AD8DC061D1F0",
"t c #B77FC585D260",
"y c #BAD0C684D119",
"u c #BBA8C995D52A",
"i c #AEACC33EFB7C",
"p c #B2CBC5D5FBC7",
"a c #B766C93DFC05",
"s c #BB15CC23FC29",
"d c #C006D0B8FC3C",
"f c #C259C657C7C1",
"g c #C342C779C911",
"h c #C69ECB2DCCD2",
"j c #CA6DCD6DCE8F",
"k c #C2DECD17D4D6",
"l c #CAA0CF8CD1C5",
"z c #C800D195D837",
"x c #CE04D2CDD4E4",
"c c #C616D15FD8DC",
"v c #CDDAD5A9DA1E",
"b c #D288D637D772",
"n c #D2C7D780D93F",
"m c #D3C3D9ECDC2B",
"M c #DA87DBCFDC78",
"N c #D42BDBCFE14A",
"B c #DB97DFA0E154",
"V c #C085CFC5FC87",
"C c #C37DD2B1FC86",
"Z c #CA1DD793FCDF",
"A c #CD75D9FFFD0A",
"S c #D309DE35FD4F",
"D c #DCCCE175E365",
"F c #D70EE143FD81",
"G c #DD52E603FDC6",
"H c #ECF6ECF6ECF6",
"J c #E449EB1BFE28",
"K c #EAD9F00BFE7C",
"L c #EDE6F258FE9E",
"P c #F2EEF619FEDD",
"I c #F72EF94AFF14",
"U c #FF6EFF74FF83",
/* pixels */
"x%=w=$%#ymmmmmmmmmmmmmmmmmnnmnmllmnnnnnnnnnnnbnnbbbnnbbbm*$-%+ j",
"bwwhw1wwhmmNmmmmmmmmmmmvmmmmnmnxxnnnnmMnbbnnnnnnnnnbbbbbbgw1w*ox",
"mBBmBDDDNmmmNmmmmmmmmvzm@nxxlbllhxjlnxlbjbjbMbnnbnbnbbvnbMnMmMBb",
"mcmuvucuvNmmmmmNmmmmmhj;:vlxxbjvlbflnjblbbxbbbnnnnnnnv2kMltl,l2h",
"vkvuzucccmmvmmmmmmvmvxn&njvxxvjmjvjbbxnxxxbmvnbbbbbbbx>ubk2k<hty",
"DDBBBNBDDDDDDDDDDDDDDDDDDDDDBBDBBBBBBBBBBBMMBMDMMBDMDMvMBBmMnNmN",
"UUUUUUUUUUUUUUIUUUUUUUUUUUUUUUUUUUUUUUUUUUUUUUUUUUUUUUUUUUUUUUUU",
"UUUUUUUUUUUUUUUUUUUUUUUUUUUUUUUUUUUUUUUUUUUUUUUUUUUUUUUUUUUUUUUU",
"UUUUUUUUUUUUUUUUUUUUUUUUUUUUUUUUUUUUUUUUUUUUUUUUUUUUUUUUUUUUUUUU",
"UUUUUUUUUUUUUUUUUUUUUUUUUUUUUUUUUUUUUUUUUUUUUUUUUUUUUUUUUUUUUUUU",
"UUUUUUUUUUUUUUUUUUUUUUUUUUUUUUUUUUUUUUUUUUUUUUUUUUUUUUUUUUUUUUUU",
"UUUUUUUUUUUUUUUUUUUUUUUUUUUUUUUUUUUUUUUUUUUUUUUUUUUUUUUUUUUUUUUU",
"UUUUUUUUUUUUUUUUUUUUUUUUUUUUUUUUUUUUUUUUUUPGUUUUUUUUUUUUUUUUUUUU",
"UUUUUUUUUUUUUUUUUUUUUUUUUUUUUUUUUUUUUUUUUUUsFUUUUUUUUUUUUUUUUUUU",
"UUUUUUUUUUUUUUUUUUUUUUUUUUUUUUUUUUUUUUUUUUUIqUUUUUUUUUUUUUUUUUUU",
"UUUUUUUUUUUUUUUUUUUUUUUUUUUUUUUUUUUUUUUUUUUU0LUUUUUUUUUUUUUUUUUU",
"UUUUUUUUUUUUUUUUUUUUUUUUUUUUUUUUUUUUUUUUUUUU9PUUUUUUUUUUUUUUUUUU",
"UUUUUUUUUUUUUUUUUUUUUUUUUUUUUUUUUUUUUUUUUUUU9JUUUUUUUUUUUUUUUUUU",
"UUUUUUUUUUUUUUUUUUUUUUUUUUUUUUUUUUUUUUUUUUUU9LUUUUUUUUUUUUUUUUUU",
"UUUUUUUUUUUUUUUUUUUZGUUUUUUUUUUUUUUUUUUUUUUU8PUUUUUUUUUUUUUUUUUU",
"UUUUUUUUUUUUUUUUUUUiGUUUUUUUUUIGUUUUUUUUUUUU9IUUUUUUUUUUUUUUUUUU",
"UUUUUUUUUUUUUUUUUUUdIUUUUUUUUU7.JUUUUUUUUUUU9IUUUUUUUUUUUUUUUUUU",
"UUUUUUUUUUUUUUUUUUUCLUUUUUUUUS6JiUIUUUUUUUUI9UUUUUUUUUUUUUUUUUUU",
"UUUUUUUUUUUUUUUUUUUZGUUUUUUUU5GPqUUUUUUUUUUP7UUUUUUUUUUUUUUUUUUU",
"UUUUUUUUUUUUUUUUUIUZFUUUUUUUJ7UP9UUUUUUUUUUK6UUUUUUUUUUUUUUUUUUU",
"UUUUUUUUUUUUUUUUUUUASUUUUUUUssUU7IUUUUUUUUUJ9UIUUUUUUUUUUUUUUUUU",
"UUUUUUUUUUUUUUUUUUUGZUIUUUUU8JUUqPUUUUUUUUUG8UUUUUUUUUUUUUUUUUUU",
"UUUUUUUUUUUUUUUUUUUGdUUUUUUL5UUUpGUUUUUUUUUAqUUUUUUUUUUUUUUUUUUU",
"UUUUUUUUUUUUUUUUUUUJCUUUUUUZiUIUVZUUUUUUUUUCCUUUUUUUUUUUUUUUUUUU",
"UUUUUUUUUUUUUUUUUUUKdUUUUUUqZUUUAsUIUUUUUIUaZUUUUUUUUUUUUUUUUUUU",
"UUUUUUUUUUUUUUUUUUUKaUUUUUU6LUUUJpUUUUUUUUU8SUUUUUUUUUUUUUUUUUUU",
"UUUUUUUUUUUUUUUUUUULpUUUUUK7UUUUP0UUUUUUUUU6KUUUUUUUUUUUUUUUUUUU",
"UUUUUUUUUUUUUUUUUUUPpUUUUUZpUIUUU7PUUUUUUUI8UUUUUUUUUUUUUUUUUUUU",
"UUUUUUUUUUUUUUUUUUULiUIUUUiZUUUUUpFUUUUUUUL9UUUUUUUUUUUUUUUUUUUU",
"UUUUUUUUUUUUUUUUUUUPpUUUUU9LUUUIUZsUUUUUUUF7UIUUUUUUUUUUUUUUUUUU",
"UUUUUUUUUUUUUUUUUUUIiUUUUU7UUUUUUL9UUUUUUUsCUUUUUUUUUUUUUUUUUUUU",
"UUUUUUUUUUUUUUUUUUUIqUUUUJ9UUUUUUU9LUUUUUU9GUUUUUUUUUUUUUUUUUUUU",
"UUUUUUUUUUUUUUUUUUUUiUUUUAsUUUUUIUsZUUUUUU6PUUUUUUUUUUUUUUUUUUUU",
"UUUUUUUUUUUUUUUUUUUUqIUIUsZUUUUUUUL8UUUUUJ6UUUUUUUUUUUUUUUUUUUUU",
"UUUUUUUUUUUUUUUUUUUUiPUUUqJUUUUUUUU0FUUIUppUIUUUUUUUUUUUUUUUUUUU",
"UUUUUUUUUUUUUUUUUUUUpJUUU8IUUUUUUUUK4UUIU3KUUUUUUUUUUUUUUUUUUUUU",
"UUUUUUUUUUUUUUUUUUUUCSUUL0UUUUUUUUUUs7UUC7UUUUUUUUUUUUUUUUUUUUUU",
"UUUUUUUUUUUUUUUUUUUUFsUUFpUIUUUUUUUUU04qXKUUUUUUUUUUUUUUUUUUUUUU",
"UUUUUUUUUUUUUUUUUUUUU7IU8NUUUUUUUUUUUUS9JUUUUUUUUUUUUUUUUUUUUUUU",
"UUUUUUUUUUUUUUUUUUUUUF576UUUUUUUUUUUUIUUUUUUUUUUUUUUUUUUUUUUUUUU",
"UUUUUUUUUUUUUUUUUUUUUULCUUUUUUUUUUUUUUUUUUUUUUUUUUUUUUUUUUUUUUUU",
"UUUUUUUUUUUUUUUUUUUUUUUUUUUUUUUUUUUUUUUUUUUUUUUUUUUUUUUUUUUUUUUU",
"UUUUUUUUUUUUUUUUUUUUUUUUUUUUUUUUUUUUUUUUUUUUUUUUUUUUUUUUUUUUUUUU",
"UUUUUUUUUUUUUUUUUUUUUUUUUUUUUUUUUUUUUUUUUUUUUUUUUUUUUUUUUUUUUUUU",
"UUUUUUUUUUUUUUUUUUUUUUUUUUUUUUUUUUUUUUUUUUUUUUUUUUUUUUUUUUUUUUUU",
"UUUUUUUUUUUUUUUUUUUUUUUUUUUUUUUUUUUUUUUUUUUUUUUUUUUUUUUUUUUUUUUU",
"UUUUUUUUUUUUUUUUUUUUUUUUUUUUUUUUUUUUUUUUUUUUUUUUUUUUUUUUUUUUUUUU",
"UUUUUUUUUUUUUUUUUUUUUUUUUUUUUUUUUUUUUUUUUUUUUUUUUUUUUUUUUUUUUUUU",
"UUUUUUUUUUUUUUUUUUUUUUUUUUUUUUUUUUUUUUUUUUUUUUUUUUUUUUUUUUUUUUUU",
"UUUUUUUUUUUUUUUUUUUUUUUUUUUUUUUUUUUUUUUUUUUUUUUUUUUUUUUUUUUUUUUU",
"UUUUUUUUUUUUUUUUUUUUUUUUUUUUUUUUUUUUUUUUUUUUUUUUUUUUUUUUUUUUUUUU",
"UUUUUUUUUUUUUUUUUUUUUUUUUUUUUUUUUUUUUUUUUUUUUUUUUUUUUUUUUUUUUUUU",
"UUUUUUUUUUUUUUUUUUUUUUUUUUUUUUUUUUUUUUUUUUUUUUUUUUUUUUUUUUUUUUUU",
"UUUUUUUUUUUUUUUUUUUUUUUUUUUUUUUUUUUUUUUUUUUUUUUUUUUUUUUUUUUUUUUU",
"UUUUUUUUUUUUUUUUUUUUUUUUUUUUUUUUUUUUUUUUUUUUUUUUUUUUUUUUUUUUUUUU",
"UUUUUUUUUUUUUUUUUUUUUUUUUUUUUUUUUUUUUUUUUUUUUUUUUUUUUUUUUUUUUUUU",
"UUUUUUUUUUUUUUUUUUUUUUUUUUUUUUUUUUUUUUUUUUUUUUUUUUUUUUUUUUUUUUUU",
"UUUUUUUUUUUUUUUUUUUUUUUHbMbbMMMMbMMMMMMbHUUUUUUUUUUUUUUUUUUUUUUU",
"UUUUUUUUUUUUUUUUUUUUUUUjoOOOOOOOOoOOOOOojUUUUUUUUUUUUUUUUUUUUUUU"
};
