/* XPM */
static char *result[] = {
/* columns rows colors chars-per-pixel */
"128 96 6 1 ",
"  c #344D30",
". c #66412D",
"X c #4E693A",
"o c #875B39",
"O c #728F47",
"+ c #9CB851",
/* pixels */
"oooooooooooooooooooooooooooooooooooo.ooooooooooooooo.ooooooooooooooooooooooooooooooo.ooooooooooooooo.ooooooooooooooo.ooooooooooo",
"oooooooooooooooooooooooooooooooooooo.Ooooooooooooooo.Ooooooooooooooooooooooooooooooo.Ooooooooooooooo.Ooooooooooooooo.Ooooooooooo",
"ooooo++.ooooooooooooo++.oO.ooooo.Oo.O+oooO.ooooo.Oo.O+ooooooooooooooo++.oO.ooooo.Oo.O+oooO.ooooo.Oo.O+oooO.ooooo.Oo.O+oooooooooo",
"oooo.O++oooooooooooo.O++OO.++Oo..OOXO+OXOO.++Oo..OOXO+OXoooooooooooo.O++OO.++Oo..OOXO+OXOO.++Oo..OOXO+OXOO.++Oo..OOXO+OXoooooooo",
"ooO++XO+ooO+OoooooO++XO+OO++O  O OOXXOOXOO++O  O OOXXOOXooO+OoooooO++XO+OO++O  O OOXXOOXOO++O  O OOXXOOXOO++O  O OOXXOOXooO+Oooo",
"oo.O++OO.O+O..oooo.O++OOOOOOXXOOXXOO XOOOOOOXXOOXXOO XOO.O+O..oooo.O++OOOOOOXXOOXXOO XOOOOOOXXOOXXOO XOOOOOOXXOOXXOO XOO.O+O..oo",
"oo..OOOOO++X.ooooo..OOOOOOOOOOOOOXOOOOOOOOOOOOOOOXOOOOOOO++X.ooooo..OOOOOOOOOOOOOXOOOOOOOOOOOOOOOXOOOOOOOOOOOOOOOXOOOOOOO++X.ooo",
"oooOOOOOOOOXoooooooOOOOOOOOOOOOOOOOOOOOOOOOOOOOOOOOOOOOOOOOXoooooooOOOOOOOOOOOOOOOOOOOOOOOOOOOOOOOOOOOOOOOOOOOOOOOOOOOOOOOOXoooo",
"oooo..O+XOOooooooooo..O+OOOOOOOXOOOXOOOOOOOOOOOOOOOOOOOOOX XO.oooo.XOOOOOOOOOOOOOOOOOOOOOOOOOOOOOOOOOOOOOOOOXOOXOOOXOOXOXOOooooo",
"ooooo++OX++Oooooooooo++OOOXOOOX OOXOOOOOOOOOOOOOOOOOOOOOOOOX..ooooo.XXOOOOOOOOOOOOOOOOOOOOOOOOOOOOOOOOOOOOXX OX OOXOOOXXX++Ooooo",
"oooo++OX..++oooooooo++OXXX XOO .OX O++OOOOOOOOOOOOOOOOOOOOOXoooooooo.  OOOOOOOOOOOOOOOOOOOOOOOOOOOOOOOOOOOO .O .OX O+O X..++oooo",
"ooooo...oo.+.oooooooo...OOOXOX..O..++XOOOOOOOOOOOOOOOOOOOOXOOoooooooXXOOOOOOOOOOOOOOOOOOOOOOOOOOOOOOOOOOOOXOO...O..++X .oo.+.ooo",
"oooo...oooo..ooooooo...o.OOO..oo..OOOXOOOOOOOOOOOOOOOOOOOX O+OooooOOOOOOOOOOOOOOOOOOOOOOOOOOOOOOOOOOOOOOOX O+Ooo..OOO.ooooo..ooo",
"oooooooooooooooooooooooooo..ooooo...XOOOOOOOOOOOOOOOOOOOOO XO+ooo..OOOOOOOOOOOOOOOOOOOOOOOOOOOOOOOOOOOOOOO XO+oo.o...ooooooooooo",
"ooooooooooooooooooooooooooo.ooooooOOOOOOOOOOOOOOOOOOOOOOOOO..O.ooo..XOOOOOOOOOOOOOOOOOOOOOOOOOOOOOOOOOOOOOO..O.ooooooooooooooooo",
"oooooooooooooooooooooooooooooooooooOOOOOOOOOOOOOOOOOOOOOOXXoo..oooo.OOOOOOOOOOOOOOOOOOOOOOOOOOOOOOOOOOOOOXXoo..ooooooooooooooooo",
"oooooooooooooooooooo.ooooooooooooooOOXOOOOOOOOOOOOOOOOOOOOOOoooooooOOXOOOOOOOOOOOOOOOOOOOOOOOOOOOOOOOOOOOOOOoooooooo.ooooooooooo",
"oooooooooooooooooooo.Ooooooooooooo..XOOOOOOOOOOOOOOOOOOOOOOOOooooo..XOOOOOOOOOOOOOOOOOOOOOOOOOOOOOOOOOOOOOOOOooooooo.Ooooooooooo",
"ooooo++.oO.ooooo.Oo.O+oooO.ooooo.Oo.O+OOOOOOOOOOOOOOOOOOXOO..ooo.Oo.O+OOOOOOOOOOOOOOOOOOOOOOOOOOOOOOOOOOXOO..ooo.Oo.O+oooooooooo",
"oooo.O++OO.++Oo..OOXO+OXOO.++Oo..OOXO+OOOOOOOOOOOOOOOOOOXX.++Oo..OOXO+OOOOOOOOOOOOOOOOOOOOOOOOOOOOOOOOOOXX.++Oo..OOXO+OXoooooooo",
"ooO++XO+OO++O  O OOXXOOXOO++O  O OOXXOXOOOOOOOOOOOOOOOOOOO++O  O OOXXOXOOOOOOOOOOOOOOOOOOOOOOOOOOOOOOOOOOO++O  O OOXXOOXooO+Oooo",
"oo.O++OOOOOOXXOOXXOO XOOOOOOXXOOXXOO XOOOOOOOOOOOOOOOOOOOOOOXXOOXXOO XOOOOOOOOOOOOOOOOOOOOOOOOOOOOOOOOOOOOOOXXOOXXOO XOO.O+O..oo",
"oo..OOOOOOOOOOOOOXOOOOOOOOOOOOOOOXOOOOOOOOOOOOOOOOOOOOOOOOOOOOOOOXOOOOOOOOOOOOOOOOOOOOOOOOOOOOOOOOOOOOOOOOOOOOOOOXOOOOOOO++X.ooo",
"oooOOOOOOOOOOOOOOOOOOOOOOOOOOOOOOOOOOOOOOOOOOOOOOOOOOOOOOOOOOOOOOOOOOOOOOOOOOOOOOOOOOOOOOOOOOOOOOOOOOOOOOOOOOOOOOOOOOOOOOOOXoooo",
"oo.XOOOOOOOOXOOXOOOXOOOOOOOOXOOXOOOXOOOOOOOOXOOXOOOXOOOOOOOOOOOOOOOOOOOOOOOOOOOOOOOOOOOOOOOOOOOOOOOOOOOOOOOOXOOXOOOXOOOOOX XO.oo",
"ooo.XXOOOOXX OX OOXOOOOOOOXX OX OOXOOOOOOOXX OX OOXOOOOOOOOOOOOOOOOOOOOOOOOOOOOOOOOOOOOOOOOOOOOOOOOOOOOOOOXX OX OOXOOOOOOOOX..oo",
"oooo.  OOOO .O .OX O++OOOOO .O .OX O++OOOOO .O .OX O++OOOOOOOOOOOOOOOOOOOOOOOOOOOOOOOOOOOOOOOOOOOOOOOOOOOOO .O .OX O++OOOOOXoooo",
"ooooXXOOOOXOO...O..++XOOOOXOO...O..++XOOOOXOO...O..++XOOOOOOOOOOOOOOOOOOOOOOOOOOOOOOOOOOOOOOOOOOOOOOOOOOOOXOO...O..++XOOOOXOOooo",
"ooOOOOOOOX O+Ooo..OOOXOOOX O+Ooo..OOOXOOOX O+Ooo..OOOXOOOOOOOOOOOOOOOOOOOOOOOOOOOOOOOOOOOOOOOOOOOOOOOOOOOX O+Ooo..OOOXOOOX O+Ooo",
"o..OOOOOOO XO+ooo...XOOOOO XO+ooo...XOOOOO XO+ooo...XOOOOOOOOOOOOOOOOOOOOOOOOOOOOOOOOOOOOOOOOOOOOOOOOOOOOO XO+ooo...XOOOOO XO+oo",
"oo..XOOOOOO..O.oooOOOOOOOOO..O.oooOOOOOOOOO..O.oooOOOOOOOOOOOOOOOOOOOOOOOOOOOOOOOOOOOOOOOOOOOOOOOOOOOOOOOOO..O.oooOOOOOOOOO..O.o",
"ooo.OOOOOXXoo..ooooOOOOOOXXoo..ooooOOOOOOXXoo..ooooOOOOOOOOOOOOOOOOOOOOOOOOOOOOOOOOOOOOOOOOOOOOOOOOOOOOOOXXoo..ooooOOOOOOXXoo..o",
"oooOOXOOOOOOoooooooOOXOOOOOOoooooooOOXOOOOOOoooooooOOXOOOOOOOOOOOOOOOOOOOOOOOOOOOOOOOOOOOOOOOOOOOOOOOOOOOOOOoooooooOOXOOOOOOoooo",
"oo..XXOOOOOOOooooo..XOOOOOOOOooooo..XOOOOOOOOooooo..XOOOOOOOOOOOOOOOOOOOOOOOOOOOOOOOOOOOOOOOOOOOOOOOOOOOOOOOOooooo..XXOOOOOOOooo",
"ooo..OOOXOO..ooo.Oo.O+OOXOO..ooo.Oo.O+OOXOO..ooo.Oo.O+OOOOOOOOOOOOOOOOOOOOOOOOOOOOOOOOOOOOOOOOOOOOOOOOOOXOO..oooooo..OOOXOO..ooo",
"ooooOOOOXX.++Oo..OOXO+OOXX.++Oo..OOXO+OOXX.++Oo..OOXO+OOOOOOOOOOOOOOOOOOOOOOOOOOOOOOOOOOOOOOOOOOOOOOOOOOXX..ooooooooOOOOXX..oooo",
"ooo..XXOOO++O  O OOXXOXOOO++O  O OOXXOXOOO++O  O OOXXOXOOOOOOOOOOOOOOOOOOOOOOOOOOOOOOOOOOOOOOOOOOOOOOOOOOXXoooooooo..XXOOXXooooo",
"oooOo. XOOOOXXOOXXOO XOOOOOOXXOOXXOO XOOOOOOXXOOXXOO XOOOOOOOOOOOOOOOOOOOOOOOOOOOOOOOOOOOOOOOOOOOOOOOOOOOO++oooooooOo. XOO++oooo",
"o..++OXOOOOOOOOOOXOOOOOOOOOOOOOOOXOOOOOOOOOOOOOOOXOOOOOOOOOOOOOOOOOOOOOOOOOOOOOOOOOOOOOOOOOOOOOOOOOOOOOOOOO++oooo..++OXOOOO++ooo",
"o..O++OOOOOOOOOOOOOOOOOOOOOOOOOOOOOOOOOOOOOOOOOOOOOOOOOOOOOOOOOOOOOOOOOOOOOOOOOOOOOOOOOOOOOOOOOOOOOOOOOOOOXO+oooo..O++OOOOXO+ooo",
"oo.XOOOOOOOOOOOOOOOOOOOOOOOOXOOXOOOXOOOOOOOOXOOXOOOXOOOOOOOOOOOOOOOOOOOOOOOOXOOXOOOXOOOOOOOXOOXOOOXOOOOOO  XO.oooo....O+XOO..ooo",
"ooo.XXOOOOOOOOOOOOOOOOOOOOXX OX OOXOOOOOOOXX OX OOXOOOOOOOOOOOOOOOOOOOOOOOXX OX OOXOOOOOOXX OX OOXOOOOOOOOOX..oooooo.++OX++O.ooo",
"oooo.  OOOOOOOOOOOOOOOOOOOO .O .OX O++OOOOO .O .OX O++OOOOOOOOOOOOOOOOOOOOO .O .OX O++OOOO .O .OX O++OOOOOOXoooooooo++OX..++oooo",
"ooooXXOOOOOOOOOOOOOOOOOOOOXOO...O..++XOOOOXOO...O..++XOOOOOOOOOOOOOOOOOOOOXOO...O..++XOOOXOO...O..++XOOOOOXOOoooooooo...oo.+.ooo",
"ooOOOOOOOOOOOOOOOOOOOOOOOX O+Ooo..OOOXOOOX O+Ooo..OOOXOOOOOOOOOOOOOOOOOOOX O+Ooo..OOOXOOX O+Ooo..OOOXOOOOX O+Ooooooo...oooo..ooo",
"o..OOOOOOOOOOOOOOOOOOOOOOO XO+ooo...XOOOOO XO+ooo...XOOOOOOOOOOOOOOOOOOOOO XO+ooo...XOOOO XO+ooo...XOOOOOO XO+oooooooooooooooooo",
"oo..XOOOOOOOOOOOOOOOOOOOOOO..O.oooOOOOOOOOO..O.oooOOOOOOOOOOOOOOOOOOOOOOOOO..O.oooOOOOOOOO..O.oooOOOOOOOOOO..O.ooooooooooooooooo",
"ooo.OOOOOOOOOOOOOOOOOOOOOXXoo..ooooOOOOOOXXoo..ooooOOOOOOOOOOOOOOOOOOOOOOXXoo..ooooOOOOOXXoo..ooooOOOOOOOXXoo..ooooooooooooooooo",
"oooOOXOOOOOOOOOOOOOOOOOOOOOOoooooooOOXOOOOOOoooooooOOXOOOOOOOOOOOOOOOOOOOOOOoooooooOOXOOOOOoooooooOOXOOOOOOOoooooooooooooooooooo",
"oo..XXOOOOOOOOOOOOOOOOOOOOOOOooooo..XOOOOOOOOooooo..XXOOOOOOOOOOOOOOOOOOOOOOOooooo..XOOOOOOOooooo..XOOOOOOOOOooooooooooooooooooo",
"ooo..OOOOOOOOOOOOOOOOOOOXOO..ooo.Oo.O+OOXOO..oooooo..OOOOOOOOOOOOOOOOOOOXOO..ooo.Oo.O+OXOO..ooo.Oo.O+OOOXOO..oooooooo++.oooooooo",
"ooooOOOOOOOOOOOOOOOOOOOOXX.++Oo..OOXO+OOXX..ooooooooOOOOOOOOOOOOOOOOOOOOXX.++Oo..OOXO+OXX.++Oo..OOXO+OOOXX..oooooooo.O++oooooooo",
"ooo..XXOOOOOOOOOOOOOOOOOOO++O  O OOXXOXOOXXoooooooo..XXOOOOOOOOOOOOOOOOOOO++O  O OOXXOXOO++O  O OOXXOXOOOXXoooooooO++XO+ooO+Oooo",
"oooOo. XOOOOOOOOOOOOOOOOOOOOXXOOXXOO XOOOO++oooooooOo. XOOOOOOOOOOOOOOOOOOOOXXOOXXOO XOOOOOXXOOXXOO XOOOOO++oooooo.O++OO.O+O..oo",
"o..++OXOOOOOOOOOOOOOOOOOOOOOOOOOOXOOOOOOOOO++oooo..++OXOOOOOOOOOOOOOOOOOOOOOOOOOOXOOOOOOOOOOOOOOXOOOOOOOOOO++ooooo..OOOOO++X.ooo",
"o..O++OOOOOOOOOOOOOOOOOOOOOOOOOOOOOOOOOOOOXO+oooo..O++OOOOOOOOOOOOOOOOOOOOOOOOOOOOOOOOOOOOOOOOOOOOOOOOOOOOXO+ooooooOOOOOOOOXoooo",
"oo.XOOOOOOOOXOOXOOOXOOOOOOOOXOOXOOOXOOOOO  XO.oooo.XOOOOOOOOOOOOOOOOOOOOOOOOOOOOOOOOOOOOOOOOOOOOOOOOOOOOO  XO.oooo.XOOOOO  XO.oo",
"ooo.XXOOOOXX OX OOXOOOOOOOXX OX OOXOOOOOOOOX..ooooo.XXOOOOOOOOOOOOOOOOOOOOOOOOOOOOOOOOOOOOOOOOOOOOOOOOOOOOOX..ooooo.XXOOOOOX..oo",
"oooo.  OOOO .O .OX O++OOOOO .O .OX O++OOOOOXoooooooo.  OOOOOOOOOOOOOOOOOOOOOOOOOOOOOOOOOOOOOOOOOOOOOOOOOOOOXoooooooo.  OOOOXoooo",
"ooooXXOOOOXOO...O..++XOOOOXOO...O..++XOOOOXOOoooooooXXOOOOOOOOOOOOOOOOOOOOOOOOOOOOOOOOOOOOOOOOOOOOOOOOOOOOXOOoooooooXXOOOOXOOooo",
"ooOOOOOOOX O+Ooo..OOOXOOOX O+Ooo..OOOXOOOX O+OooooOOOOOOOOOOOOOOOOOOOOOOOOOOOOOOOOOOOOOOOOOOOOOOOOOOOOOOOX O+OooooOOOOOOOX O+Ooo",
"o..OOOOOOO XO+ooo...XOOOOO XO+ooo...XOOOOO XO+ooo..OOOOOOOOOOOOOOOOOOOOOOOOOOOOOOOOOOOOOOOOOOOOOOOOOOOOOOO XO+ooo..OOOOOOO XO+oo",
"oo..XOOOOOO..O.oooOOOOOOOOO..O.oooOOOOOOOOO..O.ooo..XOOOOOOOOOOOOOOOOOOOOOOOOOOOOOOOOOOOOOOOOOOOOOOOOOOOOOO..O.ooo..XOOOOOO..O.o",
"ooo.OOOOOXXoo..ooooOOOOOOXXoo..ooooOOOOOOXXoo..oooo.OOOOOOOOOOOOOOOOOOOOOOOOOOOOOOOOOOOOOOOOOOOOOOOOOOOOOXXoo..oooo.OOOOOXXoo..o",
"oooOOXOOOOOOoooooooOOXOOOOOOoooooooOOXOOOOOOoooooooOOXOOOOOOOOOOOOOOOOOOOOOOOOOOOOOOOOOOOOOOOOOOOOOOOOOOOOOOoooooooOOXOOOOOOoooo",
"oo..XXOOOOOOOooooo..XOOOOOOOOooooo..XOOOOOOOOooooo..XOOOOOOOOOOOOOOOOOOOOOOOOOOOOOOOOOOOOOOOOOOOOOOOOOOOOOOOOooooo..XXOOOOOOOooo",
"ooo..OOOXOO..ooo.Oo.O+OOXOO..ooo.Oo.O+OOXOO..ooo.Oo.O+OOOOOOOOOOOOOOOOOOOOOOOOOOOOOOOOOOOOOOOOOOOOOOOOOOXOO..oooooo..OOOXOO..ooo",
"ooooOOOOXX.++Oo..OOXO+OOXX.++Oo..OOXO+OOXX.++Oo..OOXO+OOOOOOOOOOOOOOOOOOOOOOOOOOOOOOOOOOOOOOOOOOOOOOOOOOXX..ooooooooOOOOXX..oooo",
"ooo..XXOOO++O  O OOXXOXOOO++O  O OOXXOXOOO++O  O OOXXOXOOOOOOOOOOOOOOOOOOOOOOOOOOOOOOOOOOOOOOOOOOOOOOOOOOXXoooooooo..XXOOXXooooo",
"oooOo. XOOOOXXOOXXOO XOOOOOOXXOOXXOO XOOOOOOXXOOXXOO XOOOOOOOOOOOOOOOOOOOOOOOOOOOOOOOOOOOOOOOOOOOOOOOOOOOO++oooooooOo. XOO++oooo",
"o..++OXOOOOOOOOOOXOOOOOOOOOOOOOOOXOOOOOOOOOOOOOOOXOOOOOOOOOOOOOOOOOOOOOOOOOOOOOOOOOOOOOOOOOOOOOOOOOOOOOOOOO++oooo..++OXOOOO++ooo",
"o..O++OOOOOOOOOOOOOOOOOOOOOOOOOOOOOOOOOOOOOOOOOOOOOOOOOOOOOOOOOOOOOOOOOOOOOOOOOOOOOOOOOOOOOOOOOOOOOOOOOOOOXO+oooo..O++OOOOXO+ooo",
"oo.XOOOOOOOOXOOXOOOXOOXOOOOOOOOXOOOXOOOOOOOOOOOOOOOOOOOOOOOOXOOXOOOXOOOOOOOOOOOOOOOOOOOOOOOOOOOOOOOOOOOOO  XO.oooo.XOOOOOX XO.oo",
"ooo.XXOOOOXX OX OOXOOOXXOOXOOOX OOXOOOOOOOOOOOOOOOOOOOOOOOXX OX OOXOOOOOOOOOOOOOOOOOOOOOOOOOOOOOOOOOOOOOOOOX..ooooo.XXOOOOOX..oo",
"oooo.  OOOO .O .OX O+O XXX XOO .OX O++OOOOOOOOOOOOOOOOOOOOO .O .OX O++OOOOOOOOOOOOOOOOOOOOOOOOOOOOOOOOOOOOOXoooooooo.  OOOOXoooo",
"ooooXXOOOOXOO...O..++X XOOOXOX..O..++XOOOOOOOOOOOOOOOOOOOOXOO...O..++XOOOOOOOOOOOOOOOOOOOOOOOOOOOOOOOOOOOOXOOoooooooXXOOOOXOOooo",
"ooOOOOOOOX O+Ooo..OOO.oo.OOO..oo..OOOXOOOOOOOOOOOOOOOOOOOX O+Ooo..OOOXOOOOOOOOOOOOOOOOOOOOOOOOOOOOOOOOOOOX O+OooooOOOOOOOX O+Ooo",
"o..OOOOOOO XO+oo.o...ooooo..ooooo...XOOOOOOOOOOOOOOOOOOOOO XO+ooo...XOOOOOOOOOOOOOOOOOOOOOOOOOOOOOOOOOOOOO XO+ooo..OOOOOOO XO+oo",
"oo..XOOOOOO..O.oooooooooooo.ooooooOOOOOOOOOOOOOOOOOOOOOOOOO..O.oooOOOOOOOOOOOOOOOOOOOOOOOOOOOOOOOOOOOOOOOOO..O.ooo..XOOOOOO..O.o",
"ooo.OOOOOXXoo..ooooooooooooooooooooOOOOOOOOOOOOOOOOOOOOOOXXoo..ooooOOOOOOOOOOOOOOOOOOOOOOOOOOOOOOOOOOOOOOXXoo..oooo.OOOOOXXoo..o",
"oooOOXOOOOOOoooooooo.ooooooooooooooOOXOOOOOOOOOOOOOOOOOOOOOOoooooooOOXOOOOOOOOOOOOOOOOOOOOOOOOOOOOOOOOOOOOOOoooooooOOXOOOOOOoooo",
"oo..XXOOOOOOOooooooo.Ooooooooooooo..XOOOOOOOOOOOOOOOOOOOOOOOOooooo..XXOOOOOOOOOOOOOOOOOOOOOOOOOOOOOOOOOOOOOOOooooo..XOOOOOOOOooo",
"ooo..OOOXOO..ooo.Oo.O+oooO.ooooo.Oo.O+OOOOOOOOOOOOOOOOOOXOO..oooooo..OOOOOOOOOOOOOOOOOOOOOOOOOOOOOOOOOOOXOO..ooo.Oo.O+OOXOO..ooo",
"ooooOOOOXX.++Oo..OOXO+OXOO.++Oo..OOXO+OOOOOOOOOOOOOOOOOOXX..ooooooooOOOOOOOOOOOOOOOOOOOOOOOOOOOOOOOOOOOOXX.++Oo..OOXO+OOXX..oooo",
"ooo..XXOOO++O  O OOXXOOXOO++O  O OOXXOXOOOOOOOOOOOOOOOOOOXXoooooooo..XXOOOOOOOOOOOOOOOOOOOOOOOOOOOOOOOOOOO++O  O OOXXOXOOXXooooo",
"oooOo. XOOOOXXOOXXOO XOOOOOOXXOOXXOO XOOOOOOOOOOOOOOOOOOOO++oooooooOo. XOOOOOOOOOOOOOOOOOOOOOOOOOOOOOOOOOOOOXXOOXXOO XOOOO++oooo",
"o..++OXOOOOOOOOOOXOOOOOOOOOOOOOOOXOOOOOOOOOOOOOOOOOOOOOOOOO++oooo..++OXOOOOOOOOOOOOOOOOOOOOOOOOOOOOOOOOOOOOOOOOOOXOOOOOOOOO++ooo",
"o..O++OOOOOOOOOOOOOOOOOOOOOOOOOOOOOOOOOOOOOOOOOOOOOOOOOOOOXO+oooo..O++OOOOOOOOOOOOOOOOOOOOOOOOOOOOOOOOOOOOOOOOOOOOOOOOOOOOXO+ooo",
"oo....O+OOOOOOOXOOOXOOXOOOOOOOOXOOOXOOXOOOOOOOOXOOOXOOXOXOO..ooooo....O+OOOOOOOXOOOXOOXOOOOOOOOXOOOXOOXOOOOOOOOXOOOXOOXOXOO..ooo",
"oooo.++OOOXOOOX OOXOOOXXOOXOOOX OOXOOOXXOOXOOOX OOXOOOXXX++O.ooooooo.++OOOXOOOX OOXOOOXXOOXOOOX OOXOOOXXOOXOOOX OOXOOOXXX++O.ooo",
"oooo++OXXX XOO .OX O+O XXX XOO .OX O+O XXX XOO .OX O+O X..++oooooooo++OXXX XOO .OX O+O XXX XOO .OX O+O XXX XOO .OX O+O X..++oooo",
"ooooo...OOOXOX..O..++X XOOOXOX..O..++X XOOOXOX..O..++X Xoo.+.oooooooo...OOOXOX..O..++X XOOOXOX..O..++X XOOOXOX..O..++X Xoo.+.ooo",
"oooo...o.OOO..oo..OOO.oo.OOO..oo..OOO.oo.OOO..oo..OOO.ooooo..ooooooo...o.OOO..oo..OOO.oo.OOO..oo..OOO.oo.OOO..oo..OOO.ooooo..ooo",
"oooooooooo..oooo.o...ooooo..oooo.o...ooooo..oooo.o...ooooooooooooooooooooo..oooo.o...ooooo..oooo.o...ooooo..oooo.o...ooooooooooo",
"ooooooooooo.ooooooooooooooo.ooooooooooooooo.ooooooooooooooooooooooooooooooo.ooooooooooooooo.ooooooooooooooo.oooooooooooooooooooo",
"oooooooooooooooooooooooooooooooooooooooooooooooooooooooooooooooooooooooooooooooooooooooooooooooooooooooooooooooooooooooooooooooo"
};
